<?xml version="1.0" encoding="utf-8"?>
<svg width="512px" height="512px" viewBox="0 0 512 512" version="1.1" xmlns:xlink="http://www.w3.org/1999/xlink" xmlns="http://www.w3.org/2000/svg">
  <defs>
    <linearGradient gradientUnits="objectBoundingBox" x1="1.2130961" y1="-0.38606796" x2="-0.034237698" y2="1.0074301" id="gradient_1">
      <stop offset="0%" stop-color="#FFFFFF" />
      <stop offset="100%" stop-color="#FFC800" />
    </linearGradient>
    <linearGradient gradientUnits="objectBoundingBox" x1="-1.1092763" y1="1.4834242" x2="1.0000004" y2="0" id="gradient_2">
      <stop offset="0%" stop-color="#FFC800" />
      <stop offset="100%" stop-color="#90C418" stop-opacity="0.49803922" />
    </linearGradient>
    <linearGradient gradientUnits="objectBoundingBox" x1="-1.129898" y1="1.653375" x2="1.0582517" y2="-0.75197375" id="gradient_3">
      <stop offset="0%" stop-color="#FFC800" />
      <stop offset="100%" stop-color="#90C418" stop-opacity="0.49803922" />
    </linearGradient>
    <linearGradient gradientUnits="objectBoundingBox" x1="-1.6429382E-07" y1="0.77837515" x2="1.1491842" y2="-1.0500369" id="gradient_4">
      <stop offset="0%" stop-color="#FFC800" />
      <stop offset="100%" stop-color="#90C418" stop-opacity="0.49803922" />
    </linearGradient>
    <path d="M512 0L512 0L512 512L0 512L0 0L512 0Z" id="path_1" />
    <clipPath id="clip_1">
      <use xlink:href="#path_1" />
    </clipPath>
  </defs>
  <g id="logo" clip-path="url(#clip_1)">
    <path d="M512 0L512 0L512 512L0 512L0 0L512 0Z" id="logo" fill="none" stroke="none" />
    <path d="M0 386.2L31.2971 378.836C31.2971 378.836 180.764 366.639 295.481 295.53C410.199 224.422 490.629 95.553 490.629 95.553L491.306 97.2499C491.306 97.2499 411.801 229.489 297.89 302.093C183.977 374.698 36.3599 389.422 36.3599 389.422L6.90378 391.723L0 386.2Z" id="Vector" fill="url(#gradient_1)" fill-rule="evenodd" stroke="none" />
    <g id="Group-2" transform="translate(104.93713 93)">
      <path d="M209.874 194.094C209.874 194.094 197.677 85.972 242.092 37.7609C286.506 -10.4505 387.531 1.24919 387.531 1.24919C387.531 1.24919 413.121 70.6362 382.468 107.259C351.815 143.881 264.921 147.74 264.921 147.74L209.874 194.094Z" id="Vector-6" fill="url(#gradient_2)" fill-opacity="0.8" fill-rule="evenodd" stroke="none" />
      <path d="M171.213 216.186C171.213 216.186 146.82 137.023 183.64 85.0154C220.46 33.0071 318.494 8.15308 318.494 8.15308C318.494 8.15308 253.394 46.1199 227.16 91.6847C200.926 137.249 213.556 190.413 213.556 190.413L171.213 216.186Z" id="Vector-4" fill="url(#gradient_3)" fill-opacity="0.8" fill-rule="evenodd" stroke="none" />
      <path d="M202.51 200.229C202.51 200.229 263.263 221.515 307.908 193.786C352.552 166.055 381.087 89.3086 381.087 89.3086C381.087 89.3086 359.575 115.231 336.904 127.97C314.233 140.709 274.294 140.265 274.294 140.265L202.51 200.229Z" id="Vector-5" fill="url(#gradient_3)" fill-opacity="0.8" fill-rule="evenodd" stroke="none" />
      <path d="M19.3307 271.416C19.3307 271.416 15.6486 252.316 15.6486 238.739C15.6486 225.161 19.3307 213.885 19.3307 213.885C19.3307 213.885 20.136 222.27 22.092 229.289C24.0481 236.307 27.1549 241.961 27.1549 241.961C27.1549 241.961 26.9248 228.268 31.2971 213.885C35.6694 199.502 44.6443 184.429 44.6443 184.429C44.6443 184.429 40.7322 198.007 42.3432 213.885C43.954 229.764 51.0879 247.944 51.0879 247.944C51.0879 247.944 50.0524 213.08 66.2762 181.207C82.5001 149.335 99.8745 142.316 115.983 120.454C132.092 98.5922 130.711 93.7596 130.711 93.7596C130.711 93.7596 129.265 120.559 123.972 142.42C118.679 164.283 109.54 181.207 109.54 181.207C109.54 181.207 128.41 135.182 156.485 105.266C184.561 75.3495 221.841 61.542 221.841 61.542C221.841 61.542 182.49 96.1758 169.373 134.262C156.255 172.348 171.674 216.647 171.674 216.647C171.674 216.647 133.701 238.854 95.6152 252.546C57.5295 266.239 19.3307 271.416 19.3307 271.416Z" id="Vector-2" fill="url(#gradient_4)" fill-opacity="0.8" fill-rule="evenodd" stroke="none" />
      <path d="M0 282.002C0 282.002 6.55849 287.64 15.6485 293.969C24.7385 300.297 31.182 299.492 36.3598 307.316C41.5377 315.141 36.3598 325.266 36.3598 325.266C36.3598 325.266 42.228 318.132 43.7237 311.458C45.2197 304.784 42.343 298.571 42.343 298.571C42.343 298.571 53.5042 305.015 58.4518 311.458C63.3996 317.901 62.1338 324.345 62.1338 324.345C62.1338 324.345 63.0544 313.184 62.1338 307.316C61.2135 301.448 58.4518 300.872 58.4518 300.872C58.4518 300.872 73.9855 314.68 103.096 311.458C132.207 308.236 174.896 287.985 174.896 287.985C174.896 287.985 144.864 293.624 118.745 287.985C92.6254 282.347 70.4184 265.433 70.4184 265.433C70.4184 265.433 153.954 296.73 221.841 271.877C289.728 247.023 341.966 166.019 341.966 166.019C341.966 166.019 294.331 202.76 261.423 210.354C228.515 217.949 208.033 196.396 208.033 196.396C208.033 196.396 162.525 224.701 109.941 246.103C57.3579 267.504 0 282.002 0 282.002Z" id="Vector-3" fill="url(#gradient_4)" fill-opacity="0.8" fill-rule="evenodd" stroke="none" />
    </g>
  </g>
</svg>