<?xml version="1.0" encoding="utf-8"?>
<svg width="512px" height="256px" viewBox="0 0 512 256" version="1.1" xmlns:xlink="http://www.w3.org/1999/xlink" xmlns="http://www.w3.org/2000/svg">
  <defs>
    <linearGradient gradientUnits="objectBoundingBox" x1="1.2130961" y1="-0.38606796" x2="-0.034237698" y2="1.0074301" id="gradient_1">
      <stop offset="0%" stop-color="#FFFFFF" />
      <stop offset="100%" stop-color="#FFC800" />
    </linearGradient>
    <linearGradient gradientUnits="objectBoundingBox" x1="-1.1092763" y1="1.4834242" x2="1.0000004" y2="0" id="gradient_2">
      <stop offset="0%" stop-color="#FFC800" />
      <stop offset="100%" stop-color="#90C418" stop-opacity="0.49803922" />
    </linearGradient>
    <linearGradient gradientUnits="objectBoundingBox" x1="-1.129898" y1="1.653375" x2="1.0582517" y2="-0.75197375" id="gradient_3">
      <stop offset="0%" stop-color="#FFC800" />
      <stop offset="100%" stop-color="#90C418" stop-opacity="0.49803922" />
    </linearGradient>
    <linearGradient gradientUnits="objectBoundingBox" x1="-1.6429382E-07" y1="0.77837515" x2="1.1491842" y2="-1.0500369" id="gradient_4">
      <stop offset="0%" stop-color="#FFC800" />
      <stop offset="100%" stop-color="#90C418" stop-opacity="0.49803922" />
    </linearGradient>
  </defs>
  <g id="AcssText-Large">
    <path d="M488 0C501.257 0 512 10.7434 512 24L512 232C512 245.257 501.257 256 488 256L24 256C10.7434 256 0 245.257 0 232L0 24C0 10.7434 10.7434 0 24 0L488 0Z" id="Rectangle" fill="#161B2D" stroke="none" />
    <g id="Group" transform="translate(31 84.00012)">
      <g id="Brand" transform="translate(144.72876 4.4384766)">
        <path d="M101.816 25.1011C102.643 23.5371 103.733 22.108 105.054 20.8535C108.316 17.7557 112.652 16.0502 117.265 16.0502C121.877 16.0502 126.214 17.7557 129.476 20.8535C131.101 22.3955 132.364 24.1836 133.23 26.1674L133.57 26.9462L150.99 26.9462L150.632 25.4115C148.98 18.3131 144.779 11.865 138.804 7.25362C132.741 2.57614 125.092 0 117.265 0C106.064 0 95.5611 5.22301 89.1682 13.9718L88.5356 14.8388L100.99 26.6633L101.816 25.1011ZM133.23 38.7266C132.364 40.7104 131.101 42.4977 129.476 44.0406C128.154 45.2951 126.649 46.3302 125.002 47.1154C124.489 47.3597 123.958 47.5829 123.423 47.7758C121.782 48.3691 120.052 48.7181 118.284 48.8154C117.481 48.8595 116.64 48.8512 115.853 48.7897C111.789 48.4811 107.953 46.794 105.054 44.0406C102.154 41.2872 100.377 37.6466 100.052 33.7874L100.013 33.3246L85.7295 19.7624L85.0273 21.6515C83.7427 25.1112 83.0908 28.7435 83.0908 32.4466C83.0908 41.1136 86.6456 49.2627 93.1003 55.3903C99.5551 61.5189 108.137 64.894 117.264 64.894C121.881 64.894 126.359 64.0353 130.571 62.3409C131.369 62.0213 132.167 61.6658 132.94 61.2865C137.327 59.1338 141.248 56.0323 144.283 52.3182C147.358 48.5537 149.554 44.115 150.632 39.4825L150.989 37.9478L133.569 37.9478L133.23 38.7266ZM184.752 1.77704L201.214 17.4056L227.144 17.4056L227.144 1.77704L184.752 1.77704ZM226.301 39.5743L226.053 38.8929C226.028 38.8231 226.003 38.7533 225.977 38.6825L225.973 38.6715C225.958 38.6293 225.941 38.5861 225.925 38.5429L225.635 37.7595L225.611 37.7669C225.599 37.7375 225.586 37.7072 225.574 37.6778L225.485 37.4813C225.322 37.1185 225.146 36.7576 224.961 36.4086L224.897 36.2864C224.613 35.7556 224.297 35.2284 223.959 34.7205L223.839 34.5396C223.776 34.4468 223.712 34.3522 223.647 34.2604L223.621 34.2246C223.546 34.1199 223.472 34.0152 223.388 33.9041L223.359 33.8646C223.244 33.7112 223.128 33.5606 223.012 33.4136L222.945 33.3282C222.929 33.3062 222.913 33.285 222.893 33.263C222.832 33.1868 222.769 33.1096 222.705 33.0316L222.667 32.9866C222.623 32.9342 222.579 32.8828 222.535 32.8314L222.358 32.6256C222.301 32.5604 222.243 32.4961 222.184 32.43C221.905 32.1196 221.612 31.8138 221.318 31.5254L221.303 31.5107C221.224 31.4326 221.143 31.3555 221.063 31.2783L221.052 31.2682C221.002 31.2214 220.953 31.1755 220.903 31.1295L220.739 30.978C220.706 30.9477 220.673 30.9183 220.641 30.8908L220.601 30.8549C220.503 30.7677 220.404 30.6814 220.308 30.5987C220.145 30.4582 219.998 30.336 219.86 30.224L219.842 30.2093C219.468 29.9071 219.073 29.6114 218.671 29.3313L218.582 29.2679C218.394 29.1393 218.193 29.0062 217.988 28.8748L217.944 28.8455C217.759 28.7279 217.562 28.6076 217.348 28.4808L216.891 28.2182L216.878 28.2108C216.602 28.0575 216.309 27.9032 216.005 27.7525L215.988 27.7434C215.837 27.669 215.686 27.5964 215.541 27.5285L215.523 27.5211C215.443 27.4835 215.363 27.4467 215.276 27.4072L215.265 27.4026C215.01 27.2878 214.748 27.1767 214.486 27.0711L214.431 27.05C214.208 26.9609 213.983 26.8755 213.761 26.7956L213.65 26.7561C213.311 26.6358 212.965 26.5228 212.616 26.419L212.567 26.4043C212.393 26.3538 212.219 26.3042 212.038 26.2565L211.995 26.2445C211.944 26.2307 211.894 26.2179 211.841 26.2041L211.673 26.1334L211.555 26.1334C211.342 26.081 211.127 26.0324 210.915 25.9883L210.856 25.9754C210.688 25.9405 210.519 25.9075 210.34 25.8753L210.098 25.8322C209.872 25.7936 209.667 25.7624 209.473 25.7348L209.41 25.7256C209.278 25.7082 209.144 25.6907 209.011 25.6742L208.984 25.6714C208.78 25.6475 208.564 25.6255 208.328 25.6053L208.282 25.6007C208.246 25.598 208.211 25.5943 208.166 25.5906C208.114 25.5869 208.061 25.5833 208.011 25.5796L207.891 25.5713C207.838 25.5677 207.785 25.564 207.734 25.5612C207.544 25.5493 207.342 25.541 207.114 25.5337L206.967 25.5291C206.901 25.5272 206.835 25.5254 206.775 25.5245L206.702 25.5236C206.605 25.5227 206.508 25.5208 206.411 25.5208L181.402 25.5208C179.046 25.5208 177.129 23.7005 177.129 21.4633C177.129 19.226 179.046 17.4057 181.402 17.4057L193.693 17.4057L177.574 2.10136L176.861 2.25198C176.389 2.35116 175.903 2.47239 175.416 2.61107C172.159 3.54142 169.159 5.24691 166.741 7.54294C164.323 9.83896 162.526 12.687 161.546 15.7792C160.964 17.617 160.668 19.5291 160.668 21.4633C160.668 23.3984 160.963 25.3105 161.546 27.1473C162.526 30.2405 164.323 33.0885 166.741 35.3845C169.159 37.6806 172.159 39.386 175.416 40.3164C177.351 40.8693 179.365 41.1503 181.402 41.1503L206.411 41.1503C208.767 41.1503 210.684 42.9706 210.684 45.2079C210.684 47.4451 208.767 49.2654 206.411 49.2654L160.668 49.2654L160.668 64.894L206.411 64.894C210.956 64.894 215.271 63.5237 218.89 60.9301C222.389 58.4229 225.01 54.8576 226.266 50.891C226.849 49.0551 227.145 47.142 227.145 45.2079C227.145 43.293 226.855 41.3992 226.284 39.5808L226.301 39.5743ZM260.879 1.77704L277.341 17.4056L303.271 17.4056L303.271 1.77704L260.879 1.77704ZM302.427 39.5743L302.179 38.8929C302.154 38.8231 302.129 38.7533 302.103 38.6825L302.099 38.6715C302.084 38.6293 302.067 38.5861 302.051 38.5429L301.76 37.7595L301.737 37.7669C301.725 37.7375 301.712 37.7072 301.699 37.6778L301.611 37.4813C301.448 37.1185 301.272 36.7576 301.087 36.4086L301.023 36.2864C300.739 35.7556 300.423 35.2284 300.085 34.7205L299.965 34.5396C299.902 34.4468 299.837 34.3522 299.773 34.2604L299.747 34.2246C299.672 34.1199 299.598 34.0152 299.514 33.9041L299.484 33.8646C299.37 33.7112 299.254 33.5606 299.138 33.4136L299.071 33.3282C299.055 33.3062 299.038 33.285 299.019 33.263C298.958 33.1868 298.895 33.1096 298.831 33.0316L298.793 32.9866C298.749 32.9342 298.705 32.8828 298.661 32.8314L298.484 32.6256C298.427 32.5604 298.369 32.4961 298.31 32.43C298.031 32.1196 297.737 31.8138 297.444 31.5254L297.429 31.5107C297.35 31.4326 297.269 31.3555 297.189 31.2783L297.177 31.2682C297.128 31.2214 297.079 31.1755 297.028 31.1295L296.865 30.978C296.832 30.9477 296.799 30.9183 296.767 30.8908L296.727 30.8549C296.629 30.7677 296.53 30.6814 296.434 30.5987C296.271 30.4582 296.124 30.336 295.986 30.224L295.968 30.2093C295.594 29.9071 295.199 29.6114 294.797 29.3313L294.708 29.2679C294.52 29.1393 294.319 29.0062 294.114 28.8748L294.069 28.8455C293.885 28.7279 293.688 28.6076 293.474 28.4808L293.017 28.2182L293.004 28.2108C292.728 28.0575 292.435 27.9032 292.131 27.7525L292.114 27.7434C291.963 27.669 291.812 27.5964 291.667 27.5285L291.649 27.5211C291.569 27.4835 291.489 27.4467 291.402 27.4072L291.391 27.4026C291.136 27.2878 290.874 27.1767 290.611 27.0711L290.557 27.05C290.334 26.9609 290.109 26.8755 289.887 26.7956L289.776 26.7561C289.437 26.6358 289.091 26.5228 288.742 26.419L288.693 26.4043C288.519 26.3538 288.345 26.3042 288.164 26.2565L288.121 26.2445C288.07 26.2307 288.02 26.2179 287.967 26.2041L287.798 26.1334L287.68 26.1334C287.468 26.081 287.253 26.0324 287.041 25.9883L286.982 25.9754C286.814 25.9405 286.645 25.9075 286.466 25.8753L286.224 25.8322C285.997 25.7936 285.793 25.7624 285.599 25.7348L285.536 25.7256C285.403 25.7082 285.27 25.6907 285.137 25.6742L285.109 25.6714C284.906 25.6475 284.69 25.6255 284.454 25.6053L284.408 25.6007C284.372 25.598 284.337 25.5943 284.292 25.5906C284.24 25.5869 284.187 25.5833 284.137 25.5796L284.016 25.5713C283.964 25.5677 283.911 25.564 283.86 25.5612C283.67 25.5493 283.468 25.541 283.24 25.5337L283.093 25.5291C283.027 25.5272 282.961 25.5254 282.901 25.5245L282.828 25.5236C282.731 25.5227 282.634 25.5208 282.536 25.5208L257.528 25.5208C255.172 25.5208 253.254 23.7005 253.254 21.4633C253.254 19.226 255.172 17.4057 257.528 17.4057L269.818 17.4057L253.699 2.10136L252.986 2.25198C252.514 2.35116 252.029 2.47239 251.542 2.61107C248.284 3.54142 245.285 5.24691 242.867 7.54294C240.448 9.83896 238.652 12.687 237.672 15.7792C237.09 17.617 236.794 19.5291 236.794 21.4633C236.794 23.3984 237.089 25.3105 237.672 27.1473C238.652 30.2405 240.448 33.0885 242.867 35.3845C245.285 37.6806 248.284 39.386 251.542 40.3164C253.477 40.8693 255.491 41.1503 257.528 41.1503L282.536 41.1503C284.893 41.1503 286.81 42.9706 286.81 45.2079C286.81 47.4451 284.893 49.2654 282.536 49.2654L236.794 49.2654L236.794 64.894L282.536 64.894C287.082 64.894 291.397 63.5237 295.016 60.9301C298.515 58.4229 301.136 54.8576 302.392 50.891C302.974 49.0551 303.27 47.142 303.27 45.2079C303.27 43.293 302.981 41.3992 302.41 39.5808L302.427 39.5743Z" id="Path" fill="#FDFDFD" stroke="none" />
        <path d="M41.0696 0.605336L31.503 15.5819L58.897 58.649L62.8871 64.8943L82.1402 64.8943L41.0696 0.605336Z" id="Path" fill="#FDFDFD" stroke="none" />
        <path d="M0 64.894L19.2531 64.894L37.9945 35.5563L28.3902 20.4549L0 64.894Z" id="Path" fill="#FDFDFD" stroke="none" />
      </g>
      <g id="Logo-3">
        <path d="M0 65.7727L7.36127 64.1208C7.36127 64.1208 42.5168 61.3848 69.4991 45.4331C96.4815 29.4815 115.399 0.572668 115.399 0.572668L115.558 0.95334C115.558 0.95334 96.8584 30.6181 70.0656 46.9053C43.2726 63.1925 8.55208 66.4955 8.55208 66.4955L1.62381 67.0116L0 65.7727Z" id="Vector" fill="url(#gradient_1)" fill-rule="evenodd" stroke="none" />
        <g id="Group-2" transform="translate(24.681784 0)">
          <path d="M49.364 43.5407C49.364 43.5407 46.4953 19.2859 56.9417 8.4708C67.3883 -2.34433 91.1501 0.280227 91.1501 0.280227C91.1501 0.280227 97.1689 15.8456 89.9591 24.0611C82.7495 32.2765 62.3112 33.1422 62.3112 33.1422L49.364 43.5407Z" id="Vector-6" fill="url(#gradient_2)" fill-opacity="0.8" fill-rule="evenodd" stroke="none" />
          <path d="M40.2704 48.4964C40.2704 48.4964 34.5328 30.738 43.1932 19.0711C51.8535 7.40424 74.9116 1.8288 74.9116 1.8288C74.9116 1.8288 59.5999 10.3458 53.4294 20.5672C47.2589 30.7887 50.2297 42.7147 50.2297 42.7147L40.2704 48.4964Z" id="Vector-4" fill="url(#gradient_3)" fill-opacity="0.8" fill-rule="evenodd" stroke="none" />
          <path d="M47.6318 44.9168C47.6318 44.9168 61.9213 49.692 72.4219 43.4715C82.9226 37.2508 89.6343 20.0343 89.6343 20.0343C89.6343 20.0343 84.5744 25.8494 79.242 28.7071C73.9096 31.5648 64.5157 31.4652 64.5157 31.4652L47.6318 44.9168Z" id="Vector-5" fill="url(#gradient_3)" fill-opacity="0.8" fill-rule="evenodd" stroke="none" />
          <path d="M4.54648 60.8861C4.54648 60.8861 3.68042 56.6014 3.68042 53.5557C3.68042 50.5099 4.54648 47.9804 4.54648 47.9804C4.54648 47.9804 4.73591 49.8612 5.19597 51.4357C5.65606 53.0102 6.38679 54.2784 6.38679 54.2784C6.38679 54.2784 6.33266 51.2068 7.36108 47.9804C8.38947 44.7539 10.5004 41.3726 10.5004 41.3726C10.5004 41.3726 9.58027 44.4184 9.95918 47.9804C10.3381 51.5424 12.016 55.6206 12.016 55.6206C12.016 55.6206 11.7724 47.7997 15.5884 40.6498C19.4044 33.5 23.4909 31.9254 27.2798 27.0212C31.0687 22.117 30.744 21.0329 30.744 21.0329C30.744 21.0329 30.4038 27.0447 29.1588 31.9489C27.9139 36.8531 25.7643 40.6498 25.7643 40.6498C25.7643 40.6498 30.2027 30.3251 36.8062 23.6141C43.4097 16.903 52.1782 13.8056 52.1782 13.8056C52.1782 13.8056 42.9225 21.5749 39.8374 30.1186C36.7521 38.6623 40.3786 48.5998 40.3786 48.5998C40.3786 48.5998 31.4472 53.5815 22.4891 56.6531C13.5311 59.7247 4.54648 60.8861 4.54648 60.8861Z" id="Vector-2" fill="url(#gradient_4)" fill-opacity="0.8" fill-rule="evenodd" stroke="none" />
          <path d="M0 63.2609C0 63.2609 1.5426 64.5256 3.68063 65.9453C5.81865 67.3649 7.33421 67.1843 8.55207 68.9394C9.76994 70.6947 8.55207 72.966 8.55207 72.966C8.55207 72.966 9.9323 71.3657 10.2841 69.8686C10.636 68.3716 9.95937 66.9777 9.95937 66.9777C9.95937 66.9777 12.5845 68.4232 13.7483 69.8686C14.912 71.3141 14.6143 72.7595 14.6143 72.7595C14.6143 72.7595 14.8308 70.2558 14.6143 68.9394C14.3978 67.6231 13.7483 67.4939 13.7483 67.4939C13.7483 67.4939 17.4019 70.5913 24.2489 69.8686C31.096 69.1459 41.1366 64.6031 41.1366 64.6031C41.1366 64.6031 34.073 65.8679 27.9296 64.6031C21.7861 63.3383 16.5629 59.544 16.5629 59.544C16.5629 59.544 36.211 66.5647 52.1785 60.9894C68.146 55.4141 80.4327 37.2427 80.4327 37.2427C80.4327 37.2427 69.2285 45.4848 61.4884 47.1884C53.7482 48.8919 48.9309 44.057 48.9309 44.057C48.9309 44.057 38.227 50.4067 25.859 55.2076C13.491 60.0086 0 63.2609 0 63.2609Z" id="Vector-3" fill="url(#gradient_4)" fill-opacity="0.8" fill-rule="evenodd" stroke="none" />
        </g>
      </g>
    </g>
  </g>
</svg>