<?xml version="1.0" encoding="utf-8"?>
<svg width="480px" height="96.727905px" viewBox="0 0 480 96.727905" version="1.1" xmlns:xlink="http://www.w3.org/1999/xlink" xmlns="http://www.w3.org/2000/svg">
  <defs>
    <linearGradient gradientUnits="objectBoundingBox" x1="1.2130961" y1="-0.38606796" x2="-0.034237698" y2="1.0074301" id="gradient_1">
      <stop offset="0%" stop-color="#FFFFFF" />
      <stop offset="100%" stop-color="#FFC800" />
    </linearGradient>
    <linearGradient gradientUnits="objectBoundingBox" x1="-1.1092763" y1="1.4834242" x2="1.0000004" y2="0" id="gradient_2">
      <stop offset="0%" stop-color="#FFC800" />
      <stop offset="100%" stop-color="#90C418" stop-opacity="0.49803922" />
    </linearGradient>
    <linearGradient gradientUnits="objectBoundingBox" x1="-1.129898" y1="1.653375" x2="1.0582517" y2="-0.75197375" id="gradient_3">
      <stop offset="0%" stop-color="#FFC800" />
      <stop offset="100%" stop-color="#90C418" stop-opacity="0.49803922" />
    </linearGradient>
    <linearGradient gradientUnits="objectBoundingBox" x1="-1.6429382E-07" y1="0.77837515" x2="1.1491842" y2="-1.0500369" id="gradient_4">
      <stop offset="0%" stop-color="#FFC800" />
      <stop offset="100%" stop-color="#90C418" stop-opacity="0.49803922" />
    </linearGradient>
  </defs>
  <g id="Group-2">
    <path d="M468 0C474.628 0 480 5.37168 480 12L480 84.7279C480 91.3562 474.628 96.7279 468 96.7279L12 96.7279C5.37168 96.7279 0 91.3562 0 84.7279L0 12C0 5.37168 5.37168 0 12 0L468 0Z" id="Rectangle" fill="#161B2D" stroke="none" />
    <g id="Group" transform="translate(104 25)">
      <g id="Brand" transform="translate(94 0.27197266)">
        <path d="M59.2088 15.5702C59.6898 14.6 60.3237 13.7135 61.0921 12.9353C62.9889 11.0138 65.5107 9.95588 68.1933 9.95588C70.8753 9.95588 73.3971 11.0138 75.2939 12.9353C76.2389 13.8919 76.9735 15.001 77.477 16.2316L77.675 16.7147L87.8053 16.7147L87.5971 15.7627C86.6364 11.3596 84.1934 7.35981 80.7187 4.4994C77.1929 1.59798 72.7446 0 68.1933 0C61.6794 0 55.5716 3.23982 51.854 8.66667L51.4861 9.20446L58.7284 16.5392L59.2088 15.5702ZM77.477 24.022C76.9736 25.2526 76.2389 26.3612 75.2939 27.3182C74.5255 28.0964 73.6502 28.7385 72.6923 29.2256C72.3941 29.3771 72.0853 29.5155 71.7743 29.6352C70.8197 30.0032 69.8139 30.2197 68.7856 30.2801C68.3188 30.3074 67.8299 30.3023 67.372 30.2641C65.0084 30.0727 62.778 29.0262 61.0922 27.3182C59.4058 25.6103 58.3724 23.3521 58.1834 20.9582L58.1604 20.6711L49.8543 12.2585L49.4459 13.4304C48.6989 15.5764 48.3198 17.8295 48.3198 20.1265C48.3198 25.5027 50.387 30.5575 54.1407 34.3585C57.8943 38.16 62.8849 40.2536 68.1927 40.2536C70.8776 40.2536 73.4815 39.7209 75.9312 38.6699C76.3953 38.4716 76.8588 38.2511 77.3088 38.0159C79.8598 36.6805 82.1402 34.7567 83.9048 32.4529C85.693 30.1177 86.9699 27.3644 87.5971 24.4909L87.8047 23.5389L77.6744 23.5389L77.477 24.022ZM107.439 1.10229L117.012 10.7967L132.091 10.7967L132.091 1.10229L107.439 1.10229ZM131.601 24.5478L131.457 24.1251C131.442 24.0818 131.427 24.0385 131.412 23.9947L131.41 23.9878C131.401 23.9616 131.391 23.9349 131.382 23.9081L131.213 23.4221L131.2 23.4267C131.192 23.4085 131.185 23.3897 131.178 23.3714L131.126 23.2495C131.031 23.0245 130.929 22.8006 130.822 22.5841L130.785 22.5084C130.619 22.1791 130.435 21.8521 130.239 21.537L130.169 21.4248C130.133 21.3673 130.095 21.3086 130.057 21.2516L130.042 21.2294C129.999 21.1645 129.955 21.0995 129.907 21.0306L129.89 21.0061C129.823 20.911 129.756 20.8175 129.688 20.7264L129.649 20.6734C129.64 20.6597 129.63 20.6466 129.619 20.633C129.584 20.5857 129.547 20.5378 129.509 20.4894L129.487 20.4615C129.462 20.429 129.436 20.3971 129.411 20.3652L129.308 20.2376C129.275 20.1971 129.241 20.1573 129.207 20.1162C129.044 19.9237 128.874 19.734 128.703 19.5551L128.694 19.546C128.648 19.4976 128.601 19.4497 128.555 19.4019L128.548 19.3956C128.519 19.3665 128.491 19.3381 128.461 19.3096L128.366 19.2156C128.347 19.1968 128.328 19.1785 128.309 19.1614L128.286 19.1392C128.229 19.0851 128.172 19.0316 128.115 18.9803C128.021 18.8931 127.935 18.8174 127.855 18.7479L127.845 18.7387C127.627 18.5513 127.398 18.3679 127.164 18.1941L127.112 18.1548C127.003 18.0751 126.886 17.9925 126.767 17.911L126.741 17.8928C126.633 17.8198 126.519 17.7452 126.394 17.6666L126.129 17.5037L126.121 17.4991C125.96 17.404 125.79 17.3083 125.613 17.2148L125.603 17.2091C125.515 17.163 125.428 17.118 125.343 17.0758L125.333 17.0713C125.287 17.0479 125.24 17.0251 125.189 17.0006L125.183 16.9978C125.035 16.9266 124.882 16.8576 124.73 16.7921L124.698 16.779C124.568 16.7238 124.438 16.6708 124.308 16.6212L124.244 16.5967C124.047 16.5221 123.845 16.452 123.642 16.3876L123.614 16.3785C123.513 16.3472 123.412 16.3164 123.307 16.2868L123.281 16.2794C123.252 16.2709 123.223 16.2629 123.192 16.2543L123.094 16.2105L123.025 16.2105C122.902 16.178 122.777 16.1478 122.653 16.1205L122.619 16.1125C122.521 16.0908 122.423 16.0703 122.319 16.0504L122.178 16.0236C122.046 15.9997 121.928 15.9803 121.815 15.9632L121.778 15.9575C121.701 15.9467 121.623 15.9359 121.546 15.9256L121.53 15.9239C121.412 15.9091 121.286 15.8954 121.149 15.8829L121.122 15.8801C121.101 15.8783 121.081 15.8761 121.055 15.8738C121.024 15.8715 120.993 15.8692 120.965 15.867L120.894 15.8618C120.864 15.8595 120.833 15.8573 120.803 15.8556C120.693 15.8482 120.576 15.843 120.443 15.8385L120.357 15.8356C120.319 15.8345 120.281 15.8333 120.246 15.8328L120.203 15.8322C120.147 15.8316 120.091 15.8305 120.034 15.8305L105.491 15.8305C104.12 15.8305 103.006 14.7014 103.006 13.3136C103.006 11.9259 104.12 10.7967 105.491 10.7967L112.638 10.7967L103.264 1.30347L102.85 1.3969C102.575 1.45842 102.293 1.53362 102.01 1.61964C100.115 2.19673 98.371 3.25464 96.9647 4.67886C95.5584 6.10308 94.5139 7.86968 93.944 9.78782C93.6054 10.9278 93.4333 12.1139 93.4333 13.3136C93.4333 14.5139 93.6049 15.7 93.944 16.8394C94.5139 18.7581 95.5584 20.5247 96.9647 21.9489C98.371 23.3732 100.115 24.4311 102.01 25.0082C103.135 25.3511 104.306 25.5254 105.491 25.5254L120.034 25.5254C121.404 25.5254 122.519 26.6546 122.519 28.0423C122.519 29.4301 121.404 30.5592 120.034 30.5592L93.4333 30.5592L93.4333 40.2536L120.034 40.2536C122.677 40.2536 125.186 39.4036 127.291 37.7948C129.326 36.2395 130.85 34.028 131.58 31.5675C131.919 30.4287 132.091 29.2421 132.091 28.0423C132.091 26.8545 131.923 25.6798 131.591 24.5518L131.601 24.5478ZM151.709 1.10229L161.282 10.7967L176.361 10.7967L176.361 1.10229L151.709 1.10229ZM175.87 24.5478L175.726 24.1251C175.712 24.0818 175.697 24.0385 175.682 23.9947L175.679 23.9878C175.67 23.9616 175.661 23.9349 175.651 23.9081L175.483 23.4221L175.469 23.4267C175.462 23.4085 175.454 23.3897 175.447 23.3714L175.395 23.2495C175.301 23.0245 175.199 22.8006 175.091 22.5841L175.054 22.5084C174.889 22.1791 174.705 21.8521 174.508 21.537L174.439 21.4248C174.402 21.3673 174.364 21.3086 174.327 21.2516L174.311 21.2294C174.268 21.1645 174.225 21.0995 174.176 21.0306L174.159 21.0061C174.093 20.911 174.025 20.8175 173.958 20.7264L173.919 20.6734C173.909 20.6597 173.9 20.6466 173.888 20.633C173.853 20.5857 173.816 20.5378 173.779 20.4894L173.757 20.4615C173.731 20.429 173.706 20.3971 173.68 20.3652L173.577 20.2376C173.544 20.1971 173.51 20.1573 173.476 20.1162C173.314 19.9237 173.143 19.734 172.973 19.5551L172.964 19.546C172.918 19.4976 172.871 19.4497 172.824 19.4019L172.817 19.3956C172.789 19.3665 172.76 19.3381 172.731 19.3096L172.636 19.2156C172.617 19.1968 172.597 19.1785 172.579 19.1614L172.555 19.1392C172.498 19.0851 172.441 19.0316 172.385 18.9803C172.29 18.8931 172.205 18.8174 172.124 18.7479L172.114 18.7387C171.897 18.5513 171.667 18.3679 171.433 18.1941L171.381 18.1548C171.272 18.0751 171.155 17.9925 171.036 17.911L171.01 17.8928C170.903 17.8198 170.788 17.7452 170.664 17.6666L170.398 17.5037L170.39 17.4991C170.23 17.404 170.059 17.3083 169.883 17.2148L169.873 17.2091C169.785 17.163 169.697 17.118 169.613 17.0758L169.603 17.0713C169.556 17.0479 169.509 17.0251 169.459 17.0006L169.452 16.9978C169.304 16.9266 169.152 16.8576 168.999 16.7921L168.968 16.779C168.838 16.7238 168.707 16.6708 168.578 16.6212L168.513 16.5967C168.316 16.5221 168.115 16.452 167.912 16.3876L167.884 16.3785C167.782 16.3472 167.681 16.3164 167.576 16.2868L167.551 16.2794C167.521 16.2709 167.492 16.2629 167.461 16.2543L167.363 16.2105L167.295 16.2105C167.171 16.178 167.046 16.1478 166.923 16.1205L166.889 16.1125C166.791 16.0908 166.692 16.0703 166.588 16.0504L166.448 16.0236C166.316 15.9997 166.197 15.9803 166.084 15.9632L166.048 15.9575C165.971 15.9467 165.893 15.9359 165.815 15.9256L165.8 15.9239C165.681 15.9091 165.555 15.8954 165.418 15.8829L165.392 15.8801C165.371 15.8783 165.35 15.8761 165.324 15.8738C165.294 15.8715 165.263 15.8692 165.234 15.867L165.164 15.8618C165.133 15.8595 165.103 15.8573 165.073 15.8556C164.963 15.8482 164.845 15.843 164.712 15.8385L164.627 15.8356C164.588 15.8345 164.55 15.8333 164.515 15.8328L164.473 15.8322C164.416 15.8316 164.36 15.8305 164.303 15.8305L149.76 15.8305C148.39 15.8305 147.275 14.7014 147.275 13.3136C147.275 11.9259 148.39 10.7967 149.76 10.7967L156.907 10.7967L147.534 1.30347L147.119 1.3969C146.845 1.45842 146.562 1.53362 146.279 1.61964C144.385 2.19673 142.64 3.25464 141.234 4.67886C139.828 6.10308 138.783 7.86968 138.213 9.78782C137.875 10.9278 137.703 12.1139 137.703 13.3136C137.703 14.5139 137.874 15.7 138.213 16.8394C138.783 18.7581 139.828 20.5247 141.234 21.9489C142.64 23.3732 144.385 24.4311 146.279 25.0082C147.404 25.3511 148.575 25.5254 149.76 25.5254L164.303 25.5254C165.674 25.5254 166.788 26.6546 166.788 28.0423C166.788 29.4301 165.674 30.5592 164.303 30.5592L137.703 30.5592L137.703 40.2536L164.303 40.2536C166.946 40.2536 169.456 39.4036 171.56 37.7948C173.595 36.2395 175.119 34.028 175.85 31.5675C176.189 30.4287 176.361 29.2421 176.361 28.0423C176.361 26.8545 176.192 25.6798 175.86 24.5518L175.87 24.5478Z" id="Path" fill="#FDFDFD" stroke="none" />
        <path d="M23.8831 0.375488L18.3198 9.66541L34.2502 36.3798L36.5706 40.2537L47.7668 40.2537L23.8831 0.375488Z" id="Path" fill="#FDFDFD" stroke="none" />
        <path d="M0 40.2536L11.1962 40.2536L22.0949 22.0555L16.5097 12.6881L0 40.2536Z" id="Path" fill="#FDFDFD" stroke="none" />
      </g>
      <g id="Logo-3">
        <path d="M0 40.7987L4.28079 39.774C4.28079 39.774 24.7248 38.0768 40.4158 28.1821C56.1068 18.2873 67.1079 0.355224 67.1079 0.355224L67.2006 0.591354C67.2006 0.591354 56.326 18.9923 40.7452 29.0952C25.1643 39.1982 4.97328 41.247 4.97328 41.247L0.944294 41.5672L0 40.7987Z" id="Vector" fill="url(#gradient_1)" fill-rule="evenodd" stroke="none" />
        <g id="Group-2" transform="translate(14.353285 0)">
          <path d="M28.7065 27.0082C28.7065 27.0082 27.0383 11.963 33.1132 5.25442C39.1882 -1.45418 53.0064 0.173824 53.0064 0.173824C53.0064 0.173824 56.5065 9.82901 52.3138 14.925C48.1212 20.021 36.2357 20.558 36.2357 20.558L28.7065 27.0082Z" id="Vector-6" fill="url(#gradient_2)" fill-opacity="0.8" fill-rule="evenodd" stroke="none" />
          <path d="M23.4185 30.0822C23.4185 30.0822 20.082 19.0667 25.1182 11.8298C30.1544 4.59287 43.5634 1.13444 43.5634 1.13444C43.5634 1.13444 34.6592 6.41752 31.0709 12.7578C27.4826 19.0982 29.2101 26.4958 29.2101 26.4958L23.4185 30.0822Z" id="Vector-4" fill="url(#gradient_3)" fill-opacity="0.8" fill-rule="evenodd" stroke="none" />
          <path d="M27.6992 27.8618C27.6992 27.8618 36.009 30.8239 42.1154 26.9653C48.2219 23.1066 52.1249 12.4273 52.1249 12.4273C52.1249 12.4273 49.1824 16.0343 46.0814 17.807C42.9805 19.5796 37.5177 19.5178 37.5177 19.5178L27.6992 27.8618Z" id="Vector-5" fill="url(#gradient_3)" fill-opacity="0.8" fill-rule="evenodd" stroke="none" />
          <path d="M2.644 37.7675C2.644 37.7675 2.14036 35.1097 2.14036 33.2205C2.14036 31.3312 2.644 29.7621 2.644 29.7621C2.644 29.7621 2.75416 30.9288 3.0217 31.9054C3.28925 32.8821 3.71419 33.6688 3.71419 33.6688C3.71419 33.6688 3.68272 31.7635 4.28077 29.7621C4.87881 27.7607 6.10639 25.6633 6.10639 25.6633C6.10639 25.6633 5.5713 27.5526 5.79164 29.7621C6.01197 31.9716 6.98774 34.5013 6.98774 34.5013C6.98774 34.5013 6.8461 29.65 9.06519 25.215C11.2843 20.7799 13.6608 19.8033 15.8641 16.7612C18.0675 13.7191 17.8786 13.0467 17.8786 13.0467C17.8786 13.0467 17.6808 16.7757 16.9568 19.8178C16.2328 22.8599 14.9828 25.215 14.9828 25.215C14.9828 25.215 17.5638 18.8106 21.404 14.6478C25.2441 10.4849 30.3432 8.56359 30.3432 8.56359C30.3432 8.56359 24.9608 13.3829 23.1667 18.6825C21.3725 23.9821 23.4814 30.1464 23.4814 30.1464C23.4814 30.1464 18.2875 33.2365 13.0782 35.1418C7.86882 37.0471 2.644 37.7675 2.644 37.7675Z" id="Vector-2" fill="url(#gradient_4)" fill-opacity="0.8" fill-rule="evenodd" stroke="none" />
          <path d="M0 39.2406C0 39.2406 0.897068 40.0251 2.14039 40.9057C3.38372 41.7863 4.26506 41.6742 4.97328 42.763C5.6815 43.8517 4.97328 45.2607 4.97328 45.2607C4.97328 45.2607 5.77592 44.268 5.98052 43.3393C6.18513 42.4107 5.79166 41.5461 5.79166 41.5461C5.79166 41.5461 7.31828 42.4427 7.99502 43.3393C8.67177 44.2359 8.49864 45.1326 8.49864 45.1326C8.49864 45.1326 8.62455 43.5795 8.49864 42.763C8.37275 41.9464 7.99502 41.8663 7.99502 41.8663C7.99502 41.8663 10.1197 43.7876 14.1015 43.3393C18.0832 42.891 23.9222 40.0731 23.9222 40.0731C23.9222 40.0731 19.8144 40.8577 16.2419 40.0731C12.6693 39.2886 9.6318 36.935 9.6318 36.935C9.6318 36.935 21.0578 41.2899 30.3434 37.8316C39.6289 34.3732 46.774 23.1016 46.774 23.1016C46.774 23.1016 40.2584 28.2141 35.7573 29.2708C31.2562 30.3275 28.4547 27.3284 28.4547 27.3284C28.4547 27.3284 22.2301 31.2671 15.0377 34.2451C7.84539 37.2232 0 39.2406 0 39.2406Z" id="Vector-3" fill="url(#gradient_4)" fill-opacity="0.8" fill-rule="evenodd" stroke="none" />
        </g>
      </g>
    </g>
  </g>
</svg>