<?xml version="1.0" encoding="utf-8"?>
<svg width="2048px" height="412.7058px" viewBox="0 0 2048 412.7058" version="1.1" xmlns:xlink="http://www.w3.org/1999/xlink" xmlns="http://www.w3.org/2000/svg">
  <defs>
    <linearGradient gradientUnits="objectBoundingBox" x1="1.2130961" y1="-0.38606796" x2="-0.034237698" y2="1.0074301" id="gradient_1">
      <stop offset="0%" stop-color="#FFFFFF" />
      <stop offset="100%" stop-color="#FFC800" />
    </linearGradient>
    <linearGradient gradientUnits="objectBoundingBox" x1="-1.1092763" y1="1.4834242" x2="1.0000004" y2="0" id="gradient_2">
      <stop offset="0%" stop-color="#FFC800" />
      <stop offset="100%" stop-color="#90C418" stop-opacity="0.49803922" />
    </linearGradient>
    <linearGradient gradientUnits="objectBoundingBox" x1="-1.129898" y1="1.653375" x2="1.0582517" y2="-0.75197375" id="gradient_3">
      <stop offset="0%" stop-color="#FFC800" />
      <stop offset="100%" stop-color="#90C418" stop-opacity="0.49803922" />
    </linearGradient>
    <linearGradient gradientUnits="objectBoundingBox" x1="-1.6429382E-07" y1="0.77837515" x2="1.1491842" y2="-1.0500369" id="gradient_4">
      <stop offset="0%" stop-color="#FFC800" />
      <stop offset="100%" stop-color="#90C418" stop-opacity="0.49803922" />
    </linearGradient>
  </defs>
  <g id="Group-2">
    <path d="M2036 0C2042.63 0 2048 5.37168 2048 12L2048 400.706C2048 407.334 2042.63 412.706 2036 412.706L12 412.706C5.37168 412.706 0 407.334 0 400.706L0 12C0 5.37168 5.37168 0 12 0L2036 0Z" id="Rectangle" fill="#161B2D" stroke="none" />
    <g id="Group" transform="translate(443.73303 106.666725)">
      <g id="Brand" transform="translate(401.06662 1.1604182)">
        <path d="M252.624 66.4328C254.676 62.2933 257.381 58.5112 260.659 55.1909C268.752 46.9922 279.512 42.4785 290.958 42.4785C302.401 42.4785 313.16 46.9922 321.253 55.1909C325.285 59.272 328.42 64.0045 330.568 69.2548L331.413 71.316L374.635 71.316L373.747 67.2543C369.648 48.4676 359.225 31.4019 344.399 19.1975C329.356 6.81804 310.376 0 290.958 0C263.165 0 237.105 13.8232 221.243 36.9779L219.674 39.2724L250.574 70.5673L252.624 66.4328ZM330.568 102.494C328.42 107.744 325.285 112.474 321.253 116.558C317.975 119.878 314.24 122.618 310.153 124.696C308.881 125.342 307.564 125.933 306.236 126.444C302.163 128.014 297.872 128.937 293.485 129.195C291.493 129.312 289.407 129.29 287.454 129.127C277.369 128.31 267.852 123.845 260.659 116.558C253.464 109.271 249.055 99.6357 248.249 89.422L248.15 88.1969L212.711 52.3032L210.969 57.3031C207.782 66.4594 206.164 76.0727 206.164 85.8732C206.164 108.811 214.984 130.379 231 146.596C247.015 162.816 268.308 171.749 290.955 171.749C302.411 171.749 313.52 169.476 323.973 164.992C325.953 164.146 327.93 163.205 329.85 162.201C340.735 156.504 350.464 148.295 357.993 138.466C365.623 128.502 371.071 116.755 373.747 104.495L374.633 100.433L331.41 100.433L330.568 102.494ZM458.406 4.70312L499.25 46.0659L563.588 46.0659L563.588 4.70312L458.406 4.70312ZM561.496 104.738L560.881 102.934C560.819 102.749 560.756 102.565 560.692 102.377L560.682 102.348C560.644 102.236 560.603 102.122 560.562 102.008L559.842 99.9346L559.784 99.9541C559.753 99.8763 559.722 99.7961 559.691 99.7183L559.47 99.1981C559.067 98.238 558.63 97.2828 558.172 96.3591L558.013 96.0358C557.308 94.6309 556.523 93.2357 555.685 91.8915L555.388 91.4127C555.232 91.1672 555.071 90.9168 554.91 90.6738L554.845 90.579C554.66 90.3019 554.476 90.0248 554.269 89.7307L554.195 89.6261C553.911 89.2202 553.623 88.8216 553.336 88.4327L553.17 88.2066C553.129 88.1483 553.088 88.0924 553.04 88.0341C552.889 87.8323 552.733 87.6281 552.572 87.4215L552.479 87.3024C552.371 87.1639 552.26 87.0278 552.152 86.8916L551.713 86.3472C551.571 86.1746 551.427 86.0044 551.281 85.8294C550.587 85.0079 549.86 84.1984 549.133 83.4352L549.095 83.3963C548.898 83.1897 548.699 82.9855 548.499 82.7814L548.471 82.7546C548.348 82.6307 548.226 82.5091 548.101 82.3876L547.695 81.9865C547.614 81.9063 547.532 81.8286 547.453 81.7556L547.352 81.6608C547.11 81.4299 546.865 81.2014 546.625 80.9827C546.222 80.6108 545.857 80.2875 545.514 79.991L545.471 79.9521C544.542 79.1524 543.563 78.3697 542.564 77.6283L542.343 77.4606C541.878 77.1203 541.378 76.7679 540.87 76.4203L540.759 76.3425C540.301 76.0314 539.814 75.713 539.281 75.3776L538.148 74.6824L538.114 74.6629C537.43 74.257 536.703 73.8487 535.95 73.45L535.906 73.4257C535.532 73.2289 535.158 73.0368 534.798 72.8569L534.754 72.8375C534.555 72.7378 534.356 72.6406 534.14 72.5361L534.114 72.5239C533.48 72.2201 532.83 71.926 532.179 71.6465L532.045 71.5906C531.49 71.3548 530.933 71.1287 530.381 70.9173L530.105 70.8128C529.265 70.4943 528.406 70.1954 527.54 69.9207L527.42 69.8818C526.988 69.7481 526.556 69.6169 526.107 69.4905L525.999 69.4589C525.874 69.4224 525.749 69.3884 525.617 69.3519L525.2 69.1648L524.907 69.1648C524.379 69.0262 523.846 68.8974 523.321 68.7807L523.174 68.7467C522.757 68.6543 522.337 68.5668 521.893 68.4818L521.292 68.3675C520.731 68.2654 520.224 68.1828 519.742 68.1099L519.586 68.0856C519.257 68.0394 518.926 67.9932 518.595 67.9494L518.528 67.9421C518.024 67.8789 517.486 67.8206 516.9 67.7671L516.788 67.755C516.699 67.7477 516.61 67.738 516.5 67.7282C516.37 67.7185 516.238 67.7088 516.116 67.6991L515.816 67.6772C515.686 67.6675 515.554 67.6578 515.427 67.6505C514.956 67.6189 514.455 67.597 513.888 67.5776L513.524 67.5654C513.36 67.5605 513.197 67.5557 513.048 67.5532L512.866 67.5508C512.626 67.5484 512.386 67.5435 512.144 67.5435L450.093 67.5435C444.246 67.5435 439.489 62.7259 439.489 56.8048C439.489 50.8837 444.246 46.0661 450.093 46.0661L480.588 46.0661L440.593 5.56146L438.825 5.9601C437.653 6.22258 436.449 6.54344 435.241 6.91047C427.158 9.37275 419.716 13.8865 413.715 19.9632C407.715 26.0398 403.258 33.5774 400.827 41.7614C399.382 46.6252 398.648 51.6858 398.648 56.8048C398.648 61.9263 399.38 66.9869 400.827 71.8482C403.258 80.0347 407.715 87.5722 413.715 93.6489C419.716 99.7256 427.158 104.239 435.241 106.702C440.041 108.165 445.038 108.909 450.093 108.909L512.144 108.909C517.99 108.909 522.747 113.726 522.747 119.647C522.747 125.568 517.99 130.386 512.144 130.386L398.648 130.386L398.648 171.749L512.144 171.749C523.421 171.749 534.128 168.122 543.107 161.258C551.79 154.622 558.292 145.186 561.409 134.688C562.854 129.829 563.589 124.766 563.589 119.647C563.589 114.579 562.871 109.567 561.452 104.755L561.496 104.738ZM647.291 4.70312L688.135 46.0659L752.474 46.0659L752.474 4.70312L647.291 4.70312ZM750.378 104.738L749.764 102.934C749.702 102.749 749.639 102.565 749.574 102.377L749.565 102.348C749.526 102.236 749.486 102.122 749.445 102.008L748.725 99.9346L748.667 99.9541C748.636 99.8763 748.605 99.7961 748.574 99.7183L748.353 99.1981C747.95 98.238 747.513 97.2828 747.054 96.3591L746.896 96.0358C746.19 94.6309 745.406 93.2357 744.568 91.8915L744.27 91.4127C744.114 91.1672 743.954 90.9168 743.793 90.6738L743.728 90.579C743.543 90.3019 743.358 90.0248 743.152 89.7307L743.078 89.6261C742.794 89.2202 742.506 88.8216 742.218 88.4327L742.053 88.2066C742.012 88.1483 741.971 88.0924 741.923 88.0341C741.772 87.8323 741.616 87.6281 741.455 87.4215L741.361 87.3024C741.253 87.1639 741.143 87.0278 741.035 86.8916L740.596 86.3472C740.454 86.1746 740.31 86.0044 740.164 85.8294C739.47 85.0079 738.743 84.1984 738.016 83.4352L737.977 83.3963C737.781 83.1897 737.581 82.9855 737.382 82.7814L737.353 82.7546C737.231 82.6307 737.109 82.5091 736.984 82.3876L736.578 81.9865C736.497 81.9063 736.415 81.8286 736.336 81.7556L736.235 81.6608C735.993 81.4299 735.748 81.2014 735.508 80.9827C735.105 80.6108 734.74 80.2875 734.397 79.991L734.353 79.9521C733.424 79.1524 732.445 78.3697 731.447 77.6283L731.226 77.4606C730.76 77.1203 730.261 76.7679 729.752 76.4203L729.642 76.3425C729.184 76.0314 728.696 75.713 728.164 75.3776L727.031 74.6824L726.997 74.6629C726.313 74.257 725.586 73.8487 724.832 73.45L724.789 73.4257C724.415 73.2289 724.04 73.0368 723.68 72.8569L723.637 72.8375C723.438 72.7378 723.239 72.6406 723.023 72.5361L722.996 72.5239C722.363 72.2201 721.712 71.926 721.062 71.6465L720.927 71.5906C720.373 71.3548 719.816 71.1287 719.264 70.9173L718.988 70.8128C718.148 70.4943 717.289 70.1954 716.423 69.9207L716.303 69.8818C715.871 69.7481 715.439 69.6169 714.99 69.4905L714.882 69.4589C714.757 69.4224 714.632 69.3884 714.5 69.3519L714.083 69.1648L713.79 69.1648C713.262 69.0262 712.729 68.8974 712.203 68.7807L712.057 68.7467C711.639 68.6543 711.219 68.5668 710.775 68.4818L710.175 68.3675C709.614 68.2654 709.107 68.1828 708.625 68.1099L708.469 68.0856C708.14 68.0394 707.809 67.9932 707.478 67.9494L707.41 67.9421C706.906 67.8789 706.369 67.8206 705.783 67.7671L705.67 67.755C705.582 67.7477 705.493 67.738 705.382 67.7282C705.253 67.7185 705.121 67.7088 704.998 67.6991L704.698 67.6772C704.569 67.6675 704.437 67.6578 704.31 67.6505C703.839 67.6189 703.338 67.597 702.771 67.5776L702.406 67.5654C702.243 67.5605 702.08 67.5557 701.931 67.5532L701.749 67.5508C701.509 67.5484 701.269 67.5435 701.026 67.5435L638.975 67.5435C633.129 67.5435 628.372 62.7259 628.372 56.8048C628.372 50.8837 633.129 46.0661 638.975 46.0661L669.47 46.0661L629.476 5.56146L627.707 5.9601C626.536 6.22258 625.331 6.54344 624.124 6.91047C616.041 9.37275 608.598 13.8865 602.598 19.9632C596.598 26.0398 592.141 33.5774 589.71 41.7614C588.265 46.6252 587.531 51.6858 587.531 56.8048C587.531 61.9263 588.262 66.9869 589.71 71.8482C592.141 80.0347 596.598 87.5722 602.598 93.6489C608.598 99.7256 616.041 104.239 624.124 106.702C628.924 108.165 633.921 108.909 638.975 108.909L701.026 108.909C706.873 108.909 711.63 113.726 711.63 119.647C711.63 125.568 706.873 130.386 701.026 130.386L587.531 130.386L587.531 171.749L701.026 171.749C712.304 171.749 723.011 168.122 731.989 161.258C740.673 154.622 747.174 145.186 750.292 134.688C751.737 129.829 752.471 124.766 752.471 119.647C752.471 114.579 751.754 109.567 750.335 104.755L750.378 104.738Z" id="Path" fill="#FDFDFD" stroke="none" />
        <path d="M101.901 1.60208L78.1645 41.2391L146.134 155.221L156.034 171.749L203.805 171.749L101.901 1.60208Z" id="Path" fill="#FDFDFD" stroke="none" />
        <path d="M0 171.749L47.7705 171.749L94.2714 94.1035L70.4414 54.1359L0 171.749Z" id="Path" fill="#FDFDFD" stroke="none" />
      </g>
      <g id="Logo-3">
        <path d="M0 174.075L18.2647 169.703C18.2647 169.703 105.492 162.462 172.44 120.244C239.389 78.0259 286.327 1.51562 286.327 1.51562L286.722 2.52311C286.722 2.52311 240.324 81.0341 173.846 124.14C107.367 167.246 21.2193 175.988 21.2193 175.988L4.02899 177.354L0 174.075Z" id="Vector" fill="url(#gradient_1)" fill-rule="evenodd" stroke="none" />
        <g id="Group-2" transform="translate(61.24059 0)">
          <path d="M122.481 115.235C122.481 115.235 115.363 51.0422 141.283 22.4189C167.203 -6.20451 226.16 0.741651 226.16 0.741651C226.16 0.741651 241.094 41.9372 223.205 63.6802C205.317 85.4232 154.606 87.7143 154.606 87.7143L122.481 115.235Z" id="Vector-6" fill="url(#gradient_2)" fill-opacity="0.8" fill-rule="evenodd" stroke="none" />
          <path d="M99.9188 128.351C99.9188 128.351 85.6829 81.3515 107.171 50.4739C128.659 19.5963 185.87 4.84027 185.87 4.84027C185.87 4.84027 147.879 27.3815 132.569 54.4335C117.259 81.4857 124.63 113.049 124.63 113.049L99.9188 128.351Z" id="Vector-4" fill="url(#gradient_3)" fill-opacity="0.8" fill-rule="evenodd" stroke="none" />
          <path d="M118.183 118.877C118.183 118.877 153.638 131.515 179.692 115.052C205.746 98.5883 222.399 53.0232 222.399 53.0232C222.399 53.0232 209.845 68.4133 196.614 75.9765C183.383 83.5397 160.075 83.2761 160.075 83.2761L118.183 118.877Z" id="Vector-5" fill="url(#gradient_3)" fill-opacity="0.8" fill-rule="evenodd" stroke="none" />
          <path d="M11.281 161.141C11.281 161.141 9.13221 149.802 9.13221 141.741C9.13221 133.68 11.281 126.985 11.281 126.985C11.281 126.985 11.7511 131.963 12.8926 136.13C14.0341 140.297 15.8472 143.654 15.8472 143.654C15.8472 143.654 15.7129 135.524 18.2646 126.985C20.8162 118.446 26.0539 109.497 26.0539 109.497C26.0539 109.497 23.7708 117.558 24.711 126.985C25.651 136.412 29.8143 147.206 29.8143 147.206C29.8143 147.206 29.21 126.507 38.6781 107.584C48.1463 88.6612 58.2858 84.494 67.6868 71.5146C77.0877 58.5349 76.282 55.6658 76.282 55.6658C76.282 55.6658 75.4379 71.5765 72.3489 84.556C69.26 97.5356 63.9264 107.584 63.9264 107.584C63.9264 107.584 74.9389 80.2586 91.3235 62.4972C107.708 44.7356 129.464 36.538 129.464 36.538C129.464 36.538 106.499 57.1003 98.8444 79.7121C91.1892 102.324 100.187 128.625 100.187 128.625C100.187 128.625 78.0267 141.809 55.8001 149.938C33.5736 158.068 11.281 161.141 11.281 161.141Z" id="Vector-2" fill="url(#gradient_4)" fill-opacity="0.8" fill-rule="evenodd" stroke="none" />
          <path d="M0 167.427C0 167.427 3.82748 170.774 9.13234 174.531C14.4372 178.289 18.1976 177.81 21.2193 182.456C24.2411 187.101 21.2193 193.113 21.2193 193.113C21.2193 193.113 24.6439 188.877 25.5168 184.915C26.3899 180.953 24.7111 177.264 24.7111 177.264C24.7111 177.264 31.2246 181.089 34.112 184.915C36.9995 188.74 36.2608 192.566 36.2608 192.566C36.2608 192.566 36.7981 185.94 36.2608 182.456C35.7237 178.972 34.112 178.63 34.112 178.63C34.112 178.63 43.1774 186.828 60.1662 184.915C77.1551 183.002 102.068 170.979 102.068 170.979C102.068 170.979 84.5415 174.326 69.2985 170.979C54.0555 167.632 41.0957 157.59 41.0957 157.59C41.0957 157.59 89.8464 176.171 129.465 161.415C169.083 146.659 199.569 98.5669 199.569 98.5669C199.569 98.5669 171.769 120.38 152.564 124.889C133.359 129.398 121.407 116.602 121.407 116.602C121.407 116.602 94.8485 133.407 64.161 146.113C33.4736 158.819 0 167.427 0 167.427Z" id="Vector-3" fill="url(#gradient_4)" fill-opacity="0.8" fill-rule="evenodd" stroke="none" />
        </g>
      </g>
    </g>
  </g>
</svg>