<?xml version="1.0" encoding="utf-8"?>
<svg width="512px" height="512px" viewBox="0 0 512 512" version="1.1" xmlns:xlink="http://www.w3.org/1999/xlink" xmlns="http://www.w3.org/2000/svg">
  <defs>
    <linearGradient gradientUnits="objectBoundingBox" x1="0.011500001" y1="0.05540037" x2="0.99372214" y2="0.9162669" id="gradient_1">
      <stop offset="0%" stop-color="#28AFEA" />
      <stop offset="100%" stop-color="#047ED6" />
    </linearGradient>
    <linearGradient gradientUnits="objectBoundingBox" x1="0.01166667" y1="0.07600021" x2="0.9777222" y2="0.960001" id="gradient_2">
      <stop offset="0%" stop-color="#0077D2" />
      <stop offset="100%" stop-color="#0B59A2" />
    </linearGradient>
    <path d="M512 0L512 0L512 512L0 512L0 0L512 0Z" id="path_1" />
    <clipPath id="clip_1">
      <use xlink:href="#path_1" />
    </clipPath>
  </defs>
  <g id="DatePicker" clip-path="url(#clip_1)">
    <path d="M512 0L512 0L512 512L0 512L0 0L512 0Z" id="DatePicker" fill="none" stroke="none" />
    <path d="M64 426.667L64 128L448 128L448 426.667C448 438.4 438.4 448 426.667 448L85.3333 448C73.6 448 64 438.4 64 426.667L64 426.667Z" id="Shape" fill="url(#gradient_1)" stroke="none" />
    <path d="M283.147 193.088L260.373 193.088C258.048 193.088 255.755 193.867 253.92 195.264C247.445 200.192 240.075 204.8 232.011 208.939C223.979 213.067 215.296 216.501 206.219 219.168C201.707 220.491 198.549 224.704 198.549 229.397L198.549 261.12C198.549 264.171 199.861 267.083 202.144 269.109C204.533 271.211 207.669 272.107 210.464 271.712C214.229 271.264 218.144 270.517 222.091 269.461C225.941 268.437 229.728 267.157 233.312 265.675C233.845 265.451 234.389 265.227 234.923 265.003L234.923 378.613C234.923 384.501 239.712 389.28 245.589 389.28L283.157 389.28C289.035 389.28 293.824 384.501 293.824 378.613L293.824 203.755C293.813 197.877 289.035 193.088 283.147 193.088L283.147 193.088Z" id="Shape" fill="#000000" fill-opacity="0.05" stroke="none" />
    <path d="M283.147 198.421L260.373 198.421C259.211 198.421 258.069 198.805 257.141 199.52C250.4 204.64 242.763 209.408 234.443 213.685C226.133 217.952 217.131 221.525 207.712 224.288C205.44 224.96 203.883 227.04 203.883 229.397L203.883 261.12C203.883 262.645 204.533 264.096 205.675 265.109C206.805 266.112 208.299 266.656 209.845 266.411C213.419 265.995 217.088 265.28 220.725 264.309C224.331 263.349 227.893 262.155 231.285 260.747C234.443 259.445 237.461 257.984 240.267 256.405L240.267 378.613C240.267 381.557 242.656 383.947 245.6 383.947L283.168 383.947C286.112 383.947 288.501 381.557 288.501 378.613L288.501 203.755C288.48 200.811 286.101 198.421 283.147 198.421L283.147 198.421Z" id="Shape" fill="#000000" fill-opacity="0.07" stroke="none" />
    <path d="M448 85.3333L448 149.333L64 149.333L64 85.3333C64 73.6 73.6 64 85.3333 64L426.667 64C438.4 64 448 73.6 448 85.3333L448 85.3333Z" id="Shape" fill="url(#gradient_2)" stroke="none" />
    <path d="M378.667 133.333L378.667 133.333C360.992 133.333 346.667 119.008 346.667 101.333L346.667 64L410.667 64L410.667 101.333C410.667 119.008 396.341 133.333 378.667 133.333L378.667 133.333Z" id="Shape" fill="#000000" fill-opacity="0.05" stroke="none" />
    <path d="M378.667 125.333L378.667 125.333C365.408 125.333 354.667 114.592 354.667 101.333L354.667 64L402.667 64L402.667 101.333C402.667 114.592 391.925 125.333 378.667 125.333L378.667 125.333Z" id="Shape" fill="#000000" fill-opacity="0.07" stroke="none" />
    <path d="M133.333 133.333L133.333 133.333C115.659 133.333 101.333 119.008 101.333 101.333L101.333 64L165.333 64L165.333 101.333C165.333 119.008 151.008 133.333 133.333 133.333L133.333 133.333Z" id="Shape" fill="#000000" fill-opacity="0.05" stroke="none" />
    <path d="M133.333 125.333L133.333 125.333C120.075 125.333 109.333 114.592 109.333 101.333L109.333 64L157.333 64L157.333 101.333C157.333 114.592 146.592 125.333 133.333 125.333L133.333 125.333Z" id="Shape" fill="#000000" fill-opacity="0.07" stroke="none" />
    <path d="M133.333 117.333L133.333 117.333C124.501 117.333 117.333 110.165 117.333 101.333L117.333 58.6667C117.333 49.8347 124.501 42.6667 133.333 42.6667L133.333 42.6667C142.165 42.6667 149.333 49.8347 149.333 58.6667L149.333 101.333C149.333 110.165 142.165 117.333 133.333 117.333L133.333 117.333Z" id="Shape" fill="#3CCBF4" stroke="none" />
    <path d="M378.667 117.333L378.667 117.333C369.835 117.333 362.667 110.165 362.667 101.333L362.667 58.6667C362.667 49.8347 369.835 42.6667 378.667 42.6667L378.667 42.6667C387.499 42.6667 394.667 49.8347 394.667 58.6667L394.667 101.333C394.667 110.165 387.499 117.333 378.667 117.333L378.667 117.333Z" id="Shape" fill="#3CCBF4" stroke="none" />
    <path d="M283.157 203.755L283.157 378.613L245.589 378.613L245.589 246.219C243.52 248.053 241.077 249.781 238.251 251.403C235.424 253.035 232.427 254.507 229.248 255.819C226.069 257.131 222.773 258.251 219.349 259.157C215.925 260.075 212.544 260.725 209.205 261.131L209.205 229.408C218.987 226.539 228.213 222.891 236.875 218.432C245.547 213.984 253.376 209.088 260.373 203.765L283.157 203.765L283.157 203.755Z" id="Shape" fill="#FFFFFF" stroke="none" />
  </g>
</svg>