<svg xmlns="http://www.w3.org/2000/svg"  viewBox="0 0 48 48" width="512px" height="512px"><linearGradient id="C9CKuOUtRQpYrJuvOfEyBa" x1="6.414" x2="41.774" y1="-169.552" y2="-195.378" gradientTransform="matrix(1 0 0 -1 0 -155.89)" gradientUnits="userSpaceOnUse"><stop offset="0" stop-color="#28afea"/><stop offset="1" stop-color="#047ed6"/></linearGradient><path fill="url(#C9CKuOUtRQpYrJuvOfEyBa)" d="M6,40V12h36v28c0,1.1-0.9,2-2,2H8C6.9,42,6,41.1,6,40z"/><path d="M26.545,18.102H24.41c-0.218,0-0.433,0.073-0.605,0.204 c-0.607,0.462-1.298,0.894-2.054,1.282c-0.753,0.387-1.567,0.709-2.418,0.959c-0.423,0.124-0.719,0.519-0.719,0.959v2.974 c0,0.286,0.123,0.559,0.337,0.749c0.224,0.197,0.518,0.281,0.78,0.244c0.353-0.042,0.72-0.112,1.09-0.211 c0.361-0.096,0.716-0.216,1.052-0.355c0.05-0.021,0.101-0.042,0.151-0.063v10.651c0,0.552,0.449,1,1,1h3.522c0.551,0,1-0.448,1-1 V19.102C27.545,18.551,27.097,18.102,26.545,18.102z" opacity=".05"/><path d="M26.545,18.602H24.41c-0.109,0-0.216,0.036-0.303,0.103 c-0.632,0.48-1.348,0.927-2.128,1.328c-0.779,0.4-1.623,0.735-2.506,0.994c-0.213,0.063-0.359,0.258-0.359,0.479v2.974 c0,0.143,0.061,0.279,0.168,0.374c0.106,0.094,0.246,0.145,0.391,0.122c0.335-0.039,0.679-0.106,1.02-0.197 c0.338-0.09,0.672-0.202,0.99-0.334c0.296-0.122,0.579-0.259,0.842-0.407v11.457c0,0.276,0.224,0.5,0.5,0.5h3.522 c0.276,0,0.5-0.224,0.5-0.5V19.102C27.045,18.826,26.822,18.602,26.545,18.602z" opacity=".07"/><linearGradient id="C9CKuOUtRQpYrJuvOfEyBb" x1="6.42" x2="41.198" y1="-162.498" y2="-169.57" gradientTransform="matrix(1 0 0 -1 0 -155.89)" gradientUnits="userSpaceOnUse"><stop offset="0" stop-color="#0077d2"/><stop offset="1" stop-color="#0b59a2"/></linearGradient><path fill="url(#C9CKuOUtRQpYrJuvOfEyBb)" d="M42,8v6H6V8c0-1.1,0.9-2,2-2h32C41.1,6,42,6.9,42,8z"/><path d="M35.5,12.5L35.5,12.5c-1.657,0-3-1.343-3-3V6h6v3.5 C38.5,11.157,37.157,12.5,35.5,12.5z" opacity=".05"/><path d="M35.5,11.75L35.5,11.75c-1.243,0-2.25-1.007-2.25-2.25V6h4.5v3.5 C37.75,10.743,36.743,11.75,35.5,11.75z" opacity=".07"/><path d="M12.5,12.5L12.5,12.5c-1.657,0-3-1.343-3-3V6h6v3.5 C15.5,11.157,14.157,12.5,12.5,12.5z" opacity=".05"/><path d="M12.5,11.75L12.5,11.75c-1.243,0-2.25-1.007-2.25-2.25V6h4.5v3.5 C14.75,10.743,13.743,11.75,12.5,11.75z" opacity=".07"/><path fill="#3ccbf4" d="M12.5,11L12.5,11c-0.828,0-1.5-0.672-1.5-1.5v-4C11,4.672,11.672,4,12.5,4l0,0 C13.328,4,14,4.672,14,5.5v4C14,10.328,13.328,11,12.5,11z"/><path fill="#3ccbf4" d="M35.5,11L35.5,11c-0.828,0-1.5-0.672-1.5-1.5v-4C34,4.672,34.672,4,35.5,4l0,0 C36.328,4,37,4.672,37,5.5v4C37,10.328,36.328,11,35.5,11z"/><path fill="#fff" d="M26.546,19.102v16.393h-3.522V23.083c-0.194,0.172-0.423,0.334-0.688,0.486 c-0.265,0.153-0.546,0.291-0.844,0.414c-0.298,0.123-0.607,0.228-0.928,0.313c-0.321,0.086-0.638,0.147-0.951,0.185v-2.974 c0.917-0.269,1.782-0.611,2.594-1.029c0.813-0.417,1.547-0.876,2.203-1.375H26.546z"/></svg>