<?xml version="1.0" encoding="utf-8"?>
<svg width="512px" height="512px" viewBox="0 0 512 512" version="1.1" xmlns:xlink="http://www.w3.org/1999/xlink" xmlns="http://www.w3.org/2000/svg">
  <defs>
    <linearGradient gradientUnits="objectBoundingBox" x1="0.20433334" y1="-9.3743205E-05" x2="0.8364444" y2="1.008125" id="gradient_1">
      <stop offset="0%" stop-color="#2AA4F4" />
      <stop offset="100%" stop-color="#007AD9" />
    </linearGradient>
    <linearGradient gradientUnits="objectBoundingBox" x1="0.19570017" y1="1.0107813" x2="0.76760006" y2="-0.0027499944" id="gradient_2">
      <stop offset="0%" stop-color="#007AD9" />
      <stop offset="100%" stop-color="#2AA4F4" />
    </linearGradient>
    <linearGradient gradientUnits="objectBoundingBox" x1="0.35716003" y1="-0.03297369" x2="0.64283997" y2="1.0329736" id="gradient_3">
      <stop offset="0%" stop-color="#A3FFFF" />
      <stop offset="22.300001%" stop-color="#9DFBFF" />
      <stop offset="52.999996%" stop-color="#8BF1FF" />
      <stop offset="88.5%" stop-color="#6EE0FF" />
      <stop offset="100%" stop-color="#63DAFF" />
    </linearGradient>
    <path d="M512 0L512 0L512 512L0 512L0 0L512 0Z" id="path_1" />
    <clipPath id="clip_1">
      <use xlink:href="#path_1" clip-rule="evenodd" fill-rule="evenodd" />
    </clipPath>
  </defs>
  <g id="Carousel" clip-path="url(#clip_1)">
    <path d="M512 0L512 0L512 512L0 512L0 0L512 0Z" id="Carousel" fill="none" stroke="none" />
    <path d="M128 426.667L53.3333 426.667C41.5467 426.667 32 417.12 32 405.333L32 106.667C32 94.88 41.5467 85.3333 53.3333 85.3333L128 85.3333L128 426.667L128 426.667Z" id="Shape" fill="url(#gradient_1)" stroke="none" />
    <path d="M373.333 85.3333L458.667 85.3333C470.453 85.3333 480 94.88 480 106.667L480 405.333C480 417.12 470.453 426.667 458.667 426.667L373.333 426.667L373.333 85.3333L373.333 85.3333Z" id="Shape" fill="url(#gradient_2)" stroke="none" />
    <path d="M106.667 85.3333L128 85.3333L128 426.667L106.667 426.667L106.667 85.3333Z" id="Rectangle" fill="#000000" fill-opacity="0.05" fill-rule="evenodd" stroke="none" />
    <path d="M112 85.3333L128 85.3333L128 426.667L112 426.667L112 85.3333Z" id="Rectangle" fill="#000000" fill-opacity="0.05" fill-rule="evenodd" stroke="none" />
    <path d="M373.333 85.3333L394.667 85.3333L394.667 426.667L373.333 426.667L373.333 85.3333Z" id="Rectangle" fill="#000000" fill-opacity="0.05" fill-rule="evenodd" stroke="none" />
    <path d="M373.333 85.3333L389.333 85.3333L389.333 426.667L373.333 426.667L373.333 85.3333Z" id="Rectangle" fill="#000000" fill-opacity="0.05" fill-rule="evenodd" stroke="none" />
    <path d="M138.667 53.3333L362.667 53.3333C374.453 53.3333 384 62.88 384 74.6667L384 437.333C384 449.12 374.453 458.667 362.667 458.667L138.667 458.667C126.88 458.667 117.333 449.12 117.333 437.333L117.333 74.6667C117.333 62.88 126.88 53.3333 138.667 53.3333L138.667 53.3333Z" id="Shape" fill="url(#gradient_3)" stroke="none" />
  </g>
</svg>