<svg xmlns="http://www.w3.org/2000/svg"  viewBox="0 0 48 48" width="512px" height="512px"><linearGradient id="WZDJfMH82MBPGXpCSOzNja" x1="4.839" x2="10.528" y1="7.997" y2="40.26" gradientUnits="userSpaceOnUse"><stop offset="0" stop-color="#2aa4f4"/><stop offset="1" stop-color="#007ad9"/></linearGradient><path fill="url(#WZDJfMH82MBPGXpCSOzNja)" d="M12,40H5c-1.105,0-2-0.895-2-2V10c0-1.105,0.895-2,2-2h7V40z"/><linearGradient id="WZDJfMH82MBPGXpCSOzNjb" x1="36.957" x2="42.676" y1="40.345" y2="7.912" gradientUnits="userSpaceOnUse"><stop offset="0" stop-color="#007ad9"/><stop offset="1" stop-color="#2aa4f4"/></linearGradient><path fill="url(#WZDJfMH82MBPGXpCSOzNjb)" d="M35,8h8c1.105,0,2,0.895,2,2v28c0,1.105-0.895,2-2,2h-8V8z"/><rect width="2" height="32" x="10" y="8" opacity=".05"/><rect width="1.5" height="32" x="10.5" y="8" opacity=".05"/><rect width="2" height="32" x="35" y="8" opacity=".05"/><rect width="1.5" height="32" x="35" y="8" opacity=".05"/><linearGradient id="WZDJfMH82MBPGXpCSOzNjc" x1="19.929" x2="27.071" y1="3.747" y2="44.253" gradientUnits="userSpaceOnUse"><stop offset="0" stop-color="#a3ffff"/><stop offset=".223" stop-color="#9dfbff"/><stop offset=".53" stop-color="#8bf1ff"/><stop offset=".885" stop-color="#6ee0ff"/><stop offset="1" stop-color="#63daff"/></linearGradient><path fill="url(#WZDJfMH82MBPGXpCSOzNjc)" d="M13,5h21c1.105,0,2,0.895,2,2v34c0,1.105-0.895,2-2,2H13c-1.105,0-2-0.895-2-2V7 C11,5.895,11.895,5,13,5z"/></svg>