<?xml version="1.0" encoding="utf-8"?>
<svg width="512px" height="512px" viewBox="0 0 512 512" version="1.1" xmlns:xlink="http://www.w3.org/1999/xlink" xmlns="http://www.w3.org/2000/svg">
  <defs>
    <linearGradient gradientUnits="objectBoundingBox" x1="0.027666569" y1="0.027666569" x2="1.0104997" y2="1.0104166" id="gradient_1">
      <stop offset="0%" stop-color="#0077D2" />
      <stop offset="100%" stop-color="#0B59A2" />
    </linearGradient>
    <linearGradient gradientUnits="objectBoundingBox" x1="9.250641E-05" y1="0.500031" x2="1.0001245" y2="0.500031" id="gradient_2">
      <stop offset="0%" stop-color="#7DD8F3" />
      <stop offset="100%" stop-color="#45B0D0" />
    </linearGradient>
    <path d="M512 0L512 0L512 512L0 512L0 0L512 0Z" id="path_1" />
    <clipPath id="clip_1">
      <use xlink:href="#path_1" />
    </clipPath>
  </defs>
  <g id="ComboBox" clip-path="url(#clip_1)">
    <path d="M512 0L512 0L512 512L0 512L0 0L512 0Z" id="ComboBox" fill="none" stroke="none" />
    <path d="M42.6667 170.667L42.6667 341.333C42.6667 353.12 52.2133 362.667 64 362.667L448 362.667C459.787 362.667 469.333 353.12 469.333 341.333L469.333 170.667C469.333 158.88 459.787 149.333 448 149.333L64 149.333C52.2133 149.333 42.6667 158.88 42.6667 170.667L42.6667 170.667Z" id="Shape" fill="#50E6FF" stroke="none" />
    <path d="M345.6 330.667C325.6 330.667 309.333 314.4 309.333 294.4L309.333 217.6C309.333 197.6 325.6 181.333 345.6 181.333L422.4 181.333C442.4 181.333 458.667 197.6 458.667 217.6L458.667 294.4C458.667 314.4 442.4 330.667 422.4 330.667L345.6 330.667L345.6 330.667Z" id="Shape" fill="#000000" fill-opacity="0.05" stroke="none" />
    <path d="M345.6 325.333C328.533 325.333 314.667 311.456 314.667 294.4L314.667 217.6C314.667 200.544 328.544 186.667 345.6 186.667L422.4 186.667C439.467 186.667 453.333 200.544 453.333 217.6L453.333 294.4C453.333 311.456 439.456 325.333 422.4 325.333L345.6 325.333L345.6 325.333Z" id="Shape" fill="#000000" fill-opacity="0.07" stroke="none" />
    <path d="M345.6 320L422.4 320C436.533 320 448 308.533 448 294.4L448 217.6C448 203.467 436.533 192 422.4 192L345.6 192C331.467 192 320 203.467 320 217.6L320 294.4C320 308.533 331.467 320 345.6 320L345.6 320Z" id="Shape" fill="url(#gradient_1)" stroke="none" />
    <path d="M384 288C379.157 288 374.635 285.995 371.275 282.368L346.368 255.541C341.237 249.995 339.893 241.867 342.965 234.827C345.888 228.149 352.064 224 359.093 224L408.907 224C415.936 224 422.112 228.149 425.045 234.816C428.117 241.877 426.773 249.995 421.643 255.531L396.725 282.379C393.355 286.005 388.843 288 384 288L384 288Z" id="Shape" fill="#000000" fill-opacity="0.05" stroke="none" />
    <path d="M384 282.667C380.661 282.667 377.536 281.28 375.189 278.741L350.272 251.904C346.571 247.915 345.621 242.048 347.84 236.949C349.899 232.245 354.208 229.323 359.093 229.323L408.907 229.323C413.792 229.323 418.091 232.245 420.16 236.949C422.379 242.048 421.429 247.915 417.728 251.893L392.811 278.741C390.464 281.28 387.339 282.667 384 282.667L384 282.667Z" id="Shape" fill="#000000" fill-opacity="0.07" stroke="none" />
    <path d="M408.907 234.667L359.083 234.667C352.715 234.667 349.589 243.339 354.176 248.277L379.083 275.115C381.824 278.069 386.155 278.069 388.896 275.115L413.803 248.277C418.4 243.339 415.275 234.667 408.907 234.667L408.907 234.667Z" id="Shape" fill="url(#gradient_2)" stroke="none" />
  </g>
</svg>