<svg xmlns="http://www.w3.org/2000/svg"  viewBox="0 0 48 48" width="512px" height="512px"><linearGradient id="sAQ5s0AQb73uVU_iT2cOda" x1="9.858" x2="38.142" y1="9.858" y2="38.142" gradientUnits="userSpaceOnUse"><stop offset="0" stop-color="#a84fcf"/><stop offset="1" stop-color="#7615b5"/></linearGradient><path fill="url(#sAQ5s0AQb73uVU_iT2cOda)" d="M44,24c0,11.045-8.955,20-20,20S4,35.045,4,24S12.955,4,24,4S44,12.955,44,24z"/><path fill="#fff" d="M12,20.999c0-0.438,0.143-0.879,0.438-1.248c0.69-0.862,1.948-1.002,2.811-0.312l8.75,7l8.75-7	c0.863-0.69,2.121-0.55,2.811,0.312c0.691,0.863,0.55,2.121-0.312,2.811l-10,8c-0.73,0.584-1.769,0.584-2.499,0l-10-8	C12.257,22.167,12,21.585,12,20.999z"/><path d="M11,20.998c0-0.657,0.215-1.319,0.657-1.872c1.035-1.294,2.923-1.503,4.217-0.469L24,25.158	l8.126-6.501c1.294-1.035,3.182-0.825,4.217,0.469c1.035,1.295,0.824,3.182-0.469,4.217l-10,8c-1.096,0.876-2.652,0.876-3.748,0	l-10-8C11.385,22.75,11,21.878,11,20.998z" opacity=".05"/><path d="M11.5,20.998c0-0.548,0.179-1.099,0.548-1.56c0.863-1.078,2.436-1.253,3.514-0.39L24,25.799	l8.438-6.751c1.078-0.863,2.651-0.688,3.514,0.39c0.863,1.079,0.687,2.651-0.39,3.514l-10,8c-0.913,0.73-2.21,0.73-3.124,0l-10-8	C11.821,22.458,11.5,21.732,11.5,20.998z" opacity=".07"/></svg>