<?xml version="1.0" encoding="utf-8"?>
<svg width="512px" height="512px" viewBox="0 0 512 512" version="1.1" xmlns:xlink="http://www.w3.org/1999/xlink" xmlns="http://www.w3.org/2000/svg">
  <defs>
    <linearGradient gradientUnits="objectBoundingBox" x1="1" y1="1" x2="-0.41030732" y2="-1.1155219" id="gradient_1">
      <stop offset="0%" stop-color="#FF7631" />
      <stop offset="100%" stop-color="#FFD955" />
    </linearGradient>
    <path d="M512 0L512 0L512 512L0 512L0 0L512 0Z" id="path_1" />
    <clipPath id="clip_1">
      <use xlink:href="#path_1" />
    </clipPath>
  </defs>
  <g id="ComboBox" clip-path="url(#clip_1)">
    <path d="M512 0L512 0L512 512L0 512L0 0L512 0Z" id="ComboBox" fill="none" stroke="none" />
    <g id="Group" transform="translate(46 144)">
      <path d="M0 22.4L0 201.6C0 213.976 9.3975 224 21 224L399 224C410.603 224 420 213.976 420 201.6L420 22.4C420 10.024 410.603 0 399 0L21 0C9.3975 0 0 10.024 0 22.4L0 22.4Z" id="Shape" fill="url(#gradient_1)" stroke="none" />
      <g id="Group" transform="translate(273 75)">
        <path d="M58.7252 77C53.5429 77 48.3149 70.809 48.3149 70.809L4.09709 20.8108C4.09709 20.8108 -1.62474 11.4459 0.455238 6.24323C2.53521 1.04052 12.417 -4.57764e-05 12.417 -4.57764e-05C40.2743 -4.57764e-05 105 -3.8147e-05 105 -3.8147e-05C105 -3.8147e-05 115.558 1.04053 117.516 6.24324C119.474 11.4459 112.834 20.8108 112.834 20.8108L69.0441 70.8089C69.0441 70.8089 63.9075 77 58.7252 77Z" id="Triangle-3" fill="#000000" fill-opacity="0.05" fill-rule="evenodd" stroke="none" />
        <path d="M58.2353 72.7499C54.1606 72.7499 50.0825 68.1889 50.0825 68.1889L6.2405 18.6943C6.2405 18.6943 1.60793 11.8756 3.15165 8.0145C4.69537 4.15341 12.4154 3.24994 12.4154 3.24994L104.063 3.24995C104.063 3.24995 111.779 4.15342 113.322 8.01451C114.865 11.8756 110.233 18.6943 110.233 18.6943L66.3814 68.1889C66.3814 68.1889 62.31 72.7499 58.2353 72.7499Z" id="Triangle-4" fill="#000000" fill-opacity="0.07" fill-rule="evenodd" stroke="none" />
        <path d="M56.5279 67.5C53.8054 67.5 51.1073 64.4125 51.1073 64.4125L8.14214 16.5C8.14214 16.5 5.14231 12 6.14232 9.49999C7.14232 7 12.1421 6.5 12.1421 6.5L101.142 6.5C101.142 6.5 106.142 7 107.142 9.5C108.142 12 105.142 16.5 105.142 16.5L61.9971 64.4125C61.9971 64.4125 59.2504 67.5 56.5279 67.5Z" id="Triangle-5" fill="#B80404" fill-rule="evenodd" stroke="none" />
      </g>
    </g>
  </g>
</svg>