<?xml version="1.0" encoding="utf-8"?>
<svg width="512px" height="512px" viewBox="0 0 512 512" version="1.1" xmlns:xlink="http://www.w3.org/1999/xlink" xmlns="http://www.w3.org/2000/svg">
  <defs>
    <linearGradient gradientUnits="objectBoundingBox" x1="0.14644998" y1="0.14644998" x2="0.85354996" y2="0.85354996" id="gradient_1">
      <stop offset="0%" stop-color="#A84FCF" />
      <stop offset="100%" stop-color="#7615B5" />
    </linearGradient>
    <path d="M512 0L512 0L512 512L0 512L0 0L512 0Z" id="path_1" />
    <clipPath id="clip_1">
      <use xlink:href="#path_1" clip-rule="evenodd" fill-rule="evenodd" />
    </clipPath>
  </defs>
  <g id="ComboBox" clip-path="url(#clip_1)">
    <path d="M512 0L512 0L512 512L0 512L0 0L512 0Z" id="ComboBox" fill="none" stroke="none" />
    <path d="M469.333 256C469.333 373.813 373.813 469.333 256 469.333C138.187 469.333 42.6667 373.813 42.6667 256C42.6667 138.187 138.187 42.6667 256 42.6667C373.813 42.6667 469.333 138.187 469.333 256L469.333 256Z" id="Shape" fill="url(#gradient_1)" stroke="none" />
    <path d="M128 223.989C128 219.317 129.525 214.613 132.672 210.677C140.032 201.483 153.451 199.989 162.656 207.349L255.989 282.016L349.323 207.349C358.528 199.989 371.947 201.483 379.307 210.677C386.677 219.883 385.173 233.301 375.979 240.661L269.312 325.995C261.525 332.224 250.443 332.224 242.656 325.995L135.989 240.661C130.741 236.448 128 230.24 128 223.989L128 223.989Z" id="Shape" fill="#FFFFFF" stroke="none" />
    <path d="M117.333 223.979C117.333 216.971 119.627 209.909 124.341 204.011C135.381 190.208 155.52 187.979 169.323 199.008L256 268.352L342.677 199.008C356.48 187.968 376.619 190.208 387.659 204.011C398.699 217.824 396.448 237.952 382.656 248.992L275.989 334.325C264.299 343.669 247.701 343.669 236.011 334.325L129.344 248.992C121.44 242.667 117.333 233.365 117.333 223.979L117.333 223.979Z" id="Shape" fill="#000000" fill-opacity="0.05" stroke="none" />
    <path d="M122.667 223.979C122.667 218.133 124.576 212.256 128.512 207.339C137.717 195.84 154.496 193.973 165.995 203.179L256 275.189L346.005 203.179C357.504 193.973 374.283 195.84 383.488 207.339C392.693 218.848 390.816 235.616 379.328 244.821L272.661 330.155C262.923 337.941 249.088 337.941 239.339 330.155L132.672 244.821C126.091 239.552 122.667 231.808 122.667 223.979L122.667 223.979Z" id="Shape" fill="#000000" fill-opacity="0.07" stroke="none" />
  </g>
</svg>