<?xml version="1.0" encoding="utf-8"?>
<svg width="512px" height="512px" viewBox="0 0 512 512" version="1.1" xmlns:xlink="http://www.w3.org/1999/xlink" xmlns="http://www.w3.org/2000/svg">
  <defs>
    <linearGradient gradientUnits="objectBoundingBox" x1="0.01166667" y1="0.07600021" x2="0.9777222" y2="0.960001" id="gradient_1">
      <stop offset="0%" stop-color="#0077D2" />
      <stop offset="100%" stop-color="#0B59A2" />
    </linearGradient>
    <linearGradient gradientUnits="objectBoundingBox" x1="0.011500001" y1="0.05540037" x2="0.99372214" y2="0.9162669" id="gradient_2">
      <stop offset="0%" stop-color="#28AFEA" />
      <stop offset="100%" stop-color="#047ED6" />
    </linearGradient>
    <path d="M512 0L512 0L512 512L0 512L0 0L512 0Z" id="path_1" />
    <clipPath id="clip_1">
      <use xlink:href="#path_1" />
    </clipPath>
  </defs>
  <g id="Expander" clip-path="url(#clip_1)">
    <path d="M512 0L512 0L512 512L0 512L0 0L512 0Z" id="Expander" fill="none" stroke="none" />
    <path d="M0 0L512 0L512 512L0 512L0 0Z" id="Background" fill="none" fill-rule="evenodd" stroke="none" />
    <g id="Group-2" transform="translate(66 66)">
      <path d="M380 190L380 190L380 344C380 363.885 363.885 380 344 380L36 380C16.115 380 0 363.885 0 344L0 190L380 190Z" id="S2" fill="url(#gradient_1)" stroke="none" />
      <path d="M344 0C363.885 0 380 16.115 380 36L380 190L0 190L0 36C0 16.115 16.115 0 36 0L344 0Z" id="S1" fill="url(#gradient_2)" stroke="none" />
    </g>
    <path d="M256.437 400C251.457 400 246.433 394.05 246.433 394.05L203.937 346C203.937 346 198.439 337 200.438 332C202.436 327 211.933 326 211.933 326C238.705 326 300.909 326 300.909 326C300.909 326 311.055 327 312.938 332C314.82 337 308.438 346 308.438 346L266.354 394.05C266.354 394.05 261.418 400 256.437 400Z" id="Triangle-3" fill="#000000" fill-opacity="0.05" fill-rule="evenodd" stroke="none" />
    <path d="M256.804 396.5C252.847 396.5 248.886 392.07 248.886 392.07L206.306 344C206.306 344 201.807 337.377 203.306 333.627C204.805 329.878 212.303 329 212.303 329L301.313 329C301.313 329 308.808 329.877 310.306 333.627C311.804 337.377 307.306 344 307.306 344L264.716 392.07C264.716 392.07 260.762 396.5 256.804 396.5Z" id="Triangle-4" fill="#000000" fill-opacity="0.07" fill-rule="evenodd" stroke="none" />
    <path d="M256.59 394C253.867 394 251.169 390.913 251.169 390.913L208.204 343C208.204 343 205.204 338.5 206.204 336C207.204 333.5 212.204 333 212.204 333L301.204 333C301.204 333 306.204 333.5 307.204 336C308.204 338.5 305.204 343 305.204 343L262.059 390.913C262.059 390.913 259.312 394 256.59 394Z" id="Triangle-5" fill="#FFFFFF" fill-rule="evenodd" stroke="none" />
  </g>
</svg>