<?xml version="1.0" encoding="utf-8"?>
<svg width="512px" height="512px" viewBox="0 0 512 512" version="1.1" xmlns:xlink="http://www.w3.org/1999/xlink" xmlns="http://www.w3.org/2000/svg">
  <defs>
    <path d="M512 0L512 0L512 512L0 512L0 0L512 0Z" id="path_1" />
    <clipPath id="clip_1">
      <use xlink:href="#path_1" clip-rule="evenodd" fill-rule="evenodd" />
    </clipPath>
  </defs>
  <g id="ListBox" clip-path="url(#clip_1)">
    <path d="M512 0L512 0L512 512L0 512L0 0L512 0Z" id="ListBox" fill="none" stroke="none" />
    <g id="Group" transform="translate(33 63)">
      <path d="M129.518 21.3334C124.816 21.3334 121 26.112 121 32L121 53.3334C121 59.2214 124.816 64 129.518 64L436.149 64C440.85 64 444.666 59.2214 444.666 53.3334L444.666 32C444.666 26.112 440.85 21.3334 436.149 21.3334L129.518 21.3334L129.518 21.3334ZM129.518 170.667C124.816 170.667 121 175.445 121 181.333L121 202.667C121 208.555 124.816 213.333 129.518 213.333L436.149 213.333C440.85 213.333 444.666 208.555 444.666 202.667L444.666 181.333C444.666 175.445 440.85 170.667 436.149 170.667L129.518 170.667L129.518 170.667ZM129.518 320C124.816 320 121 324.779 121 330.667L121 352C121 357.888 124.816 362.667 129.518 362.667L436.149 362.667C440.85 362.667 444.666 357.888 444.666 352L444.666 330.667C444.666 324.779 440.85 320 436.149 320L129.518 320L129.518 320Z" id="Vector" fill="#0078D4" stroke="none" />
      <path d="M85.3333 42.6667C85.3333 66.2293 66.2293 85.3333 42.6667 85.3333C19.104 85.3333 0 66.2293 0 42.6667C0 19.104 19.104 0 42.6667 0C66.2293 0 85.3333 19.104 85.3333 42.6667M85.3333 192C85.3333 215.563 66.2293 234.667 42.6667 234.667C19.104 234.667 0 215.563 0 192C0 168.437 19.104 149.333 42.6667 149.333C66.2293 149.333 85.3333 168.437 85.3333 192M85.3333 341.333C85.3333 364.896 66.2293 384 42.6667 384C19.104 384 0 364.896 0 341.333C0 317.771 19.104 298.667 42.6667 298.667C66.2293 298.667 85.3333 317.771 85.3333 341.333" id="Shape" fill="#35C1F1" fill-rule="evenodd" stroke="none" />
    </g>
  </g>
</svg>