<?xml version="1.0" encoding="utf-8"?>
<svg width="512px" height="512px" viewBox="0 0 512 512" version="1.1" xmlns:xlink="http://www.w3.org/1999/xlink" xmlns="http://www.w3.org/2000/svg">
  <g id="Logo-3">
    <path d="M0 0L512 0L512 512L0 512L0 0Z" id="Rectangle-2" fill="none" fill-rule="evenodd" stroke="none" />
    <g id="Group" transform="translate(0 145)">
      <path d="M480 0C497.676 0 512 14.3245 512 32L512 191.851C512 209.527 497.676 223.851 480 223.851L32 223.851C14.3245 223.851 0 209.527 0 191.851L0 32C0 14.3245 14.3245 0 32 0L480 0Z" id="Rectangle" fill="#FBCC13" stroke="none" />
      <path d="M182.835 100.65C184.049 98.2312 185.65 96.0208 187.591 94.0803C192.381 89.2887 198.749 86.6507 205.524 86.6507C212.297 86.6507 218.666 89.2887 223.456 94.0803C225.843 96.4655 227.698 99.2313 228.969 102.3L229.469 103.504L255.053 103.504L254.527 101.131C252.101 90.151 245.931 80.1771 237.156 73.0444C228.252 65.8094 217.018 61.8247 205.524 61.8247C189.074 61.8247 173.649 69.9035 164.261 83.4359L163.331 84.7769L181.621 103.067L182.835 100.65ZM228.969 121.726C227.698 124.795 225.843 127.559 223.456 129.946C221.516 131.886 219.305 133.487 216.886 134.702C216.133 135.08 215.353 135.425 214.567 135.723C212.157 136.641 209.617 137.181 207.02 137.331C205.841 137.399 204.606 137.387 203.45 137.291C197.481 136.814 191.848 134.204 187.591 129.946C183.332 125.687 180.722 120.056 180.245 114.086L180.187 113.37L159.21 92.3926L158.179 95.3147C156.292 100.666 155.335 106.284 155.335 112.012C155.335 125.418 160.556 138.023 170.035 147.501C179.515 156.981 192.118 162.201 205.523 162.201C212.303 162.201 218.879 160.873 225.066 158.252C226.237 157.758 227.408 157.208 228.544 156.621C234.987 153.291 240.746 148.494 245.202 142.749C249.718 136.926 252.943 130.061 254.527 122.895L255.051 120.521L229.468 120.521L228.969 121.726ZM304.636 64.5735L328.812 88.7474L366.893 88.7474L366.893 64.5735L304.636 64.5735ZM365.654 123.037L365.291 121.983C365.254 121.875 365.217 121.767 365.179 121.658L365.173 121.641C365.15 121.576 365.126 121.509 365.102 121.442L364.676 120.23L364.642 120.242C364.623 120.196 364.605 120.149 364.586 120.104L364.455 119.8C364.217 119.239 363.958 118.68 363.687 118.141L363.593 117.952C363.176 117.131 362.711 116.315 362.215 115.53L362.039 115.25C361.947 115.106 361.852 114.96 361.756 114.818L361.718 114.762C361.609 114.601 361.499 114.439 361.377 114.267L361.333 114.206C361.165 113.968 360.995 113.735 360.824 113.508L360.726 113.376C360.702 113.342 360.678 113.309 360.65 113.275C360.56 113.157 360.468 113.038 360.373 112.917L360.317 112.848C360.253 112.767 360.188 112.687 360.124 112.607L359.864 112.289C359.78 112.188 359.695 112.089 359.608 111.987C359.198 111.506 358.767 111.033 358.337 110.587L358.314 110.565C358.198 110.444 358.08 110.325 357.962 110.205L357.945 110.19C357.872 110.117 357.8 110.046 357.726 109.975L357.486 109.741C357.438 109.694 357.389 109.648 357.343 109.606L357.283 109.55C357.139 109.415 356.995 109.282 356.853 109.154C356.614 108.937 356.398 108.748 356.195 108.574L356.169 108.552C355.619 108.084 355.04 107.627 354.449 107.194L354.318 107.096C354.043 106.897 353.747 106.691 353.446 106.488L353.381 106.442C353.109 106.26 352.821 106.074 352.506 105.878L351.835 105.472L351.815 105.461C351.41 105.223 350.98 104.985 350.534 104.752L350.508 104.737C350.287 104.622 350.065 104.51 349.852 104.405L349.826 104.394C349.708 104.335 349.591 104.279 349.463 104.218L349.447 104.21C349.072 104.033 348.687 103.861 348.302 103.698L348.223 103.665C347.894 103.527 347.565 103.395 347.238 103.271L347.075 103.21C346.577 103.024 346.069 102.849 345.556 102.689L345.485 102.666C345.229 102.588 344.974 102.511 344.708 102.438L344.644 102.419C344.57 102.398 344.496 102.378 344.418 102.357L344.171 102.247L343.998 102.247C343.685 102.166 343.37 102.091 343.059 102.023L342.972 102.003C342.725 101.949 342.476 101.898 342.213 101.848L341.858 101.781C341.526 101.722 341.226 101.673 340.941 101.631L340.848 101.616C340.654 101.589 340.458 101.562 340.262 101.537L340.222 101.533C339.923 101.496 339.605 101.462 339.259 101.43L339.192 101.423C339.139 101.419 339.087 101.413 339.021 101.408C338.945 101.402 338.867 101.396 338.794 101.391L338.617 101.378C338.54 101.372 338.462 101.366 338.386 101.362C338.108 101.344 337.811 101.331 337.476 101.32L337.26 101.312C337.163 101.31 337.067 101.307 336.979 101.305L336.871 101.304C336.729 101.302 336.587 101.3 336.443 101.3L299.715 101.3C296.255 101.3 293.439 98.4841 293.439 95.0235C293.439 91.563 296.255 88.7474 299.715 88.7474L317.765 88.7474L294.093 65.0749L293.046 65.3079C292.353 65.4613 291.639 65.6488 290.925 65.8633C286.14 67.3024 281.735 69.9404 278.184 73.4918C274.632 77.0433 271.994 81.4485 270.555 86.2316C269.7 89.0742 269.265 92.0318 269.265 95.0235C269.265 98.0167 269.699 100.974 270.555 103.815C271.994 108.6 274.632 113.005 278.184 116.557C281.735 120.108 286.14 122.746 290.925 124.185C293.766 125.04 296.724 125.475 299.715 125.475L336.443 125.475C339.904 125.475 342.719 128.291 342.719 131.751C342.719 135.212 339.904 138.027 336.443 138.027L269.265 138.027L269.265 162.201L336.443 162.201C343.118 162.201 349.456 160.082 354.77 156.07C359.91 152.192 363.758 146.677 365.603 140.542C366.458 137.702 366.893 134.743 366.893 131.751C366.893 128.789 366.468 125.86 365.629 123.047L365.654 123.037ZM416.436 64.5735L440.611 88.7474L478.693 88.7474L478.693 64.5735L416.436 64.5735ZM477.454 123.037L477.09 121.983C477.053 121.875 477.016 121.767 476.978 121.658L476.972 121.641C476.95 121.576 476.925 121.509 476.901 121.442L476.475 120.23L476.441 120.242C476.423 120.196 476.404 120.149 476.386 120.104L476.255 119.8C476.016 119.239 475.758 118.68 475.486 118.141L475.393 117.952C474.975 117.131 474.51 116.315 474.015 115.53L473.839 115.25C473.746 115.106 473.651 114.96 473.556 114.818L473.518 114.762C473.408 114.601 473.299 114.439 473.177 114.267L473.133 114.206C472.965 113.968 472.794 113.735 472.624 113.508L472.526 113.376C472.502 113.342 472.478 113.309 472.449 113.275C472.36 113.157 472.267 113.038 472.172 112.917L472.117 112.848C472.053 112.767 471.988 112.687 471.924 112.607L471.664 112.289C471.58 112.188 471.495 112.089 471.408 111.987C470.997 111.506 470.567 111.033 470.137 110.587L470.114 110.565C469.997 110.444 469.879 110.325 469.761 110.205L469.744 110.19C469.672 110.117 469.6 110.046 469.526 109.975L469.286 109.741C469.237 109.694 469.189 109.648 469.142 109.606L469.082 109.55C468.939 109.415 468.794 109.282 468.652 109.154C468.413 108.937 468.197 108.748 467.994 108.574L467.969 108.552C467.419 108.084 466.839 107.627 466.248 107.194L466.118 107.096C465.842 106.897 465.547 106.691 465.245 106.488L465.18 106.442C464.909 106.26 464.62 106.074 464.305 105.878L463.635 105.472L463.615 105.461C463.21 105.223 462.779 104.985 462.333 104.752L462.308 104.737C462.086 104.622 461.865 104.51 461.651 104.405L461.626 104.394C461.508 104.335 461.39 104.279 461.262 104.218L461.247 104.21C460.872 104.033 460.487 103.861 460.102 103.698L460.022 103.665C459.694 103.527 459.364 103.395 459.038 103.271L458.874 103.21C458.377 103.024 457.868 102.849 457.356 102.689L457.285 102.666C457.029 102.588 456.773 102.511 456.507 102.438L456.444 102.419C456.37 102.398 456.296 102.378 456.218 102.357L455.971 102.247L455.797 102.247C455.485 102.166 455.169 102.091 454.858 102.023L454.772 102.003C454.524 101.949 454.276 101.898 454.013 101.848L453.658 101.781C453.325 101.722 453.026 101.673 452.74 101.631L452.648 101.616C452.453 101.589 452.257 101.562 452.061 101.537L452.021 101.533C451.723 101.496 451.405 101.462 451.058 101.43L450.991 101.423C450.939 101.419 450.886 101.413 450.821 101.408C450.744 101.402 450.666 101.396 450.594 101.391L450.416 101.378C450.339 101.372 450.261 101.366 450.186 101.362C449.908 101.344 449.611 101.331 449.275 101.32L449.059 101.312C448.963 101.31 448.866 101.307 448.778 101.305L448.67 101.304C448.528 101.302 448.386 101.3 448.243 101.3L411.515 101.3C408.054 101.3 405.239 98.4841 405.239 95.0235C405.239 91.563 408.054 88.7474 411.515 88.7474L429.565 88.7474L405.892 65.0749L404.845 65.3079C404.152 65.4613 403.439 65.6488 402.724 65.8633C397.94 67.3024 393.535 69.9404 389.983 73.4918C386.432 77.0433 383.794 81.4485 382.355 86.2316C381.5 89.0742 381.065 92.0318 381.065 95.0235C381.065 98.0167 381.498 100.974 382.355 103.815C383.794 108.6 386.432 113.005 389.983 116.557C393.535 120.108 397.94 122.746 402.724 124.185C405.566 125.04 408.523 125.475 411.515 125.475L448.243 125.475C451.703 125.475 454.519 128.291 454.519 131.751C454.519 135.212 451.703 138.027 448.243 138.027L381.065 138.027L381.065 162.201L448.243 162.201C454.918 162.201 461.255 160.082 466.569 156.07C471.709 152.192 475.557 146.677 477.403 140.542C478.258 137.702 478.693 134.743 478.693 131.751C478.693 128.789 478.268 125.86 477.428 123.047L477.454 123.037Z" id="Path" fill="#000000" fill-opacity="0.36862746" stroke="none" />
      <path d="M93.6223 62.7608L79.5727 85.9262L119.804 152.541L125.663 162.201L153.939 162.201L93.6223 62.7608Z" id="Path" fill="#000000" stroke="none" />
      <path d="M33.3073 162.201L61.5825 162.201L89.1062 116.822L75.0013 93.4639L33.3073 162.201Z" id="Path" fill="#000000" stroke="none" />
    </g>
  </g>
</svg>