<?xml version="1.0" encoding="utf-8"?>
<svg width="512px" height="512px" viewBox="0 0 512 512" version="1.1" xmlns:xlink="http://www.w3.org/1999/xlink" xmlns="http://www.w3.org/2000/svg">
  <defs>
    <linearGradient gradientUnits="objectBoundingBox" x1="0.21715" y1="-0.08741754" x2="0.78950006" y2="0.8680452" id="gradient_1">
      <stop offset="0%" stop-color="#33BEF0" />
      <stop offset="100%" stop-color="#0A85D9" />
    </linearGradient>
    <linearGradient gradientUnits="objectBoundingBox" x1="-7.422652" y1="-10.298246" x2="0.807261" y2="1.2495222" id="gradient_2">
      <stop offset="0%" stop-color="#FFDA1C" />
      <stop offset="100%" stop-color="#FEB705" />
    </linearGradient>
    <radialGradient gradientUnits="objectBoundingBox" cx="-65.66667%" cy="-1.0232925%" fx="-65.66667%" fy="-1.0232925%" r="5463.6055%" gradientTransform="translate(-0.65666676,-0.010232925),rotate(-127.243576),scale(1,1.0560877),translate(0.65666676,0.010232925)" id="gradient_3">
      <stop offset="0%" stop-color="#4B4B4B" />
      <stop offset="53.100002%" stop-color="#393939" />
      <stop offset="100%" stop-color="#252525" />
    </radialGradient>
    <radialGradient gradientUnits="objectBoundingBox" cx="-66.50629%" cy="-0.95176697%" fx="-66.50629%" fy="-0.95176697%" r="68538.625%" gradientTransform="translate(-0.6650629,-0.00951767),scale(1,0.4285713),rotate(93.25655),scale(1,0.9933912),translate(0.6650629,0.00951767)" id="gradient_4">
      <stop offset="0%" stop-color="#4B4B4B" />
      <stop offset="53.100002%" stop-color="#393939" />
      <stop offset="100%" stop-color="#252525" />
    </radialGradient>
    <path d="M512 0L512 0L512 512L0 512L0 0L512 0Z" id="path_1" />
    <clipPath id="clip_1">
      <use xlink:href="#path_1" clip-rule="evenodd" fill-rule="evenodd" />
    </clipPath>
  </defs>
  <g id="MessageBox" clip-path="url(#clip_1)">
    <path d="M512 0L512 0L512 512L0 512L0 0L512 0Z" id="MessageBox" fill="none" stroke="none" />
    <path d="M448 85.3333L64 85.3333C52.2667 85.3333 42.6667 94.9333 42.6667 106.667L42.6667 384C42.6667 395.733 52.2667 405.333 64 405.333L149.333 405.333L149.333 490.667C149.333 500.267 161.067 504.533 167.467 498.133L260.267 405.333L448 405.333C459.733 405.333 469.333 395.733 469.333 384L469.333 106.667C469.333 94.9333 459.733 85.3333 448 85.3333L448 85.3333Z" id="Shape" fill="url(#gradient_1)" stroke="none" />
    <path d="M409.6 270.933C407.467 266.667 401.067 259.2 389.333 259.2C378.667 259.2 371.2 266.667 370.133 269.867L284.8 405.333L448 405.333C459.733 405.333 469.333 395.733 469.333 384L469.333 365.867L409.6 270.933L409.6 270.933Z" id="Shape" fill="#000000" fill-opacity="0.05" stroke="none" />
    <path d="M404.267 273.067C402.133 269.867 397.867 263.467 389.333 263.467C380.8 263.467 375.467 268.8 374.4 272L291.2 405.333L448 405.333C459.733 405.333 469.333 395.733 469.333 384L469.333 376.533L404.267 273.067L404.267 273.067Z" id="Shape" fill="#000000" fill-opacity="0.07" stroke="none" />
    <path d="M509.867 451.2L400 275.2C400 275.2 396.8 268.8 389.333 268.8C381.867 268.8 378.667 275.2 378.667 275.2L268.8 451.2C268.8 451.2 266.667 454.4 266.667 457.6C266.667 464 272 469.333 278.4 469.333L500.267 469.333C506.667 469.333 512 464 512 457.6C512 453.333 509.867 451.2 509.867 451.2L509.867 451.2Z" id="Shape" fill="url(#gradient_2)" stroke="none" />
    <path d="M389.333 448C385.067 448 380.8 446.933 377.6 443.733C374.4 440.533 373.333 436.267 373.333 432C373.333 427.733 374.4 423.467 377.6 420.267C380.8 417.067 384 416 389.333 416C393.6 416 397.867 417.067 401.067 420.267C404.267 423.467 405.333 426.667 405.333 432C405.333 436.267 404.267 440.533 401.067 443.733C397.867 446.933 394.667 448 389.333 448L389.333 448Z" id="Shape" fill="url(#gradient_3)" stroke="none" />
    <path d="M405.333 334.933L402.133 402.133C402.133 404.267 400 405.333 396.8 405.333L380.8 405.333C378.667 405.333 375.467 403.2 375.467 402.133L373.333 334.933C373.333 332.8 375.467 330.667 378.667 330.667L401.067 330.667C403.2 330.667 405.333 332.8 405.333 334.933L405.333 334.933Z" id="Shape" fill="url(#gradient_4)" stroke="none" />
  </g>
</svg>