<svg xmlns="http://www.w3.org/2000/svg"  viewBox="0 0 48 48" width="512px" height="512px"><linearGradient id="SVGID_1_" x1="12.686" x2="35.58" y1="-22.592" y2="-59.841" gradientTransform="matrix(1 0 0 -1 0 -18)" gradientUnits="userSpaceOnUse"><stop offset="0" stop-color="#33bef0"/><stop offset="1" stop-color="#0a85d9"/></linearGradient><path fill="url(#SVGID_1_)" d="M42,8H6c-1.1,0-2,0.9-2,2v26c0,1.1,0.9,2,2,2h8v8c0,0.9,1.1,1.3,1.7,0.7l8.7-8.7H42c1.1,0,2-0.9,2-2V10	C44,8.9,43.1,8,42,8z"/><path d="M38.4,25.4c-0.2-0.4-0.8-1.1-1.9-1.1c-1,0-1.7,0.7-1.8,1l-8,12.7H42c1.1,0,2-0.9,2-2v-1.7L38.4,25.4z" opacity=".05"/><path d="M37.9,25.6c-0.2-0.3-0.6-0.9-1.4-0.9s-1.3,0.5-1.4,0.8L27.3,38H42c1.1,0,2-0.9,2-2v-0.7L37.9,25.6z" opacity=".07"/><linearGradient id="SVGID_2_" x1="-145.721" x2="43.567" y1="-510.407" y2="-293.309" gradientTransform="translate(0 342)" gradientUnits="userSpaceOnUse"><stop offset="0" stop-color="#ffda1c"/><stop offset="1" stop-color="#feb705"/></linearGradient><path fill="url(#SVGID_2_)" d="M47.8,42.3L37.5,25.8c0,0-0.3-0.6-1-0.6s-1,0.6-1,0.6L25.2,42.3c0,0-0.2,0.3-0.2,0.6c0,0.6,0.5,1.1,1.1,1.1	h20.8c0.6,0,1.1-0.5,1.1-1.1C48,42.5,47.8,42.3,47.8,42.3z"/><radialGradient id="SVGID_3_" cx="33.03" cy="39.187" r="5.802" gradientTransform="matrix(1 0 0 1.1091 0 -4.493)" gradientUnits="userSpaceOnUse"><stop offset="0" stop-color="#4b4b4b"/><stop offset=".531" stop-color="#393939"/><stop offset="1" stop-color="#252525"/></radialGradient><path fill="url(#SVGID_3_)" d="M36.5,42c-0.4,0-0.8-0.1-1.1-0.4S35,40.9,35,40.5c0-0.4,0.1-0.8,0.4-1.1c0.3-0.3,0.6-0.4,1.1-0.4	c0.4,0,0.8,0.1,1.1,0.4c0.3,0.3,0.4,0.6,0.4,1.1c0,0.4-0.1,0.8-0.4,1.1S37,42,36.5,42z"/><radialGradient id="SVGID_4_" cx="33.64" cy="-311.224" r="8.742" gradientTransform="matrix(1.2233 0 0 .9425 -8.147 324.262)" gradientUnits="userSpaceOnUse"><stop offset="0" stop-color="#4b4b4b"/><stop offset=".531" stop-color="#393939"/><stop offset="1" stop-color="#252525"/></radialGradient><path fill="url(#SVGID_4_)" d="M38,31.4l-0.3,6.3c0,0.2-0.2,0.3-0.5,0.3h-1.5c-0.2,0-0.5-0.2-0.5-0.3L35,31.4c0-0.2,0.2-0.4,0.5-0.4h2.1	C37.8,31,38,31.2,38,31.4z"/></svg>