<?xml version="1.0" encoding="utf-8"?>
<svg width="512px" height="512px" viewBox="0 0 512 512" version="1.1" xmlns:xlink="http://www.w3.org/1999/xlink" xmlns="http://www.w3.org/2000/svg">
  <defs>
    <linearGradient gradientUnits="objectBoundingBox" x1="0.011500001" y1="0.05540037" x2="0.99372214" y2="0.9162669" id="gradient_1">
      <stop offset="0%" stop-color="#EA289C" />
      <stop offset="100%" stop-color="#D6047B" />
    </linearGradient>
    <path d="M512 0L512 0L512 512L0 512L0 0L512 0Z" id="path_1" />
    <clipPath id="clip_1">
      <use xlink:href="#path_1" />
    </clipPath>
  </defs>
  <g id="NumberInput" clip-path="url(#clip_1)">
    <path d="M512 0L512 0L512 512L0 512L0 0L512 0Z" id="NumberInput" fill="none" stroke="none" />
    <path d="M46 166.4L46 345.6C46 357.976 55.3975 368 67 368L445 368C456.603 368 466 357.976 466 345.6L466 166.4C466 154.024 456.603 144 445 144L67 144C55.3975 144 46 154.024 46 166.4L46 166.4Z" id="Shape" fill="url(#gradient_1)" stroke="none" />
    <g id="Group-3" transform="translate(84 195.92749)">
      <path d="M51.8577 0L37.8978 0C36.4723 0 35.0665 0.477318 33.9419 1.33388C29.973 4.35471 25.4548 7.17938 20.5116 9.71636C15.588 12.2468 10.2656 14.3522 4.70126 15.9869C1.93542 16.7977 0 19.3804 0 22.2574L0 41.7032C0 43.5732 0.804243 45.3583 2.20351 46.6006C3.66816 47.8887 5.5905 48.438 7.30363 48.196C9.61176 47.9214 12.0114 47.4637 14.4307 46.8164C16.7911 46.1887 19.1123 45.4041 21.3093 44.4952C21.6362 44.3579 21.9697 44.2206 22.2966 44.0833L22.2966 113.726C22.2966 117.335 25.2325 120.265 28.8352 120.265L51.8642 120.265C55.467 120.265 58.4028 117.335 58.4028 113.726L58.4028 6.5386C58.3963 2.93584 55.467 0 51.8577 0L51.8577 0Z" id="Shape-2" fill="#000000" fill-opacity="0.05" stroke="none" />
      <path d="M51.6534 3.06497L37.6934 3.06497C36.9807 3.06497 36.2811 3.30036 35.7122 3.73845C31.5798 6.87698 26.8982 9.79974 21.7981 12.4217C16.7045 15.0371 11.1859 17.2276 5.41233 18.9211C4.01961 19.333 3.06497 20.608 3.06497 22.0531L3.06497 41.4989C3.06497 42.4339 3.46383 43.3231 4.16345 43.9443C4.85655 44.5589 5.77195 44.8924 6.72005 44.742C8.91048 44.487 11.1598 44.0489 13.3894 43.4539C15.5995 42.8654 17.7834 42.1331 19.8627 41.27C21.7981 40.4723 23.6485 39.5765 25.3682 38.6088L25.3682 113.522C25.3682 115.326 26.8328 116.791 28.6375 116.791L51.6664 116.791C53.4711 116.791 54.9357 115.326 54.9357 113.522L54.9357 6.33427C54.9227 4.52962 53.4646 3.06497 51.6534 3.06497L51.6534 3.06497Z" id="Shape-3" fill="#000000" fill-opacity="0.07" stroke="none" />
      <path d="M51.462 6.74294L51.462 113.93L28.4331 113.93L28.4331 32.7731C27.1646 33.8978 25.6673 34.957 23.9345 35.9509C22.2018 36.9513 20.3645 37.8536 18.416 38.6578C16.4675 39.4621 14.447 40.1487 12.3482 40.7044C10.2493 41.2668 8.17653 41.6656 6.12995 41.9141L6.12995 22.4683C12.1258 20.7094 17.7817 18.4732 23.0911 15.7401C28.4069 13.0135 33.2063 10.0123 37.4956 6.74949L51.462 6.74949L51.462 6.74294Z" id="Shape-4" fill="#FFFFFF" stroke="none" />
    </g>
    <g id="Group" transform="translate(157.55957 285.42456)">
      <path d="M15.3249 0C23.7897 0 30.6497 6.86002 30.6497 15.3249L30.6497 15.3249C30.6497 23.7897 23.7897 30.6497 15.3249 30.6497L15.3249 30.6497C6.86002 30.6497 0 23.7897 0 15.3249L0 15.3249C0 6.86002 6.86002 0 15.3249 0Z" id="Rectangle-3" fill="#000000" fill-opacity="0.05" stroke="none" />
      <path d="M15.3249 3.06497C22.0967 3.06497 27.5848 8.553 27.5848 15.3249L27.5848 15.3249C27.5848 22.0967 22.0967 27.5848 15.3249 27.5848L15.3249 27.5848C8.553 27.5848 3.06497 22.0967 3.06497 15.3249L3.06497 15.3249C3.06497 8.553 8.553 3.06497 15.3249 3.06497Z" id="Rectangle-2" fill="#000000" fill-opacity="0.07" stroke="none" />
      <path d="M16.5198 6.12995C20.9387 6.12995 24.5198 9.71107 24.5198 14.1299L24.5198 16.5198C24.5198 20.9387 20.9387 24.5198 16.5198 24.5198L14.1299 24.5198C9.71107 24.5198 6.12995 20.9387 6.12995 16.5198L6.12995 14.1299C6.12995 9.71107 9.71107 6.12995 14.1299 6.12995L16.5198 6.12995Z" id="Rectangle" fill="#FFFFFF" stroke="none" />
    </g>
    <g id="Group-2" transform="translate(203.3501 285.42456)">
      <path d="M15.3249 0C23.7897 0 30.6497 6.86002 30.6497 15.3249L30.6497 15.3249C30.6497 23.7897 23.7897 30.6497 15.3249 30.6497L15.3249 30.6497C6.86002 30.6497 0 23.7897 0 15.3249L0 15.3249C0 6.86002 6.86002 0 15.3249 0Z" id="Rectangle-3" fill="#000000" fill-opacity="0.05" stroke="none" />
      <path d="M15.3249 3.06497C22.0967 3.06497 27.5848 8.553 27.5848 15.3249L27.5848 15.3249C27.5848 22.0967 22.0967 27.5848 15.3249 27.5848L15.3249 27.5848C8.553 27.5848 3.06497 22.0967 3.06497 15.3249L3.06497 15.3249C3.06497 8.553 8.553 3.06497 15.3249 3.06497Z" id="Rectangle-2" fill="#000000" fill-opacity="0.07" stroke="none" />
      <path d="M16.5198 6.12995C20.9387 6.12995 24.5198 9.71107 24.5198 14.1299L24.5198 16.5198C24.5198 20.9387 20.9387 24.5198 16.5198 24.5198L14.1299 24.5198C9.71107 24.5198 6.12995 20.9387 6.12995 16.5198L6.12995 14.1299C6.12995 9.71107 9.71107 6.12995 14.1299 6.12995L16.5198 6.12995Z" id="Rectangle" fill="#FFFFFF" stroke="none" />
    </g>
  </g>
</svg>