<svg xmlns="http://www.w3.org/2000/svg"  viewBox="0 0 48 48" width="512px" height="512px"><path fill="#50e6ff" d="M1,15.2v17.6C1,34.015,2.029,35,3.3,35h41.4c1.271,0,2.3-0.985,2.3-2.2V15.2	c0-1.215-1.029-2.2-2.3-2.2H3.3C2.029,13,1,13.985,1,15.2z"/><path fill="#184f85" d="M9.066,21.346v8.59H7.221v-6.504c-0.102,0.09-0.222,0.175-0.36,0.255s-0.286,0.152-0.442,0.217 S6.1,24.023,5.932,24.068s-0.334,0.077-0.498,0.097v-1.559c0.48-0.141,0.934-0.32,1.359-0.539s0.811-0.459,1.154-0.721H9.066z"/><circle cx="13.5" cy="28.5" r="1.5" fill="#184f85"/><circle cx="18.5" cy="28.5" r="1.5" fill="#184f85"/></svg>