<?xml version="1.0" encoding="utf-8"?>
<svg width="512px" height="512px" viewBox="0 0 512 512" version="1.1" xmlns:xlink="http://www.w3.org/1999/xlink" xmlns="http://www.w3.org/2000/svg">
  <defs>
    <linearGradient gradientUnits="objectBoundingBox" x1="0.27505064" y1="0.06234932" x2="0.7395997" y2="0.9661751" id="gradient_1">
      <stop offset="0%" stop-color="#75DAFF" />
      <stop offset="100%" stop-color="#1EA2E4" />
    </linearGradient>
    <path d="M512 0L512 0L512 512L0 512L0 0L512 0Z" id="path_1" />
    <clipPath id="clip_1">
      <use xlink:href="#path_1" />
    </clipPath>
  </defs>
  <g id="NumberInput" clip-path="url(#clip_1)">
    <path d="M512 0L512 0L512 512L0 512L0 0L512 0Z" id="NumberInput" fill="none" stroke="none" />
    <path d="M469.333 256C469.333 373.813 373.813 469.333 256 469.333C138.187 469.333 42.6667 373.813 42.6667 256C42.6667 138.187 138.187 42.6667 256 42.6667C373.813 42.6667 469.333 138.187 469.333 256L469.333 256Z" id="Shape" fill="url(#gradient_1)" stroke="none" />
    <path d="M318.507 287.008C318.507 296.16 316.907 304.704 313.707 312.64C310.517 320.587 306.069 327.467 300.373 333.291C294.677 339.125 287.904 343.691 280.043 347.019C272.192 350.336 263.605 352 254.293 352C243.851 352 234.496 350.059 226.261 346.176C218.016 342.293 211.051 336.661 205.355 329.28C199.659 321.899 195.296 312.853 192.288 302.155C189.259 291.456 187.755 279.328 187.755 265.771C187.755 249.803 189.717 235.328 193.653 222.336C197.579 209.344 203.179 198.229 210.485 188.992C217.781 179.755 226.603 172.619 236.96 167.563C247.296 162.528 258.955 160 271.893 160C286.219 160 297.355 161.685 305.291 165.045L305.291 199.221C295.883 193.867 285.611 191.189 274.475 191.189C267.563 191.189 261.312 192.533 255.701 195.2C250.101 197.877 245.28 201.675 241.269 206.592C237.248 211.509 234.101 217.451 231.808 224.395C229.515 231.339 228.299 239.083 228.117 247.627L228.896 247.627C237.696 235.456 250.688 229.376 267.872 229.376C275.552 229.376 282.496 230.763 288.715 233.515C294.933 236.277 300.235 240.181 304.64 245.227C309.035 250.283 312.448 256.341 314.859 263.424C317.291 270.528 318.507 278.379 318.507 287.008L318.507 287.008ZM278.496 289.6C278.496 269.664 270.347 259.691 254.027 259.691C250.315 259.691 246.955 260.384 243.925 261.76C240.896 263.147 238.315 265.088 236.16 267.584C234.005 270.091 232.341 273.045 231.179 276.459C230.005 279.861 229.429 283.637 229.429 287.787C229.429 292.363 230.027 296.64 231.243 300.608C232.459 304.576 234.155 308.053 236.363 311.029C238.56 314.016 241.173 316.363 244.192 318.091C247.221 319.819 250.581 320.683 254.293 320.683C258.005 320.683 261.344 319.925 264.331 318.421C267.307 316.907 269.856 314.795 271.968 312.075C274.08 309.365 275.712 306.08 276.821 302.24C277.931 298.379 278.496 294.176 278.496 289.6L278.496 289.6Z" id="Shape" fill="#1D59B3" fill-rule="evenodd" stroke="none" />
  </g>
</svg>