<?xml version="1.0" encoding="utf-8"?>
<svg width="512px" height="512px" viewBox="0 0 512 512" version="1.1" xmlns:xlink="http://www.w3.org/1999/xlink" xmlns="http://www.w3.org/2000/svg">
  <defs>
    <linearGradient gradientUnits="objectBoundingBox" x1="0.99735" y1="0.99735" x2="0.19642502" y2="0.19642502" id="gradient_1">
      <stop offset="0%" stop-color="#FFFFFF" />
      <stop offset="24.2%" stop-color="#F2F2F2" />
      <stop offset="100%" stop-color="#CCCCCC" />
    </linearGradient>
    <linearGradient gradientUnits="objectBoundingBox" x1="-0.0052713603" y1="-0.005273372" x2="0.7161865" y2="0.71616805" id="gradient_2">
      <stop offset="0%" stop-color="#21AD64" />
      <stop offset="100%" stop-color="#088242" />
    </linearGradient>
    <path d="M512 0L512 0L512 512L0 512L0 0L512 0Z" id="path_1" />
    <clipPath id="clip_1">
      <use xlink:href="#path_1" />
    </clipPath>
  </defs>
  <g id="ProgressBar" clip-path="url(#clip_1)">
    <path d="M512 0L512 0L512 512L0 512L0 0L512 0Z" id="ProgressBar" fill="none" stroke="none" />
    <path d="M256 42.6667C138.176 42.6667 42.6667 138.176 42.6667 256C42.6667 373.824 138.176 469.333 256 469.333C373.824 469.333 469.333 373.824 469.333 256C469.333 138.176 373.824 42.6667 256 42.6667L256 42.6667ZM256 416C167.637 416 96 344.363 96 256C96 167.637 167.637 96 256 96C344.363 96 416 167.637 416 256C416 344.363 344.363 416 256 416L256 416Z" id="Shape" fill="url(#gradient_1)" fill-rule="evenodd" stroke="none" />
    <path d="M256 53.6427L256 85.664C256 91.424 260.576 95.9573 266.325 96.32C352.341 101.803 419.883 175.253 415.829 263.541C412.085 345.013 345.045 412.064 263.563 415.819C175.264 419.883 101.813 352.341 96.3307 266.315C95.9573 260.576 91.424 256 85.664 256L53.6427 256C47.6267 256 42.6347 260.981 42.944 266.987C48.8533 383.467 148.181 475.296 267.488 469.035C375.168 463.392 463.381 375.168 469.024 267.488C475.285 148.171 383.456 48.8533 266.987 42.944C260.981 42.6453 256 47.6373 256 53.6427L256 53.6427Z" id="Shape" fill="url(#gradient_2)" stroke="none" />
  </g>
</svg>