<?xml version="1.0" encoding="utf-8"?>
<svg width="512px" height="512px" viewBox="0 0 512 512" version="1.1" xmlns:xlink="http://www.w3.org/1999/xlink" xmlns="http://www.w3.org/2000/svg">
  <defs>
    <linearGradient gradientUnits="objectBoundingBox" x1="0.99735" y1="0.99735" x2="0.19642502" y2="0.19642502" id="gradient_1">
      <stop offset="0%" stop-color="#FFFFFF" />
      <stop offset="24.2%" stop-color="#F2F2F2" />
      <stop offset="100%" stop-color="#CCCCCC" />
    </linearGradient>
    <linearGradient gradientUnits="objectBoundingBox" x1="-0.0052713603" y1="-0.005273372" x2="0.7161865" y2="0.71616805" id="gradient_2">
      <stop offset="0%" stop-color="#2DAD21" />
      <stop offset="100%" stop-color="#338208" />
    </linearGradient>
    <path d="M512 0L512 0L512 512L0 512L0 0L512 0Z" id="path_1" />
    <clipPath id="clip_1">
      <use xlink:href="#path_1" />
    </clipPath>
  </defs>
  <g id="ProgressBar" clip-path="url(#clip_1)">
    <path d="M512 0L512 0L512 512L0 512L0 0L512 0Z" id="ProgressBar" fill="none" stroke="none" />
    <g id="Group" transform="translate(46 46)">
      <path d="M209.998 0C94.0162 0 0 94.0162 0 209.998C0 325.98 94.0162 419.997 209.998 419.997C325.98 419.997 419.997 325.98 419.997 209.998C419.997 94.0162 325.98 0 209.998 0L209.998 0ZM209.998 367.497C123.017 367.497 52.4995 296.979 52.4995 209.998C52.4995 123.017 123.017 52.4995 209.998 52.4995C296.979 52.4995 367.497 123.017 367.497 209.998C367.497 296.979 296.979 367.497 209.998 367.497L209.998 367.497Z" id="Shape" fill="url(#gradient_1)" fill-rule="evenodd" stroke="none" />
      <path d="M210.133 10.811L210.133 42.3513C210.133 48.0248 214.64 52.49 220.304 52.8471C305.029 58.2475 371.558 130.595 367.565 217.556C363.877 297.805 297.843 363.848 217.582 367.546C130.608 371.55 58.2593 305.022 52.8589 220.288C52.4911 214.636 48.0257 210.128 42.3522 210.128L10.8112 210.128C4.88537 210.128 -0.0317411 215.035 0.272965 220.95C6.09364 335.68 103.932 426.13 221.449 419.963C327.514 414.405 414.404 327.506 419.962 221.444C426.129 103.919 335.677 6.09362 220.955 0.273049C215.04 -0.021135 210.133 4.89587 210.133 10.811L210.133 10.811Z" id="Shape" fill="url(#gradient_2)" stroke="none" />
    </g>
  </g>
</svg>