<?xml version="1.0" encoding="utf-8"?>
<svg width="512px" height="512px" viewBox="0 0 512 512" version="1.1" xmlns:xlink="http://www.w3.org/1999/xlink" xmlns="http://www.w3.org/2000/svg">
  <defs>
    <path d="M512 0L512 0L512 512L0 512L0 0L512 0Z" id="path_1" />
    <clipPath id="clip_1">
      <use xlink:href="#path_1" />
    </clipPath>
  </defs>
  <g id="ProgressBar" clip-path="url(#clip_1)">
    <path d="M512 0L512 0L512 512L0 512L0 0L512 0Z" id="ProgressBar" fill="none" stroke="none" />
    <path d="M266.667 149.333L245.333 149.333C239.445 149.333 234.667 144.555 234.667 138.667L234.667 53.3333C234.667 47.4453 239.445 42.6667 245.333 42.6667L266.667 42.6667C272.555 42.6667 277.333 47.4453 277.333 53.3333L277.333 138.667C277.333 144.555 272.555 149.333 266.667 149.333L266.667 149.333Z" id="Shape" fill="#61E3A7" stroke="none" />
    <path d="M266.667 469.333L245.333 469.333C239.445 469.333 234.667 464.555 234.667 458.667L234.667 373.333C234.667 367.445 239.445 362.667 245.333 362.667L266.667 362.667C272.555 362.667 277.333 367.445 277.333 373.333L277.333 458.667C277.333 464.555 272.555 469.333 266.667 469.333L266.667 469.333Z" id="Shape" fill="#21A366" stroke="none" />
    <path d="M362.667 266.667L362.667 245.333C362.667 239.445 367.445 234.667 373.333 234.667L458.667 234.667C464.555 234.667 469.333 239.445 469.333 245.333L469.333 266.667C469.333 272.555 464.555 277.333 458.667 277.333L373.333 277.333C367.445 277.333 362.667 272.555 362.667 266.667L362.667 266.667Z" id="Shape" fill="#33C481" stroke="none" />
    <path d="M42.6667 266.667L42.6667 245.333C42.6667 239.445 47.4453 234.667 53.3333 234.667L138.667 234.667C144.555 234.667 149.333 239.445 149.333 245.333L149.333 266.667C149.333 272.555 144.555 277.333 138.667 277.333L53.3333 277.333C47.4453 277.333 42.6667 272.555 42.6667 266.667L42.6667 266.667Z" id="Shape" fill="#107C42" stroke="none" />
    <path d="M338.965 188.117L323.883 173.035C319.712 168.864 319.712 162.112 323.883 157.952L384.224 97.6107C388.395 93.44 395.147 93.44 399.307 97.6107L414.389 112.693C418.56 116.864 418.56 123.616 414.389 127.776L354.048 188.117C349.888 192.288 343.136 192.288 338.965 188.117L338.965 188.117Z" id="Shape" fill="#61E3A7" stroke="none" />
    <path d="M112.693 414.389L97.6107 399.307C93.44 395.136 93.44 388.384 97.6107 384.224L157.952 323.883C162.123 319.712 168.875 319.712 173.035 323.883L188.117 338.965C192.288 343.136 192.288 349.888 188.117 354.048L127.776 414.389C123.616 418.56 116.853 418.56 112.693 414.389L112.693 414.389Z" id="Shape" fill="#21A366" stroke="none" />
    <path d="M323.883 338.965L338.965 323.883C343.136 319.712 349.888 319.712 354.048 323.883L414.389 384.224C418.56 388.395 418.56 395.147 414.389 399.307L399.307 414.389C395.136 418.56 388.384 418.56 384.224 414.389L323.883 354.048C319.712 349.888 319.712 343.136 323.883 338.965L323.883 338.965Z" id="Shape" fill="#33C481" stroke="none" />
    <path d="M97.6107 112.693L112.693 97.6107C116.864 93.44 123.616 93.44 127.776 97.6107L188.117 157.952C192.288 162.123 192.288 168.875 188.117 173.035L173.035 188.117C168.864 192.288 162.112 192.288 157.952 188.117L97.6107 127.776C93.44 123.616 93.44 116.853 97.6107 112.693L97.6107 112.693Z" id="Shape" fill="#107C42" stroke="none" />
  </g>
</svg>