<?xml version="1.0" encoding="utf-8"?>
<svg width="512px" height="512px" viewBox="0 0 512 512" version="1.1" xmlns:xlink="http://www.w3.org/1999/xlink" xmlns="http://www.w3.org/2000/svg">
  <defs>
    <linearGradient gradientUnits="objectBoundingBox" x1="-0.34242016" y1="-0.80032706" x2="0.6044072" y2="0.6451855" id="gradient_1">
      <stop offset="0%" stop-color="#FFFFFF" />
      <stop offset="100%" stop-color="#009372" />
    </linearGradient>
    <path d="M512 0L512 0L512 512L0 512L0 0L512 0Z" id="path_1" />
    <clipPath id="clip_1">
      <use xlink:href="#path_1" clip-rule="evenodd" fill-rule="evenodd" />
    </clipPath>
  </defs>
  <g id="RecyclePanel" clip-path="url(#clip_1)">
    <path d="M512 0L512 0L512 512L0 512L0 0L512 0Z" id="RecyclePanel" fill="none" stroke="none" />
    <path d="M99.5498 144.25L190.6 196.85L245.5 102.75L235 76.35C235 76.35 219.75 40.6 183.35 44.9C150.8 48.75 144.1 70.25 138 80.55C131.9 90.85 99.5498 144.25 99.5498 144.25M425.5 163.3L336.65 219.5L395.7 311.05L424.2 313.9C424.2 313.9 463.15 316.8 476.05 282.75C487.5 252.25 471.35 236.5 464.95 226.4C458.4 216.3 425.5 163.3 425.5 163.3M246.45 441.8L245.25 337.2L135.75 338.65L118.25 361.2C118.25 361.2 95.1998 392.5 117.55 421.3C137.6 447.1 158.85 444.15 170.9 444.05C182.95 443.95 246.45 441.8 246.45 441.8" id="Shape" fill="#A1DECE" fill-rule="evenodd" stroke="none" />
    <path d="M221.8 42.45L334.35 42.15C334.35 42.15 352.25 42.6 360.8 59.4C369.35 76.2 383.45 98.55 383.45 98.55L415.45 83.55L367.15 171.1L264.5 174.2L295.6 154.5C295.6 154.5 243.65 40.25 221.8 44.3L221.8 42.45L221.8 42.45ZM460.55 317.8L409.2 417.2C409.2 417.2 400.6 432.85 381.65 432.65C362.65 432.45 336.15 434.7 336.15 434.7L334.9 469.8L278.6 387L322.95 295.05L326.35 331.5C326.35 331.5 452.4 338.05 458.85 316.9L460.55 317.8L460.55 317.8ZM95.75 389.75L37.8 294C37.8 294 29 278.55 39.15 262.6C49.3 246.65 61.4 223.15 61.4 223.15L32 203.6L132.5 199.85L187.8 285.8L154.8 269.45C154.8 269.45 82.65 372.25 97.3 388.85L95.75 389.75L95.75 389.75Z" id="Shape" fill="url(#gradient_1)" fill-rule="evenodd" stroke="none" />
  </g>
</svg>