<svg xmlns="http://www.w3.org/2000/svg"  viewBox="0 0 48 48" width="512px" height="512px"><defs><linearGradient id="o3KItVbx1WRKrR5Ksyfrba" x1="17.884" x2="34.818" y1="11.725" y2="58.251" data-name="Новый образец градиентной зал 2" gradientUnits="userSpaceOnUse"><stop offset="0" stop-color="#2aa4f4"/><stop offset="1" stop-color="#007ad9"/></linearGradient></defs><polygon fill="#f0f0f0" points="24.5 10 23.5 10 22 8 22.8 6 24 3 25.2 6 26 8 24.5 10"/><polygon fill="#edbe00" points="26 8 26 36 24 38 22 36 22 8 26 8"/><polygon fill="#787878" points="24.8 5 24 3 23.2 5 24.8 5"/><polygon fill="#f0f0f0" points="13.08 10.306 12.152 10.68 10.013 9.385 10.008 7.231 10 4 12.234 6.334 13.724 7.89 13.08 10.306"/><polygon fill="#eb6773" points="24.19 33.86 24 34.31 23.08 36.46 22.01 36.01 22 36 20.48 35.36 15.09 22 14.69 21 10.01 9.39 13.72 7.89 19.01 21 19.21 21.5 19.41 22 22 28.43 24 33.39 24.19 33.86"/><polygon fill="#787878" points="11.489 5.556 10 4 10.005 6.154 11.489 5.556"/><polygon fill="#f0f0f0" points="34.92 10.306 35.848 10.68 37.987 9.385 37.992 7.231 38 4 35.766 6.334 34.276 7.89 34.92 10.306"/><polygon fill="#33c481" points="37.99 9.39 33.31 21 32.91 22 27.52 35.36 26 36 25.99 36.01 24.92 36.46 24 34.31 23.81 33.86 24 33.39 26 28.43 28.59 22 28.79 21.5 28.99 21 34.28 7.89 37.99 9.39"/><polygon fill="#787878" points="36.511 5.556 38 4 37.995 6.154 36.511 5.556"/><path fill="url(#o3KItVbx1WRKrR5Ksyfrba)" d="M12,22a.9733.9733,0,0,0-.98744,1.11167l3.70813,21.285A1.97808,1.97808,0,0,0,16.69329,46H31.30671a1.97808,1.97808,0,0,0,1.9726-1.60329l3.70813-21.285A.9733.9733,0,0,0,36,22Z"/><path d="M19.21,21.5l-.2-.5H14.69l.4,1H19.41Zm9.78-.5-.2.5-.2.5H32.91l.4-1ZM22,22h4V21H22Z" opacity=".05"/><path d="M19.21,21.5H14.89l.2.5H19.41Zm9.58,0-.2.5H32.91l.2-.5ZM22,22h4v-.5H22Z" opacity=".07"/></svg>