<?xml version="1.0" encoding="utf-8"?>
<svg width="512px" height="512px" viewBox="0 0 512 512" version="1.1" xmlns:xlink="http://www.w3.org/1999/xlink" xmlns="http://www.w3.org/2000/svg">
  <defs>
    <path d="M512 0L512 0L512 512L0 512L0 0L512 0Z" id="path_1" />
    <clipPath id="clip_1">
      <use xlink:href="#path_1" clip-rule="evenodd" fill-rule="evenodd" />
    </clipPath>
  </defs>
  <g id="Slider" clip-path="url(#clip_1)">
    <path d="M512 0L512 0L512 512L0 512L0 0L512 0Z" id="Slider" fill="none" stroke="none" />
    <path d="M64 234.667L448 234.667C453.888 234.667 458.667 239.445 458.667 245.333L458.667 266.667C458.667 272.555 453.888 277.333 448 277.333L64 277.333C58.112 277.333 53.3333 272.555 53.3333 266.667L53.3333 245.333C53.3333 239.445 58.112 234.667 64 234.667L64 234.667Z" id="Shape" fill="#0078D4" stroke="none" />
    <path d="M64 85.3333L448 85.3333C453.888 85.3333 458.667 90.112 458.667 96L458.667 117.333C458.667 123.221 453.888 128 448 128L64 128C58.112 128 53.3333 123.221 53.3333 117.333L53.3333 96C53.3333 90.112 58.112 85.3333 64 85.3333L64 85.3333Z" id="Shape" fill="#0078D4" stroke="none" />
    <path d="M64 384L448 384C453.888 384 458.667 388.779 458.667 394.667L458.667 416C458.667 421.888 453.888 426.667 448 426.667L64 426.667C58.112 426.667 53.3333 421.888 53.3333 416L53.3333 394.667C53.3333 388.779 58.112 384 64 384L64 384Z" id="Shape" fill="#0078D4" stroke="none" />
    <path d="M298.667 106.667C298.667 130.229 279.563 149.333 256 149.333C232.437 149.333 213.333 130.229 213.333 106.667C213.333 83.104 232.437 64 256 64C279.563 64 298.667 83.104 298.667 106.667M394.667 256C394.667 279.563 375.563 298.667 352 298.667C328.437 298.667 309.333 279.563 309.333 256C309.333 232.437 328.437 213.333 352 213.333C375.563 213.333 394.667 232.437 394.667 256M224 405.333C224 428.896 204.896 448 181.333 448C157.771 448 138.667 428.896 138.667 405.333C138.667 381.771 157.771 362.667 181.333 362.667C204.896 362.667 224 381.771 224 405.333" id="Shape" fill="#35C1F1" fill-rule="evenodd" stroke="none" />
  </g>
</svg>