<?xml version="1.0" encoding="utf-8"?>
<svg width="512px" height="512px" viewBox="0 0 512 512" version="1.1" xmlns:xlink="http://www.w3.org/1999/xlink" xmlns="http://www.w3.org/2000/svg">
  <defs>
    <path d="M512 0L512 0L512 512L0 512L0 0L512 0Z" id="path_1" />
    <clipPath id="clip_1">
      <use xlink:href="#path_1" />
    </clipPath>
  </defs>
  <g id="Slider" clip-path="url(#clip_1)">
    <path d="M512 0L512 0L512 512L0 512L0 0L512 0Z" id="Slider" fill="none" stroke="none" />
    <g id="Group-4" transform="translate(46 90)">
      <g id="Group-3" transform="translate(88.14795 64.26013)">
        <path d="M8.73293 17.4659L323.12 17.4659C327.94 17.4659 331.852 21.3783 331.852 26.1989L331.852 43.6648C331.852 48.4854 327.94 52.3978 323.12 52.3978L8.73293 52.3978C3.91235 52.3978 0 48.4854 0 43.6648L0 26.1989C0 21.3783 3.91235 17.4659 8.73293 17.4659L8.73293 17.4659Z" id="Shape" fill="#0078D4" stroke="none" />
        <path d="M279.454 34.9319C279.454 54.223 263.814 69.8636 244.523 69.8636C225.231 69.8636 209.591 54.223 209.591 34.9319C209.591 15.6407 225.231 0 244.523 0C263.814 0 279.454 15.6407 279.454 34.9319" id="Shape-Path" fill="#35C1F1" fill-rule="evenodd" stroke="none" />
      </g>
      <g id="Group" transform="translate(87.875244 197.14246)">
        <path d="M8.73302 17.4659L323.12 17.4659C327.941 17.4659 331.852 21.3783 331.852 26.1987L331.852 43.6647C331.852 48.4852 327.941 52.3977 323.12 52.3977L8.73302 52.3977C3.91238 52.3977 0 48.4852 0 43.6647L0 26.1987C0 21.3783 3.91238 17.4659 8.73302 17.4659L8.73302 17.4659Z" id="Shape" fill="#0078D4" stroke="none" />
        <path d="M139.727 34.9318C139.727 54.223 124.086 69.8636 104.795 69.8636C85.504 69.8636 69.8633 54.223 69.8633 34.9318C69.8633 15.6408 85.504 0 104.795 0C124.086 0 139.727 15.6408 139.727 34.9318" id="Shape-Path" fill="#35C1F1" fill-rule="evenodd" stroke="none" />
      </g>
      <g id="Group-2">
        <path d="M52.3975 8.73271L52.3975 323.113C52.3975 327.934 48.4852 331.846 43.6647 331.846L26.1991 331.846C21.3786 331.846 17.4663 327.934 17.4663 323.113L17.4663 8.73271C17.4663 3.9122 21.3786 -9.23379e-05 26.1991 -9.21272e-05L43.6647 -9.13638e-05C48.4852 -9.11531e-05 52.3975 3.9122 52.3975 8.73271L52.3975 8.73271Z" id="Shape" fill="#0078D4" stroke="none" />
        <path d="M69.8636 249.435C69.8636 268.726 54.2229 284.367 34.9318 284.367C15.6407 284.367 0 268.726 0 249.435C0 230.144 15.6407 214.503 34.9318 214.503C54.2229 214.503 69.8636 230.144 69.8636 249.435" id="Shape-Path" fill="#35C1F1" fill-rule="evenodd" stroke="none" />
      </g>
    </g>
  </g>
</svg>