<?xml version="1.0" encoding="utf-8"?>
<svg width="512px" height="512px" viewBox="0 0 512 512" version="1.1" xmlns:xlink="http://www.w3.org/1999/xlink" xmlns="http://www.w3.org/2000/svg">
  <defs>
    <linearGradient gradientUnits="objectBoundingBox" x1="0.01166667" y1="0.07600021" x2="0.9777222" y2="0.960001" id="gradient_1">
      <stop offset="0%" stop-color="#0077D2" />
      <stop offset="100%" stop-color="#0B59A2" />
    </linearGradient>
    <linearGradient gradientUnits="objectBoundingBox" x1="0.011500001" y1="0.05540037" x2="0.99372214" y2="0.9162669" id="gradient_2">
      <stop offset="0%" stop-color="#28AFEA" />
      <stop offset="100%" stop-color="#047ED6" />
    </linearGradient>
    <path d="M0 0L512 0L512 512L0 512L0 0Z" id="path_1" />
    <clipPath id="clip_1">
      <use xlink:href="#path_1" clip-rule="evenodd" fill-rule="evenodd" />
    </clipPath>
  </defs>
  <g id="SplitView" clip-path="url(#clip_1)" transform="matrix(0 1 -1 0 512 0)">
    <path d="M0 0L512 0L512 512L0 512L0 0Z" id="SplitView" fill="none" stroke="none" />
    <path d="M0 0L512 0L512 512L0 512L0 0Z" id="Background" fill="none" fill-rule="evenodd" stroke="none" />
    <g id="Group-2" transform="translate(66 66)">
      <path d="M380 236L380 236L380 344C380 363.885 363.885 380 344 380L36 380C16.115 380 0 363.885 0 344L0 236L380 236Z" id="S2" fill="url(#gradient_1)" stroke="none" />
      <path d="M344 0C363.885 0 380 16.115 380 36L380 236L0 236L0 36C0 16.115 16.115 0 36 0L344 0Z" id="S1" fill="url(#gradient_2)" stroke="none" />
    </g>
    <g id="Group-3" transform="matrix(0 -1 1 0 200 264)">
      <path d="M7.75935e-13 56.4372C-2.48104e-06 51.4568 5.94983 46.4325 5.94983 46.4325L54 3.93743C54 3.93743 63 -1.56147 68 0.437469C73 2.4364 74 11.9332 74 11.9332C74 38.7051 74 100.909 74 100.909C74 100.909 73 111.055 68 112.937C63 114.819 54 108.437 54 108.437L5.94984 66.3541C5.94984 66.3541 2.20537e-06 61.4176 7.75935e-13 56.4372Z" id="Triangle-3" fill="#000000" fill-opacity="0.05" fill-rule="evenodd" stroke="none" />
      <path d="M3.5 56.8043C3.5 52.8468 7.92974 48.8861 7.92974 48.8861L56 6.30577C56 6.30577 62.6225 1.80651 66.3725 3.3058C70.1225 4.8051 70.9999 12.303 70.9999 12.303L70.9999 101.313C70.9999 101.313 70.1225 108.808 66.3725 110.306C62.6225 111.804 56 107.306 56 107.306L7.92974 64.716C7.92974 64.716 3.5 60.7618 3.5 56.8043Z" id="Triangle-4" fill="#000000" fill-opacity="0.07" fill-rule="evenodd" stroke="none" />
      <path d="M6 56.5897C6 53.8672 9.08749 51.1691 9.08749 51.1691L57 8.2039C57 8.2039 61.5 5.20407 64 6.20408C66.5 7.20408 67 12.2039 67 12.2039L67 101.204C67 101.204 66.5 106.204 64 107.204C61.5 108.204 57 105.204 57 105.204L9.08748 62.0589C9.08748 62.0589 6 59.3121 6 56.5897Z" id="Triangle-5" fill="#FFFFFF" fill-rule="evenodd" stroke="none" />
    </g>
    <g id="Group-4" transform="matrix(2.2351742E-08 -1 1 2.2351742E-08 205.83984 431.2998)">
      <path d="M34.4567 5.67546C33.2058 5.67546 32.1907 6.94679 32.1907 8.51324L32.1907 14.1888C32.1907 15.7553 33.2058 17.0266 34.4567 17.0266L116.033 17.0266C117.284 17.0266 118.3 15.7553 118.3 14.1888L118.3 8.51324C118.3 6.94679 117.284 5.67546 116.033 5.67546L34.4567 5.67546L34.4567 5.67546ZM34.4567 45.4045C33.2058 45.4045 32.1907 46.6758 32.1907 48.2423L32.1907 53.9178C32.1907 55.4843 33.2058 56.7556 34.4567 56.7556L116.033 56.7556C117.284 56.7556 118.3 55.4843 118.3 53.9178L118.3 48.2423C118.3 46.6758 117.284 45.4045 116.033 45.4045L34.4567 45.4045L34.4567 45.4045ZM34.4567 85.1333C33.2058 85.1333 32.1907 86.4046 32.1907 87.9711L32.1907 93.6467C32.1907 95.2131 33.2058 96.4845 34.4567 96.4845L116.033 96.4845C117.284 96.4845 118.3 95.2131 118.3 93.6467L118.3 87.9711C118.3 86.4046 117.284 85.1333 116.033 85.1333L34.4567 85.1333L34.4567 85.1333Z" id="Vector" fill="#FFFFFF" stroke="none" />
      <path d="M22.7023 11.3511C22.7023 17.6198 17.6198 22.7023 11.3511 22.7023C5.08247 22.7023 0 17.6198 0 11.3511C0 5.08247 5.08247 0 11.3511 0C17.6198 0 22.7023 5.08247 22.7023 11.3511M22.7023 51.0801C22.7023 57.3488 17.6198 62.4313 11.3511 62.4313C5.08247 62.4313 0 57.3488 0 51.0801C0 44.8115 5.08247 39.729 11.3511 39.729C17.6198 39.729 22.7023 44.8115 22.7023 51.0801M22.7023 90.809C22.7023 97.0776 17.6198 102.16 11.3511 102.16C5.08247 102.16 0 97.0776 0 90.809C0 84.5403 5.08247 79.4579 11.3511 79.4579C17.6198 79.4579 22.7023 84.5403 22.7023 90.809" id="Shape" fill="#FFFFFF" fill-rule="evenodd" stroke="none" />
    </g>
  </g>
</svg>