<?xml version="1.0" encoding="utf-8"?>
<svg width="512px" height="512px" viewBox="0 0 512 512" version="1.1" xmlns:xlink="http://www.w3.org/1999/xlink" xmlns="http://www.w3.org/2000/svg">
  <defs>
    <linearGradient gradientUnits="objectBoundingBox" x1="0.92851996" y1="0.9573999" x2="-0.11524004" y2="-0.078400016" id="gradient_1">
      <stop offset="0%" stop-color="#3079D6" />
      <stop offset="100%" stop-color="#297CD2" />
    </linearGradient>
    <path d="M512 0L512 0L512 512L0 512L0 0L512 0Z" id="path_1" />
    <clipPath id="clip_1">
      <use xlink:href="#path_1" />
    </clipPath>
  </defs>
  <g id="TabControl" clip-path="url(#clip_1)">
    <path d="M512 0L512 0L512 512L0 512L0 0L512 0Z" id="TabControl" fill="none" stroke="none" />
    <path d="M469.333 106.667L469.333 192L202.667 192L202.667 85.3333L448 85.3333C459.733 85.3333 469.333 94.9333 469.333 106.667L469.333 106.667Z" id="Shape" fill="url(#gradient_1)" stroke="none" />
    <path d="M407.051 160C399.392 160 392.331 155.893 388.533 149.248L358.155 96.0747C354.347 89.44 347.275 85.3333 339.616 85.3333L213.333 85.3333L213.333 160L407.051 160L407.051 160Z" id="Shape" fill="#35C1F1" stroke="none" />
    <path d="M260.523 149.248L230.144 96.0747C226.347 89.44 219.275 85.3333 211.616 85.3333L64 85.3333C52.2133 85.3333 42.6667 94.88 42.6667 106.667L42.6667 405.333C42.6667 417.067 52.2667 426.667 64 426.667L448 426.667C459.733 426.667 469.333 417.067 469.333 405.333L469.333 181.333C469.333 169.547 459.787 160 448 160L279.051 160C271.392 160 264.32 155.893 260.523 149.248L260.523 149.248Z" id="Shape" fill="#50E6FF" stroke="none" />
  </g>
</svg>