<?xml version="1.0" encoding="utf-8"?>
<svg width="512px" height="512px" viewBox="0 0 512 512" version="1.1" xmlns:xlink="http://www.w3.org/1999/xlink" xmlns="http://www.w3.org/2000/svg">
  <defs>
    <linearGradient gradientUnits="objectBoundingBox" x1="0.011500001" y1="0.05540037" x2="0.99372214" y2="0.9162669" id="gradient_1">
      <stop offset="0%" stop-color="#EA289C" />
      <stop offset="100%" stop-color="#D6047B" />
    </linearGradient>
    <path d="M512 0L512 0L512 512L0 512L0 0L512 0Z" id="path_1" />
    <clipPath id="clip_1">
      <use xlink:href="#path_1" />
    </clipPath>
  </defs>
  <g id="TextBox" clip-path="url(#clip_1)">
    <path d="M512 0L512 0L512 512L0 512L0 0L512 0Z" id="TextBox" fill="none" stroke="none" />
    <path d="M46 166.4L46 345.6C46 357.976 55.3975 368 67 368L445 368C456.603 368 466 357.976 466 345.6L466 166.4C466 154.024 456.603 144 445 144L67 144C55.3975 144 46 154.024 46 166.4L46 166.4Z" id="Shape" fill="url(#gradient_1)" stroke="none" />
    <g id="编组-5" transform="translate(103 170)">
      <g id="编组-4">
        <path d="M0 0L0 33.2367L22.4348 33.2367L22.4348 138.763L0 138.763L0 172L78.9372 172L78.9372 138.763L55.6715 138.763L55.6715 33.2367L78.9372 33.2367L78.9372 0L0 0L0 0Z" id="矢量图" fill="#000000" fill-opacity="0.05" fill-rule="evenodd" stroke="none" />
      </g>
      <g id="编组-3" transform="translate(4.1545897 4.1545897)">
        <path d="M0 0L0 24.9275L22.4348 24.9275L22.4348 138.763L0 138.763L0 163.691L70.628 163.691L70.628 138.763L47.3623 138.763L47.3623 24.9275L70.628 24.9275L70.628 0L0 0L0 0Z" id="矢量图" fill="#000000" fill-opacity="0.07" fill-rule="evenodd" stroke="none" />
      </g>
      <g id="编组-2" transform="translate(8.309179 8.309179)">
        <path d="M0 0L0 16.6184L22.4348 16.6184L22.4348 138.763L0 138.763L0 155.382L62.3188 155.382L62.3188 138.763L39.0531 138.763L39.0531 16.6184L62.3188 16.6184L62.3188 0L0 0L0 0Z" id="矢量图" fill="#FFFFFF" fill-rule="evenodd" stroke="none" />
      </g>
    </g>
  </g>
</svg>