<?xml version="1.0" encoding="utf-8"?>
<svg width="512px" height="256px" viewBox="0 0 512 256" version="1.1" xmlns:xlink="http://www.w3.org/1999/xlink" xmlns="http://www.w3.org/2000/svg">
  <g id="Acss">
    <path d="M488 0C501.257 0 512 10.7434 512 24L512 232C512 245.257 501.257 256 488 256L24 256C10.7434 256 0 245.257 0 232L0 24C0 10.7434 10.7434 0 24 0L488 0Z" id="Rectangle" fill="#161B2D" stroke="none" />
    <g id="Group" transform="translate(29 79)">
      <g id="Brand">
        <path d="M152.022 37.4787C153.257 35.1434 154.885 33.0097 156.857 31.1365C161.728 26.5112 168.202 23.9647 175.09 23.9647C181.976 23.9647 188.451 26.5112 193.321 31.1365C195.748 33.4389 197.634 36.1088 198.926 39.0708L199.435 40.2336L225.445 40.2336L224.911 37.9422C222.444 27.3435 216.171 17.7157 207.25 10.8304C198.197 3.84647 186.776 0 175.09 0C158.365 0 142.683 7.79852 133.138 20.8614L132.193 22.1559L150.789 39.8113L152.022 37.4787ZM198.927 57.8231C197.634 60.7851 195.748 63.4536 193.321 65.7574C191.348 67.6306 189.101 69.176 186.641 70.3484C185.876 70.7132 185.083 71.0464 184.284 71.3344C181.833 72.2203 179.251 72.7413 176.611 72.8867C175.412 72.9525 174.157 72.9402 172.981 72.8483C166.913 72.3876 161.186 69.8685 156.858 65.7574C152.528 61.6462 149.874 56.2105 149.389 50.4483L149.33 49.7572L128.004 29.5073L126.955 32.3281C125.037 37.4937 124.064 42.9172 124.064 48.4462C124.064 61.3871 129.371 73.5545 139.009 82.7038C148.647 91.8544 161.46 96.8939 175.089 96.8939C181.982 96.8939 188.668 95.6117 194.958 93.0817C196.149 92.6045 197.339 92.0738 198.495 91.5075C205.044 88.2932 210.9 83.6623 215.43 78.1168C220.022 72.4959 223.3 65.8685 224.911 58.9517L225.443 56.6602L199.433 56.6602L198.927 57.8231ZM275.856 2.6534L300.435 25.9886L339.152 25.9886L339.152 2.6534L275.856 2.6534ZM337.892 59.0887L337.523 58.0713C337.485 57.967 337.448 57.8628 337.409 57.7572L337.403 57.7408C337.38 57.6777 337.355 57.6132 337.331 57.5488L336.897 56.3791L336.863 56.3901C336.844 56.3462 336.825 56.3009 336.806 56.257L336.673 55.9636C336.431 55.4219 336.168 54.883 335.892 54.3619L335.797 54.1795C335.372 53.3869 334.9 52.5998 334.396 51.8415L334.217 51.5714C334.123 51.4329 334.026 51.2916 333.929 51.1545L333.89 51.101C333.779 50.9447 333.668 50.7883 333.544 50.6224L333.499 50.5635C333.328 50.3345 333.155 50.1096 332.982 49.8902L332.882 49.7626C332.858 49.7297 332.833 49.6982 332.804 49.6653C332.713 49.5515 332.619 49.4363 332.523 49.3197L332.466 49.2525C332.401 49.1743 332.335 49.0976 332.27 49.0208L332.006 48.7136C331.92 48.6162 331.834 48.5202 331.746 48.4215C331.328 47.958 330.891 47.5014 330.453 47.0708L330.43 47.0488C330.311 46.9323 330.191 46.8171 330.072 46.7019L330.054 46.6868C329.981 46.6169 329.907 46.5483 329.832 46.4798L329.588 46.2535C329.539 46.2082 329.49 46.1644 329.442 46.1232L329.381 46.0697C329.235 45.9395 329.088 45.8106 328.944 45.6872C328.701 45.4774 328.481 45.295 328.275 45.1277L328.249 45.1057C327.69 44.6546 327.101 44.213 326.5 43.7948L326.367 43.7002C326.087 43.5082 325.786 43.3093 325.48 43.1133L325.414 43.0694C325.138 42.8938 324.845 42.7142 324.524 42.525L323.842 42.1328L323.822 42.1218C323.411 41.8928 322.973 41.6624 322.52 41.4375L322.494 41.4238C322.268 41.3128 322.043 41.2044 321.826 41.1029L321.8 41.092C321.68 41.0358 321.56 40.9809 321.431 40.9219L321.415 40.9151C321.033 40.7437 320.642 40.5777 320.251 40.42L320.17 40.3885C319.836 40.2555 319.501 40.128 319.169 40.0087L319.003 39.9497C318.497 39.7701 317.98 39.6014 317.459 39.4464L317.387 39.4245C317.127 39.3491 316.867 39.275 316.596 39.2037L316.532 39.1859C316.456 39.1653 316.381 39.1461 316.302 39.1256L316.051 39.02L315.874 39.02C315.557 38.9418 315.236 38.8691 314.92 38.8033L314.832 38.7841C314.58 38.732 314.328 38.6826 314.06 38.6346L313.699 38.5702C313.361 38.5126 313.057 38.466 312.766 38.4248L312.672 38.4111C312.475 38.3851 312.275 38.359 312.076 38.3343L312.035 38.3302C311.732 38.2945 311.409 38.2616 311.056 38.2315L310.988 38.2246C310.935 38.2205 310.882 38.215 310.815 38.2095C310.737 38.204 310.658 38.1986 310.584 38.1931L310.403 38.1807C310.325 38.1753 310.246 38.1698 310.169 38.1657C309.886 38.1478 309.585 38.1355 309.244 38.1245L309.024 38.1177C308.926 38.1149 308.828 38.1122 308.738 38.1108L308.628 38.1094C308.484 38.1081 308.34 38.1053 308.194 38.1053L270.853 38.1053C267.335 38.1053 264.473 35.3874 264.473 32.047C264.473 28.7065 267.335 25.9886 270.853 25.9886L289.204 25.9886L265.137 3.1375L264.073 3.3624C263.368 3.51048 262.643 3.6915 261.916 3.89856C257.052 5.28768 252.573 7.83416 248.962 11.2624C245.352 14.6906 242.67 18.943 241.207 23.5601C240.337 26.304 239.895 29.159 239.895 32.047C239.895 34.9363 240.336 37.7913 241.207 40.5339C242.67 45.1524 245.352 49.4047 248.962 52.8329C252.573 56.2612 257.052 58.8076 261.916 60.1968C264.805 61.0223 267.812 61.4419 270.853 61.4419L308.194 61.4419C311.712 61.4419 314.575 64.1598 314.575 67.5002C314.575 70.8407 311.712 73.5586 308.194 73.5586L239.895 73.5586L239.895 96.8938L308.194 96.8938C314.98 96.8938 321.423 94.8478 326.826 90.9753C332.052 87.2317 335.964 81.9083 337.84 75.9857C338.71 73.2445 339.152 70.3882 339.152 67.5002C339.152 64.6411 338.72 61.8135 337.866 59.0984L337.892 59.0887ZM389.521 2.6534L414.1 25.9886L452.817 25.9886L452.817 2.6534L389.521 2.6534ZM451.557 59.0887L451.187 58.0713C451.149 57.967 451.112 57.8628 451.073 57.7572L451.067 57.7408C451.044 57.6777 451.019 57.6132 450.995 57.5488L450.561 56.3791L450.527 56.3901C450.508 56.3462 450.489 56.3009 450.47 56.257L450.338 55.9636C450.095 55.4219 449.832 54.883 449.556 54.3619L449.461 54.1795C449.036 53.3869 448.564 52.5998 448.06 51.8415L447.881 51.5714C447.787 51.4329 447.69 51.2916 447.593 51.1545L447.554 51.101C447.443 50.9447 447.332 50.7883 447.208 50.6224L447.163 50.5635C446.993 50.3345 446.819 50.1096 446.646 49.8902L446.546 49.7626C446.522 49.7297 446.497 49.6982 446.468 49.6653C446.377 49.5515 446.284 49.4363 446.187 49.3197L446.13 49.2525C446.065 49.1743 445.999 49.0976 445.934 49.0208L445.67 48.7136C445.584 48.6162 445.498 48.5202 445.41 48.4215C444.992 47.958 444.555 47.5014 444.117 47.0708L444.094 47.0488C443.976 46.9323 443.856 46.8171 443.736 46.7019L443.718 46.6868C443.645 46.6169 443.571 46.5483 443.496 46.4798L443.252 46.2535C443.203 46.2082 443.154 46.1644 443.106 46.1232L443.045 46.0697C442.9 45.9395 442.752 45.8106 442.608 45.6872C442.365 45.4774 442.146 45.295 441.939 45.1277L441.913 45.1057C441.354 44.6546 440.765 44.213 440.164 43.7948L440.031 43.7002C439.751 43.5082 439.451 43.3093 439.144 43.1133L439.078 43.0694C438.802 42.8938 438.509 42.7142 438.188 42.525L437.507 42.1328L437.486 42.1218C437.075 41.8928 436.637 41.6624 436.184 41.4375L436.158 41.4238C435.932 41.3128 435.707 41.2044 435.49 41.1029L435.464 41.092C435.345 41.0358 435.225 40.9809 435.095 40.9219L435.079 40.9151C434.698 40.7437 434.306 40.5777 433.915 40.42L433.834 40.3885C433.5 40.2555 433.165 40.128 432.833 40.0087L432.667 39.9497C432.161 39.7701 431.644 39.6014 431.123 39.4464L431.051 39.4245C430.791 39.3491 430.531 39.275 430.261 39.2037L430.196 39.1859C430.121 39.1653 430.045 39.1461 429.966 39.1256L429.715 39.02L429.539 39.02C429.221 38.9418 428.9 38.8691 428.584 38.8033L428.496 38.7841C428.244 38.732 427.992 38.6826 427.725 38.6346L427.363 38.5702C427.026 38.5126 426.721 38.466 426.43 38.4248L426.337 38.4111C426.139 38.3851 425.939 38.359 425.74 38.3343L425.7 38.3302C425.396 38.2945 425.073 38.2616 424.72 38.2315L424.653 38.2246C424.599 38.2205 424.546 38.215 424.479 38.2095C424.401 38.204 424.322 38.1986 424.248 38.1931L424.068 38.1807C423.99 38.1753 423.91 38.1698 423.834 38.1657C423.551 38.1478 423.249 38.1355 422.908 38.1245L422.688 38.1177C422.59 38.1149 422.492 38.1122 422.402 38.1108L422.293 38.1094C422.148 38.1081 422.004 38.1053 421.858 38.1053L384.517 38.1053C380.999 38.1053 378.137 35.3874 378.137 32.047C378.137 28.7065 380.999 25.9886 384.517 25.9886L402.868 25.9886L378.801 3.1375L377.737 3.3624C377.032 3.51048 376.307 3.6915 375.58 3.89856C370.716 5.28768 366.237 7.83416 362.627 11.2624C359.016 14.6906 356.334 18.943 354.871 23.5601C354.001 26.304 353.559 29.159 353.559 32.047C353.559 34.9363 354 37.7913 354.871 40.5339C356.334 45.1524 359.016 49.4047 362.627 52.8329C366.237 56.2612 370.716 58.8076 375.58 60.1968C378.469 61.0223 381.476 61.4419 384.517 61.4419L421.858 61.4419C425.376 61.4419 428.239 64.1598 428.239 67.5002C428.239 70.8407 425.376 73.5586 421.858 73.5586L353.559 73.5586L353.559 96.8938L421.858 96.8938C428.645 96.8938 435.087 94.8478 440.491 90.9753C445.716 87.2317 449.628 81.9083 451.505 75.9857C452.374 73.2445 452.816 70.3882 452.816 67.5002C452.816 64.6411 452.384 61.8135 451.531 59.0984L451.557 59.0887Z" id="Path" fill="#FDFDFD" stroke="none" />
        <path d="M61.3213 0.903849L47.0373 23.2655L87.9395 87.5695L93.8972 96.8943L122.644 96.8943L61.3213 0.903849Z" id="Path" fill="#FDFDFD" stroke="none" />
        <path d="M0 96.8939L28.747 96.8939L56.7299 53.0894L42.3897 30.5413L0 96.8939Z" id="Path" fill="#FDFDFD" stroke="none" />
      </g>
    </g>
  </g>
</svg>