<?xml version="1.0" encoding="utf-8"?>
<svg width="1024px" height="206.35278px" viewBox="0 0 1024 206.35278" version="1.1" xmlns:xlink="http://www.w3.org/1999/xlink" xmlns="http://www.w3.org/2000/svg">
  <defs>
    <linearGradient gradientUnits="objectBoundingBox" x1="1.2130961" y1="-0.38606796" x2="-0.034237698" y2="1.0074301" id="gradient_1">
      <stop offset="0%" stop-color="#FFFFFF" />
      <stop offset="100%" stop-color="#FFC800" />
    </linearGradient>
    <linearGradient gradientUnits="objectBoundingBox" x1="-1.1092763" y1="1.4834242" x2="1.0000004" y2="0" id="gradient_2">
      <stop offset="0%" stop-color="#FFC800" />
      <stop offset="100%" stop-color="#90C418" stop-opacity="0.49803922" />
    </linearGradient>
    <linearGradient gradientUnits="objectBoundingBox" x1="-1.129898" y1="1.653375" x2="1.0582517" y2="-0.75197375" id="gradient_3">
      <stop offset="0%" stop-color="#FFC800" />
      <stop offset="100%" stop-color="#90C418" stop-opacity="0.49803922" />
    </linearGradient>
    <linearGradient gradientUnits="objectBoundingBox" x1="-1.6429382E-07" y1="0.77837515" x2="1.1491842" y2="-1.0500369" id="gradient_4">
      <stop offset="0%" stop-color="#FFC800" />
      <stop offset="100%" stop-color="#90C418" stop-opacity="0.49803922" />
    </linearGradient>
  </defs>
  <g id="AcssText">
    <path d="M1012 0C1018.63 0 1024 5.37168 1024 12L1024 194.353C1024 200.981 1018.63 206.353 1012 206.353L12 206.353C5.37168 206.353 0 200.981 0 194.353L0 12C0 5.37168 5.37168 0 12 0L1012 0Z" id="Rectangle" fill="#161B2D" stroke="none" />
    <g id="Group" transform="translate(221.86665 53.333332)">
      <g id="Brand" transform="translate(200.53333 0.5802085)">
        <path d="M126.312 33.2163C127.338 31.1466 128.691 29.2556 130.33 27.5954C134.376 23.4961 139.756 21.2392 145.479 21.2392C151.201 21.2392 156.58 23.4961 160.627 27.5954C162.643 29.636 164.21 32.0022 165.284 34.6274L165.707 35.658L187.318 35.658L186.874 33.6271C184.824 24.2338 179.612 15.7009 172.2 9.59872C164.678 3.40902 155.188 0 145.479 0C131.583 0 118.553 6.91161 110.622 18.4889L109.837 19.6362L125.287 35.2836L126.312 33.2163ZM165.284 51.247C164.21 53.8722 162.643 56.2372 160.627 58.279C158.988 59.9391 157.121 61.3088 155.077 62.3479C154.441 62.6712 153.782 62.9665 153.118 63.2217C151.082 64.0068 148.936 64.4687 146.743 64.5975C145.747 64.6558 144.704 64.6449 143.727 64.5635C138.685 64.1551 133.927 61.9225 130.33 58.279C126.732 54.6354 124.528 49.8178 124.125 44.711L124.076 44.0984L106.356 26.1516L105.485 28.6515C103.891 33.2297 103.082 38.0363 103.082 42.9366C103.082 54.4057 107.492 65.1894 115.5 73.2981C123.508 81.408 134.155 85.8744 145.478 85.8744C151.206 85.8744 156.761 84.738 161.987 82.4958C162.977 82.0728 163.966 81.6025 164.926 81.1005C170.368 78.2518 175.233 74.1476 178.997 69.2328C182.812 64.2511 185.536 58.3774 186.874 52.2473L187.317 50.2164L165.706 50.2164L165.284 51.247ZM229.203 2.35156L249.625 23.0329L281.794 23.0329L281.794 2.35156L229.203 2.35156ZM280.748 52.3687L280.441 51.467C280.41 51.3746 280.379 51.2822 280.346 51.1887L280.342 51.1741C280.322 51.1182 280.302 51.0611 280.282 51.0039L279.922 49.9672L279.893 49.977C279.877 49.9381 279.862 49.898 279.846 49.8591L279.736 49.599C279.534 49.119 279.316 48.6413 279.086 48.1795L279.007 48.0179C278.654 47.3154 278.262 46.6178 277.843 45.9457L277.694 45.7063C277.616 45.5835 277.536 45.4584 277.455 45.3368L277.423 45.2894C277.331 45.1509 277.238 45.0123 277.135 44.8653L277.098 44.813C276.956 44.6101 276.812 44.4107 276.668 44.2163L276.585 44.1033C276.565 44.0741 276.545 44.0461 276.521 44.017C276.445 43.9161 276.367 43.814 276.287 43.7107L276.24 43.6512C276.186 43.5819 276.131 43.5138 276.077 43.4458L275.857 43.1735C275.786 43.0872 275.714 43.0022 275.641 42.9147C275.294 42.5039 274.931 42.0992 274.567 41.7176L274.548 41.6981C274.449 41.5948 274.35 41.4927 274.25 41.3906L274.236 41.3773C274.175 41.3153 274.113 41.2545 274.051 41.1938L273.848 40.9932C273.807 40.9531 273.767 40.9142 273.727 40.8778L273.677 40.8304C273.555 40.7149 273.433 40.6007 273.313 40.4913C273.111 40.3054 272.929 40.1437 272.757 39.9954L272.736 39.976C272.271 39.5762 271.782 39.1848 271.283 38.8141L271.172 38.7303C270.939 38.5601 270.69 38.3839 270.435 38.2101L270.38 38.1712C270.151 38.0157 269.907 37.8564 269.641 37.6887L269.075 37.3412L269.058 37.3314C268.716 37.1285 268.352 36.9243 267.975 36.725L267.954 36.7128C267.767 36.6144 267.579 36.5184 267.399 36.4284L267.378 36.4187C267.278 36.3689 267.178 36.3203 267.071 36.268L267.057 36.2619C266.741 36.11 266.415 35.963 266.09 35.8232L266.023 35.7952C265.746 35.6774 265.467 35.5643 265.191 35.4586L265.053 35.4063C264.633 35.2471 264.204 35.0977 263.77 34.9603L263.71 34.9409C263.494 34.874 263.278 34.8084 263.054 34.7452L263 34.7294C262.938 34.7112 262.875 34.6942 262.809 34.6759L262.6 34.5824L262.454 34.5824C262.19 34.5131 261.924 34.4487 261.661 34.3903L261.588 34.3733C261.379 34.3271 261.169 34.2834 260.947 34.2408L260.647 34.1837C260.366 34.1327 260.113 34.0914 259.872 34.0549L259.794 34.0427C259.629 34.0196 259.464 33.9966 259.298 33.9747L259.264 33.971C259.012 33.9394 258.744 33.9103 258.451 33.8835L258.394 33.8775C258.35 33.8738 258.306 33.8689 258.25 33.8641C258.186 33.8592 258.12 33.8544 258.058 33.8495L257.908 33.8386C257.844 33.8337 257.778 33.8288 257.714 33.8252C257.479 33.8094 257.228 33.7985 256.945 33.7887L256.762 33.7827C256.681 33.7802 256.599 33.7778 256.525 33.7766L256.434 33.7754C256.314 33.7742 256.194 33.7717 256.072 33.7717L225.047 33.7717C222.124 33.7717 219.745 31.3629 219.745 28.4024C219.745 25.4418 222.124 23.033 225.047 23.033L240.294 23.033L220.297 2.78073L219.413 2.98005C218.827 3.11129 218.225 3.27172 217.621 3.45523C213.58 4.68637 209.858 6.94324 206.858 9.98158C203.858 13.0199 201.63 16.7887 200.414 20.8807C199.692 23.3126 199.324 25.8429 199.324 28.4024C199.324 30.9631 199.69 33.4934 200.414 35.9241C201.63 40.0173 203.858 43.7861 206.858 46.8244C209.858 49.8627 213.58 52.1196 217.621 53.3507C220.021 54.0824 222.52 54.4543 225.047 54.4543L256.072 54.4543C258.996 54.4543 261.374 56.8631 261.374 59.8236C261.374 62.7842 258.996 65.1929 256.072 65.1929L199.324 65.1929L199.324 85.8743L256.072 85.8743C261.711 85.8743 267.065 84.061 271.554 80.6289C275.895 77.311 279.146 72.5931 280.705 67.3441C281.428 64.9146 281.795 62.3831 281.795 59.8236C281.795 57.2896 281.436 54.7836 280.727 52.3773L280.748 52.3687ZM323.646 2.35156L344.068 23.0329L376.237 23.0329L376.237 2.35156L323.646 2.35156ZM375.19 52.3687L374.882 51.467C374.851 51.3746 374.82 51.2822 374.788 51.1887L374.783 51.1741C374.764 51.1182 374.743 51.0611 374.723 51.0039L374.363 49.9672L374.334 49.977C374.318 49.9381 374.303 49.898 374.287 49.8591L374.177 49.599C373.975 49.119 373.757 48.6413 373.528 48.1795L373.448 48.0179C373.096 47.3154 372.703 46.6178 372.284 45.9457L372.136 45.7063C372.058 45.5835 371.977 45.4584 371.897 45.3368L371.864 45.2894C371.772 45.1509 371.68 45.0123 371.576 44.8653L371.539 44.813C371.398 44.6101 371.254 44.4107 371.11 44.2163L371.027 44.1033C371.006 44.0741 370.986 44.0461 370.962 44.017C370.886 43.9161 370.808 43.814 370.728 43.7107L370.681 43.6512C370.627 43.5819 370.572 43.5138 370.518 43.4458L370.298 43.1735C370.228 43.0872 370.156 43.0022 370.082 42.9147C369.736 42.5039 369.372 42.0992 369.008 41.7176L368.989 41.6981C368.891 41.5948 368.791 41.4927 368.691 41.3906L368.677 41.3773C368.616 41.3153 368.555 41.2545 368.492 41.1938L368.29 40.9932C368.249 40.9531 368.208 40.9142 368.168 40.8778L368.118 40.8304C367.997 40.7149 367.874 40.6007 367.754 40.4913C367.553 40.3054 367.37 40.1437 367.199 39.9954L367.177 39.976C366.713 39.5762 366.223 39.1848 365.724 38.8141L365.613 38.7303C365.381 38.5601 365.131 38.3839 364.877 38.2101L364.821 38.1712C364.592 38.0157 364.349 37.8564 364.082 37.6887L363.516 37.3412L363.499 37.3314C363.157 37.1285 362.793 36.9243 362.417 36.725L362.395 36.7128C362.208 36.6144 362.021 36.5184 361.841 36.4284L361.819 36.4187C361.719 36.3689 361.62 36.3203 361.512 36.268L361.499 36.2619C361.182 36.11 360.857 35.963 360.531 35.8232L360.464 35.7952C360.187 35.6774 359.909 35.5643 359.633 35.4586L359.495 35.4063C359.075 35.2471 358.645 35.0977 358.212 34.9603L358.152 34.9409C357.936 34.874 357.72 34.8084 357.495 34.7452L357.441 34.7294C357.379 34.7112 357.316 34.6942 357.25 34.6759L357.042 34.5824L356.895 34.5824C356.631 34.5131 356.365 34.4487 356.102 34.3903L356.029 34.3733C355.82 34.3271 355.61 34.2834 355.388 34.2408L355.088 34.1837C354.807 34.1327 354.554 34.0914 354.313 34.0549L354.235 34.0427C354.07 34.0196 353.905 33.9966 353.739 33.9747L353.706 33.971C353.454 33.9394 353.185 33.9103 352.892 33.8835L352.836 33.8775C352.791 33.8738 352.747 33.8689 352.692 33.8641C352.627 33.8592 352.561 33.8544 352.5 33.8495L352.35 33.8386C352.285 33.8337 352.219 33.8288 352.155 33.8252C351.92 33.8094 351.669 33.7985 351.386 33.7887L351.204 33.7827C351.122 33.7802 351.04 33.7778 350.966 33.7766L350.875 33.7754C350.755 33.7742 350.635 33.7717 350.514 33.7717L319.488 33.7717C316.565 33.7717 314.186 31.3629 314.186 28.4024C314.186 25.4418 316.565 23.033 319.488 23.033L334.736 23.033L314.738 2.78073L313.854 2.98005C313.268 3.11129 312.666 3.27172 312.062 3.45523C308.021 4.68637 304.299 6.94324 301.299 9.98158C298.299 13.0199 296.071 16.7887 294.855 20.8807C294.133 23.3126 293.766 25.8429 293.766 28.4024C293.766 30.9631 294.132 33.4934 294.855 35.9241C296.071 40.0173 298.299 43.7861 301.299 46.8244C304.299 49.8627 308.021 52.1196 312.062 53.3507C314.462 54.0824 316.961 54.4543 319.488 54.4543L350.514 54.4543C353.437 54.4543 355.815 56.8631 355.815 59.8236C355.815 62.7842 353.437 65.1929 350.514 65.1929L293.766 65.1929L293.766 85.8743L350.514 85.8743C356.152 85.8743 361.506 84.061 365.995 80.6289C370.337 77.311 373.588 72.5931 375.146 67.3441C375.869 64.9146 376.236 62.3831 376.236 59.8236C376.236 57.2896 375.877 54.7836 375.168 52.3773L375.19 52.3687Z" id="Path" fill="#FDFDFD" stroke="none" />
        <path d="M50.9506 0.801042L39.0823 20.6195L73.0671 77.6103L78.0172 85.8746L101.903 85.8746L50.9506 0.801042Z" id="Path" fill="#FDFDFD" stroke="none" />
        <path d="M0 85.8742L23.8853 85.8742L47.1357 47.0515L35.2207 27.0677L0 85.8742Z" id="Path" fill="#FDFDFD" stroke="none" />
      </g>
      <g id="Logo-3">
        <path d="M0 87.0372L9.13236 84.8512C9.13236 84.8512 52.7462 81.2306 86.2203 60.1217C119.694 39.0129 143.163 0.757813 143.163 0.757813L143.361 1.26156C143.361 1.26156 120.162 40.517 86.923 62.0699C53.6838 83.6228 10.6097 87.9936 10.6097 87.9936L2.01449 88.6766L0 87.0372Z" id="Vector" fill="url(#gradient_1)" fill-rule="evenodd" stroke="none" />
        <g id="Group-2" transform="translate(30.62031 0)">
          <path d="M61.2405 57.6174C61.2405 57.6174 57.6816 25.5211 70.6414 11.2094C83.6014 -3.10225 113.08 0.370825 113.08 0.370825C113.08 0.370825 120.547 20.9686 111.603 31.8401C102.658 42.7116 77.3028 43.8571 77.3028 43.8571L61.2405 57.6174Z" id="Vector-6" fill="url(#gradient_2)" fill-opacity="0.8" fill-rule="evenodd" stroke="none" />
          <path d="M49.9597 64.1756C49.9597 64.1756 42.8417 40.6759 53.5857 25.2371C64.3297 9.7983 92.9355 2.42031 92.9355 2.42031C92.9355 2.42031 73.9398 13.6909 66.2847 27.2169C58.6297 40.743 62.3152 56.5246 62.3152 56.5246L49.9597 64.1756Z" id="Vector-4" fill="url(#gradient_3)" fill-opacity="0.8" fill-rule="evenodd" stroke="none" />
          <path d="M59.0917 59.4385C59.0917 59.4385 76.8192 65.7575 89.8462 57.5258C102.873 49.294 111.2 26.5115 111.2 26.5115C111.2 26.5115 104.923 34.2065 98.3071 37.9881C91.6918 41.7697 80.0378 41.6379 80.0378 41.6379L59.0917 59.4385Z" id="Vector-5" fill="url(#gradient_3)" fill-opacity="0.8" fill-rule="evenodd" stroke="none" />
          <path d="M5.64057 80.5704C5.64057 80.5704 4.56615 74.9005 4.56615 70.8701C4.56615 66.8396 5.64057 63.4922 5.64057 63.4922C5.64057 63.4922 5.87557 65.9811 6.44633 68.0647C7.01711 70.1483 7.92365 71.8264 7.92365 71.8264C7.92365 71.8264 7.8565 67.7618 9.13235 63.4922C10.4082 59.2226 13.027 54.7481 13.027 54.7481C13.027 54.7481 11.8855 58.7787 12.3555 63.4922C12.8256 68.2059 14.9072 73.6026 14.9072 73.6026C14.9072 73.6026 14.6051 63.2531 19.3391 53.7917C24.0732 44.3303 29.143 42.2467 33.8435 35.757C38.544 29.2672 38.1411 27.8326 38.1411 27.8326C38.1411 27.8326 37.719 35.788 36.1745 42.2777C34.6301 48.7675 31.9633 53.7917 31.9633 53.7917C31.9633 53.7917 37.4696 40.129 45.6618 31.2483C53.8541 22.3675 64.7323 18.2688 64.7323 18.2688C64.7323 18.2688 53.2497 28.5499 49.4223 39.8558C45.5947 51.1616 50.0937 64.312 50.0937 64.312C50.0937 64.312 39.0134 70.9042 27.9001 74.9689C16.7869 79.0335 5.64057 80.5704 5.64057 80.5704Z" id="Vector-2" fill="url(#gradient_4)" fill-opacity="0.8" fill-rule="evenodd" stroke="none" />
          <path d="M0 83.7132C0 83.7132 1.91374 85.3869 4.56617 87.2655C7.2186 89.1441 9.09879 88.9051 10.6097 91.2276C12.1205 93.5504 10.6097 96.5561 10.6097 96.5561C10.6097 96.5561 12.322 94.4384 12.7584 92.4572C13.1949 90.4762 12.3555 88.6317 12.3555 88.6317C12.3555 88.6317 15.6123 90.5445 17.056 92.4572C18.4998 94.37 18.1304 96.2828 18.1304 96.2828C18.1304 96.2828 18.399 92.9697 18.1304 91.2276C17.8619 89.4858 17.056 89.3148 17.056 89.3148C17.056 89.3148 21.5887 93.4136 30.0831 92.4572C38.5776 91.5009 51.0339 85.4893 51.0339 85.4893C51.0339 85.4893 42.2708 87.1631 34.6493 85.4893C27.0278 83.8156 20.5478 78.7946 20.5478 78.7946C20.5478 78.7946 44.9233 88.0852 64.7325 80.7074C84.5417 73.3296 99.7845 49.2833 99.7845 49.2833C99.7845 49.2833 85.8846 60.1901 76.2823 62.4444C66.6798 64.6988 60.7034 58.3007 60.7034 58.3007C60.7034 58.3007 47.4243 66.7032 32.0805 73.0563C16.7368 79.4095 0 83.7132 0 83.7132Z" id="Vector-3" fill="url(#gradient_4)" fill-opacity="0.8" fill-rule="evenodd" stroke="none" />
        </g>
      </g>
    </g>
  </g>
</svg>