<?xml version="1.0" encoding="utf-8"?>
<svg width="576px" height="283.91162px" viewBox="0 0 576 283.91162" version="1.1" xmlns:xlink="http://www.w3.org/1999/xlink" xmlns="http://www.w3.org/2000/svg">
  <defs>
    <filter filterUnits="userSpaceOnUse" color-interpolation-filters="sRGB" id="filter_1">
      <feFlood flood-opacity="0" result="BackgroundImageFix" />
      <feColorMatrix in="SourceAlpha" type="matrix" values="0 0 0 0 0 0 0 0 0 0 0 0 0 0 0 0 0 0 128 0" />
      <feOffset dx="4" dy="7" />
      <feGaussianBlur stdDeviation="9.5" />
      <feColorMatrix type="matrix" values="0 0 0 0 0 0 0 0 0 0 0 0 0 0 0 0 0 0 0.2509804 0" />
      <feBlend mode="normal" in2="BackgroundImageFix" result="effect0_dropShadow" />
      <feBlend mode="normal" in="SourceGraphic" in2="effect0_dropShadow" result="shape" />
    </filter>
  </defs>
  <g filter="url(#filter_1)">
    <g id="Logo-2">
      <path d="M487 0C504.676 0 519 14.3245 519 32L519 194.912C519 212.587 504.676 226.912 487 226.912L32 226.912C14.3245 226.912 0 212.587 0 194.912L0 32C0 14.3245 14.3245 0 32 0L487 0Z" id="Rectangle" fill="#FBCC13" stroke="none" />
      <path d="M185.334 102.027C186.565 99.5742 188.188 97.3336 190.155 95.3666C195.011 90.5095 201.467 87.8354 208.334 87.8354C215.2 87.8354 221.655 90.5095 226.511 95.3666C228.93 97.7843 230.811 100.588 232.1 103.698L232.607 104.92L258.539 104.92L258.007 102.513C255.547 91.3835 249.293 81.2733 240.398 74.043C231.372 66.7091 219.985 62.6699 208.334 62.6699C191.659 62.6699 176.023 70.8592 166.506 84.5766L165.564 85.936L184.104 104.476L185.334 102.027ZM232.1 123.39C230.811 126.501 228.93 129.303 226.511 131.722C224.544 133.689 222.303 135.312 219.851 136.543C219.088 136.926 218.297 137.276 217.501 137.579C215.057 138.509 212.483 139.056 209.85 139.209C208.655 139.278 207.404 139.265 206.231 139.168C200.181 138.685 194.471 136.039 190.155 131.722C185.838 127.405 183.193 121.697 182.709 115.646L182.65 114.92L161.387 93.6558L160.342 96.6178C158.429 102.042 157.459 107.738 157.459 113.544C157.459 127.133 162.751 139.91 172.36 149.518C181.969 159.127 194.745 164.419 208.332 164.419C215.206 164.419 221.871 163.072 228.143 160.416C229.331 159.914 230.517 159.357 231.669 158.762C238.199 155.387 244.037 150.524 248.555 144.701C253.132 138.798 256.401 131.839 258.007 124.575L258.538 122.169L232.605 122.169L232.1 123.39ZM308.801 65.4563L333.307 89.9608L371.909 89.9608L371.909 65.4563L308.801 65.4563ZM370.654 124.719L370.285 123.651C370.247 123.542 370.21 123.432 370.171 123.321L370.165 123.304C370.142 123.238 370.118 123.17 370.093 123.102L369.661 121.874L369.627 121.886C369.608 121.839 369.589 121.792 369.571 121.746L369.438 121.438C369.196 120.869 368.934 120.303 368.659 119.756L368.564 119.564C368.141 118.732 367.67 117.905 367.167 117.109L366.989 116.825C366.895 116.68 366.799 116.532 366.702 116.388L366.663 116.331C366.552 116.167 366.442 116.003 366.318 115.829L366.273 115.767C366.103 115.527 365.93 115.29 365.758 115.06L365.658 114.926C365.634 114.891 365.609 114.858 365.58 114.824C365.49 114.704 365.396 114.583 365.3 114.461L365.243 114.39C365.179 114.308 365.112 114.228 365.048 114.147L364.784 113.824C364.699 113.722 364.613 113.621 364.525 113.518C364.109 113.031 363.672 112.551 363.236 112.099L363.213 112.076C363.095 111.954 362.975 111.833 362.856 111.712L362.839 111.696C362.765 111.623 362.692 111.551 362.617 111.479L362.374 111.241C362.325 111.194 362.276 111.147 362.228 111.104L362.168 111.048C362.022 110.911 361.875 110.776 361.731 110.646C361.489 110.426 361.271 110.235 361.065 110.059L361.039 110.036C360.481 109.562 359.894 109.098 359.295 108.659L359.162 108.56C358.883 108.358 358.583 108.149 358.278 107.943L358.212 107.897C357.937 107.713 357.645 107.524 357.325 107.326L356.645 106.914L356.625 106.902C356.215 106.662 355.778 106.42 355.326 106.184L355.3 106.169C355.076 106.053 354.851 105.939 354.635 105.832L354.609 105.821C354.49 105.762 354.37 105.704 354.24 105.642L354.225 105.635C353.844 105.455 353.454 105.281 353.064 105.115L352.983 105.082C352.651 104.943 352.317 104.809 351.985 104.683L351.82 104.621C351.316 104.433 350.8 104.256 350.28 104.093L350.208 104.07C349.949 103.991 349.69 103.913 349.421 103.838L349.356 103.819C349.281 103.798 349.206 103.778 349.127 103.756L348.876 103.645L348.701 103.645C348.384 103.563 348.064 103.487 347.749 103.418L347.661 103.397C347.41 103.343 347.159 103.291 346.892 103.24L346.532 103.173C346.195 103.112 345.891 103.063 345.602 103.02L345.508 103.006C345.311 102.978 345.112 102.951 344.914 102.925L344.873 102.921C344.571 102.883 344.248 102.849 343.897 102.817L343.829 102.81C343.776 102.806 343.723 102.8 343.656 102.794C343.579 102.788 343.499 102.783 343.426 102.777L343.246 102.764C343.168 102.758 343.089 102.752 343.013 102.748C342.731 102.729 342.43 102.716 342.09 102.705L341.871 102.698C341.773 102.695 341.675 102.692 341.586 102.69L341.476 102.689C341.332 102.687 341.188 102.685 341.043 102.685L303.813 102.685C300.305 102.685 297.451 99.8305 297.451 96.3227C297.451 92.8148 300.305 89.9608 303.813 89.9608L322.11 89.9608L298.114 65.9646L297.052 66.2008C296.35 66.3563 295.627 66.5464 294.902 66.7638C290.052 68.2225 285.587 70.8966 281.987 74.4966C278.387 78.0966 275.713 82.562 274.254 87.4105C273.387 90.292 272.947 93.29 272.947 96.3227C272.947 99.3568 273.386 102.355 274.254 105.235C275.713 110.085 278.387 114.55 281.987 118.15C285.587 121.75 290.052 124.424 294.902 125.883C297.782 126.75 300.78 127.191 303.813 127.191L341.043 127.191C344.551 127.191 347.405 130.045 347.405 133.552C347.405 137.06 344.551 139.914 341.043 139.914L272.947 139.914L272.947 164.419L341.043 164.419C347.809 164.419 354.233 162.27 359.62 158.204C364.83 154.273 368.731 148.683 370.602 142.463C371.469 139.585 371.909 136.585 371.909 133.552C371.909 130.55 371.479 127.581 370.628 124.73L370.654 124.719ZM422.129 65.4563L446.635 89.9608L485.237 89.9608L485.237 65.4563L422.129 65.4563ZM483.982 124.719L483.613 123.651C483.575 123.542 483.538 123.432 483.499 123.321L483.493 123.304C483.47 123.238 483.446 123.17 483.421 123.102L482.989 121.874L482.955 121.886C482.936 121.839 482.917 121.792 482.899 121.746L482.766 121.438C482.524 120.869 482.262 120.303 481.987 119.756L481.892 119.564C481.469 118.732 480.998 117.905 480.495 117.109L480.317 116.825C480.223 116.68 480.127 116.532 480.03 116.388L479.991 116.331C479.88 116.167 479.77 116.003 479.646 115.829L479.601 115.767C479.431 115.527 479.258 115.29 479.086 115.06L478.986 114.926C478.962 114.891 478.937 114.858 478.908 114.824C478.818 114.704 478.724 114.583 478.628 114.461L478.571 114.39C478.507 114.308 478.44 114.228 478.376 114.147L478.112 113.824C478.027 113.722 477.941 113.621 477.853 113.518C477.437 113.031 477 112.551 476.564 112.099L476.541 112.076C476.423 111.954 476.303 111.833 476.184 111.712L476.167 111.696C476.093 111.623 476.02 111.551 475.945 111.479L475.702 111.241C475.653 111.194 475.604 111.147 475.556 111.104L475.496 111.048C475.35 110.911 475.203 110.776 475.059 110.646C474.817 110.426 474.598 110.235 474.393 110.059L474.367 110.036C473.809 109.562 473.222 109.098 472.623 108.659L472.49 108.56C472.211 108.358 471.911 108.149 471.606 107.943L471.54 107.897C471.265 107.713 470.973 107.524 470.653 107.326L469.973 106.914L469.953 106.902C469.543 106.662 469.106 106.42 468.654 106.184L468.628 106.169C468.404 106.053 468.179 105.939 467.963 105.832L467.937 105.821C467.818 105.762 467.698 105.704 467.568 105.642L467.553 105.635C467.172 105.455 466.782 105.281 466.392 105.115L466.311 105.082C465.979 104.943 465.645 104.809 465.313 104.683L465.148 104.621C464.644 104.433 464.128 104.256 463.608 104.093L463.536 104.07C463.277 103.991 463.018 103.913 462.749 103.838L462.684 103.819C462.609 103.798 462.534 103.778 462.455 103.756L462.204 103.645L462.029 103.645C461.712 103.563 461.392 103.487 461.077 103.418L460.989 103.397C460.738 103.343 460.486 103.291 460.22 103.24L459.86 103.173C459.523 103.112 459.219 103.063 458.93 103.02L458.836 103.006C458.639 102.978 458.44 102.951 458.242 102.925L458.201 102.921C457.899 102.883 457.576 102.849 457.225 102.817L457.157 102.81C457.104 102.806 457.051 102.8 456.984 102.794C456.907 102.788 456.827 102.783 456.754 102.777L456.574 102.764C456.496 102.758 456.417 102.752 456.341 102.748C456.059 102.729 455.758 102.716 455.418 102.705L455.199 102.698C455.101 102.695 455.003 102.692 454.914 102.69L454.804 102.689C454.66 102.687 454.516 102.685 454.371 102.685L417.141 102.685C413.633 102.685 410.779 99.8305 410.779 96.3227C410.779 92.8148 413.633 89.9608 417.141 89.9608L435.438 89.9608L411.442 65.9646L410.38 66.2008C409.678 66.3563 408.955 66.5464 408.23 66.7638C403.38 68.2225 398.915 70.8966 395.315 74.4966C391.715 78.0966 389.041 82.562 387.582 87.4105C386.715 90.292 386.275 93.29 386.275 96.3227C386.275 99.3568 386.714 102.355 387.582 105.235C389.041 110.085 391.715 114.55 395.315 118.15C398.915 121.75 403.38 124.424 408.23 125.883C411.11 126.75 414.108 127.191 417.141 127.191L454.371 127.191C457.879 127.191 460.733 130.045 460.733 133.552C460.733 137.06 457.879 139.914 454.371 139.914L386.275 139.914L386.275 164.419L454.371 164.419C461.137 164.419 467.561 162.27 472.948 158.204C478.158 154.273 482.059 148.683 483.93 142.463C484.797 139.585 485.237 136.585 485.237 133.552C485.237 130.55 484.807 127.581 483.956 124.73L483.982 124.719Z" id="Path" fill="#000000" fill-opacity="0.36862746" stroke="none" />
      <path d="M94.9022 63.6189L80.6606 87.101L121.441 154.627L127.381 164.419L156.043 164.419L94.9022 63.6189Z" id="Path" fill="#000000" stroke="none" />
      <path d="M33.7627 164.419L62.4245 164.419L90.3245 118.42L76.0267 94.7417L33.7627 164.419Z" id="Path" fill="#000000" stroke="none" />
    </g>
  </g>
</svg>